<?xml version="1.0" encoding="iso-8859-1"?>
<!-- Generator: Adobe Illustrator 16.0.0, SVG Export Plug-In . SVG Version: 6.00 Build 0)  -->
<!DOCTYPE svg PUBLIC "-//W3C//DTD SVG 1.1//EN" "http://www.w3.org/Graphics/SVG/1.1/DTD/svg11.dtd">
<svg version="1.1" id="Layer_1" xmlns="http://www.w3.org/2000/svg" xmlns:xlink="http://www.w3.org/1999/xlink" x="0px" y="0px"
	 width="256px" height="256px" viewBox="0 0 256 256" style="enable-background:new 0 0 256 256;" xml:space="preserve">
<path d="M226,14H30c-8.837,0-16,7.164-16,16v196c0,8.837,7.163,16,16,16h196c8.836,0,16-7.163,16-16V30
	C242,21.164,234.836,14,226,14z M169.143,100.214c-7.068-4.216-15.111-6.324-24.141-6.324c-9.903,0-17.908,3.115-23.992,9.346
	c-6.084,6.231-9.121,14.667-9.121,25.314c0,10.206,2.867,18.339,8.609,24.392c5.734,6.067,13.469,9.095,23.18,9.095
	c9.275,0,17.762-2.252,25.465-6.773v21.718c-7.703,3.731-17.762,5.591-30.17,5.591c-16.196,0-28.929-4.758-38.197-14.277
	c-9.284-9.521-13.918-22.203-13.918-38.051c0-16.879,5.215-30.569,15.646-41.066c10.423-10.501,23.953-15.751,40.584-15.751
	c10.308,0,18.986,1.298,26.055,3.902V100.214z"/>
</svg>
