<?xml version="1.0" encoding="iso-8859-1"?>
<!-- Generator: Adobe Illustrator 16.0.0, SVG Export Plug-In . SVG Version: 6.00 Build 0)  -->
<!DOCTYPE svg PUBLIC "-//W3C//DTD SVG 1.1//EN" "http://www.w3.org/Graphics/SVG/1.1/DTD/svg11.dtd">
<svg version="1.1" id="Layer_1" xmlns="http://www.w3.org/2000/svg" xmlns:xlink="http://www.w3.org/1999/xlink" x="0px" y="0px"
	 width="256px" height="256px" viewBox="0 0 256 256" style="enable-background:new 0 0 256 256;" xml:space="preserve">
<path d="M226,14H30c-8.837,0-16,7.164-16,16v196c0,8.837,7.163,16,16,16h196c8.836,0,16-7.163,16-16V30
	C242,21.164,234.836,14,226,14z M114.178,103.561c-6.216-3.708-13.292-5.562-21.232-5.562c-8.711,0-15.752,2.74-21.103,8.22
	c-5.351,5.48-8.023,12.9-8.023,22.266c0,8.977,2.522,16.131,7.573,21.455c5.044,5.337,11.847,7.999,20.387,7.999
	c8.159,0,15.623-1.98,22.398-5.958v19.103C107.403,174.364,98.555,176,87.643,176c-14.246,0-25.445-4.185-33.597-12.559
	c-8.166-8.374-12.242-19.529-12.242-33.468c0-14.846,4.587-26.887,13.762-36.12C64.733,84.618,76.634,80,91.262,80
	c9.065,0,16.7,1.142,22.916,3.432V103.561z M164.755,134.833h-14.089v14.089h-13.831v-14.089H122.91v-13.831h13.926v-13.926h13.831
	v13.926h14.089V134.833z M214.197,134.833h-14.089v14.089h-13.83v-14.089h-13.926v-13.831h13.926v-13.926h13.83v13.926h14.089
	V134.833z"/>
</svg>
