<?xml version="1.0" encoding="iso-8859-1"?>
<!-- Generator: Adobe Illustrator 16.0.0, SVG Export Plug-In . SVG Version: 6.00 Build 0)  -->
<!DOCTYPE svg PUBLIC "-//W3C//DTD SVG 1.1//EN" "http://www.w3.org/Graphics/SVG/1.1/DTD/svg11.dtd">
<svg version="1.1" id="Layer_1" xmlns="http://www.w3.org/2000/svg" xmlns:xlink="http://www.w3.org/1999/xlink" x="0px" y="0px"
	 width="256px" height="256px" viewBox="0 0 256 256" style="enable-background:new 0 0 256 256;" xml:space="preserve">
<path d="M123.319,171.13c-6.706,3.25-15.467,4.87-26.277,4.87c-14.104,0-25.198-4.145-33.271-12.437
	c-8.082-8.292-12.119-19.337-12.119-33.142c0-14.701,4.543-26.625,13.625-35.768c9.079-9.146,20.864-13.718,35.349-13.718
	c8.978,0,16.54,1.133,22.693,3.398v19.933c-6.153-3.672-13.163-5.508-21.026-5.508c-8.626,0-15.599,2.713-20.894,8.14
	c-5.298,5.427-7.948,12.774-7.948,22.049c0,8.89,2.497,15.974,7.499,21.245c4.995,5.285,11.731,7.921,20.192,7.921
	c8.076,0,15.471-1.96,22.177-5.899V171.13z M204.348,107.485V93.793h-13.793V80h-13.692v13.793h-13.956V80h-13.691v13.793h-13.793
	v13.692h13.793v13.956h-13.793v13.692h13.793v13.793h13.691v-13.793h13.956v13.793h13.692v-13.793h13.793v-13.692h-13.793v-13.956
	H204.348z M176.862,121.441h-13.956v-13.956h13.956V121.441z"/>
</svg>
