<?xml version="1.0" encoding="iso-8859-1"?>
<!-- Generator: Adobe Illustrator 16.0.0, SVG Export Plug-In . SVG Version: 6.00 Build 0)  -->
<!DOCTYPE svg PUBLIC "-//W3C//DTD SVG 1.1//EN" "http://www.w3.org/Graphics/SVG/1.1/DTD/svg11.dtd">
<svg version="1.1" id="Layer_1" xmlns="http://www.w3.org/2000/svg" xmlns:xlink="http://www.w3.org/1999/xlink" x="0px" y="0px"
	 width="256px" height="256px" viewBox="0 0 256 256" style="enable-background:new 0 0 256 256;" xml:space="preserve">
<path d="M226,14H30c-8.837,0-16,7.164-16,16v196c0,8.837,7.163,16,16,16h196c8.836,0,16-7.163,16-16V30
	C242,21.164,234.836,14,226,14z M93.2,120.8H71.6v14.4h21.6v15.6H56v-45.6h37.2V120.8z M146,120.8h-14.112L146,135.613V150.8h-37.2
	v-15.6h15.523L108.8,121.213V105.2H146V120.8z M200,120.8h-14.712L200,135.613V150.8h-37.2v-15.6h14.923L162.8,121.213V105.2H200
	V120.8z"/>
</svg>
