<?xml version="1.0" encoding="iso-8859-1"?>
<!-- Generator: Adobe Illustrator 16.0.0, SVG Export Plug-In . SVG Version: 6.00 Build 0)  -->
<!DOCTYPE svg PUBLIC "-//W3C//DTD SVG 1.1//EN" "http://www.w3.org/Graphics/SVG/1.1/DTD/svg11.dtd">
<svg version="1.1" id="Layer_1" xmlns="http://www.w3.org/2000/svg" xmlns:xlink="http://www.w3.org/1999/xlink" x="0px" y="0px"
	 width="256px" height="256px" viewBox="0 0 256 256" style="enable-background:new 0 0 256 256;" xml:space="preserve">
<g>
	<polygon style="fill:#010101;" points="93.2,120.8 93.2,105.2 56,105.2 56,150.8 93.2,150.8 93.2,135.2 71.6,135.2 71.6,120.8 	"/>
	<polygon style="fill:#010101;" points="146,105.2 108.8,105.2 108.8,121.213 124.323,135.2 108.8,135.2 108.8,150.8 146,150.8 
		146,135.613 131.888,120.8 146,120.8 	"/>
	<polygon style="fill:#010101;" points="200,105.2 162.8,105.2 162.8,121.213 177.723,135.2 162.8,135.2 162.8,150.8 200,150.8 
		200,135.613 185.288,120.8 200,120.8 	"/>
</g>
</svg>
