<?xml version="1.0" encoding="iso-8859-1"?>
<!-- Generator: Adobe Illustrator 16.0.0, SVG Export Plug-In . SVG Version: 6.00 Build 0)  -->
<!DOCTYPE svg PUBLIC "-//W3C//DTD SVG 1.1//EN" "http://www.w3.org/Graphics/SVG/1.1/DTD/svg11.dtd">
<svg version="1.1" id="Layer_1" xmlns="http://www.w3.org/2000/svg" xmlns:xlink="http://www.w3.org/1999/xlink" x="0px" y="0px"
	 width="256px" height="256px" viewBox="0 0 256 256" style="enable-background:new 0 0 256 256;" xml:space="preserve">
<g>
	<polygon points="128.107,101.018 130.69,101.018 128.107,102.124 90.663,118.15 92.066,134.15 128.107,134.15 147.677,134.15 
		145.897,155.068 128.107,160.028 128.107,160.015 127.984,160.033 110.11,155.232 108.942,142.47 92.856,142.47 95.101,167.613 
		127.98,176.716 128.107,176.687 128.107,176.699 160.878,167.596 165.192,118.15 128.107,118.15 166.647,101.018 168.024,85.018 
		128.107,85.018 127.944,85.018 87.818,85.018 89.239,101.018 	"/>
	<path d="M226,14H30c-8.837,0-16,7.164-16,16v196c0,8.837,7.163,16,16,16h196c8.836,0,16-7.163,16-16V30
		C242,21.164,234.836,14,226,14z M180.339,189.897l-52.416,14.532l-52.274-14.511L64,59.27h128L180.339,189.897z"/>
</g>
</svg>
