<?xml version="1.0" encoding="iso-8859-1"?>
<!-- Generator: Adobe Illustrator 16.0.0, SVG Export Plug-In . SVG Version: 6.00 Build 0)  -->
<!DOCTYPE svg PUBLIC "-//W3C//DTD SVG 1.1//EN" "http://www.w3.org/Graphics/SVG/1.1/DTD/svg11.dtd">
<svg version="1.1" id="Layer_1" xmlns="http://www.w3.org/2000/svg" xmlns:xlink="http://www.w3.org/1999/xlink" x="0px" y="0px"
	 width="256px" height="256px" viewBox="0 0 256 256" style="enable-background:new 0 0 256 256;" xml:space="preserve">
<path d="M64,59.27l11.649,130.649l52.274,14.511l52.416-14.532L192,59.27H64z M166.647,101.018l-38.54,17.133h37.085l-4.314,49.445
	l-32.771,9.104v-0.013l-0.127,0.029l-32.88-9.103l-2.244-25.144h16.086l1.168,12.763l17.874,4.801l0.123-0.019v0.014l17.79-4.96
	l1.779-20.918h-19.569H92.066l-1.403-16l37.444-16.026l2.583-1.106h-2.583H89.239l-1.421-16h40.126h0.163h39.917L166.647,101.018z"
	/>
</svg>
