<?xml version="1.0" encoding="iso-8859-1"?>
<!-- Generator: Adobe Illustrator 16.0.0, SVG Export Plug-In . SVG Version: 6.00 Build 0)  -->
<!DOCTYPE svg PUBLIC "-//W3C//DTD SVG 1.1//EN" "http://www.w3.org/Graphics/SVG/1.1/DTD/svg11.dtd">
<svg version="1.1" id="Layer_1" xmlns="http://www.w3.org/2000/svg" xmlns:xlink="http://www.w3.org/1999/xlink" x="0px" y="0px"
	 width="256px" height="256px" viewBox="0 0 256 256" style="enable-background:new 0 0 256 256;" xml:space="preserve">
<path d="M226,14H30c-8.837,0-16,7.164-16,16v196c0,8.837,7.163,16,16,16h196c8.836,0,16-7.163,16-16V30
	C242,21.164,234.836,14,226,14z M37.347,192l42.607-64.002L37.347,64h31.911l42.788,63.998L69.258,192H37.347z M165.349,192
	l-26.653-40.068L112.046,192H79.954l42.788-64.002L79.954,64h32.092l85.214,128H165.349z M218.653,154.653h-35.537l-14.322-21.397
	h49.859V154.653z M218.653,122.74h-56.929l-14.142-21.393h71.071V122.74z"/>
</svg>
