<?xml version="1.0" encoding="iso-8859-1"?>
<!-- Generator: Adobe Illustrator 16.0.0, SVG Export Plug-In . SVG Version: 6.00 Build 0)  -->
<!DOCTYPE svg PUBLIC "-//W3C//DTD SVG 1.1//EN" "http://www.w3.org/Graphics/SVG/1.1/DTD/svg11.dtd">
<svg version="1.1" id="Layer_1" xmlns="http://www.w3.org/2000/svg" xmlns:xlink="http://www.w3.org/1999/xlink" x="0px" y="0px"
	 width="256px" height="256px" viewBox="0 0 256 256" style="enable-background:new 0 0 256 256;" xml:space="preserve">
<path d="M226,14H30c-8.837,0-16,7.164-16,16v196c0,8.837,7.163,16,16,16h196c8.836,0,16-7.163,16-16V30
	C242,21.164,234.836,14,226,14z M98.313,98.838l-39.737,29.918l39.737,26.518v22.555l-57.688-41.336v-13.494l57.688-46.807V98.838z
	 M120.331,196.986h-16.092l31.662-137.973h16.093L120.331,196.986z M215.375,136.492l-57.688,41.336v-22.555l39.737-26.518
	l-39.737-29.918V76.191l57.688,46.807V136.492z"/>
</svg>
