<?xml version="1.0" encoding="iso-8859-1"?>
<!-- Generator: Adobe Illustrator 16.0.0, SVG Export Plug-In . SVG Version: 6.00 Build 0)  -->
<!DOCTYPE svg PUBLIC "-//W3C//DTD SVG 1.1//EN" "http://www.w3.org/Graphics/SVG/1.1/DTD/svg11.dtd">
<svg version="1.1" id="Layer_1" xmlns="http://www.w3.org/2000/svg" xmlns:xlink="http://www.w3.org/1999/xlink" x="0px" y="0px"
	 width="256px" height="256px" viewBox="0 0 256 256" style="enable-background:new 0 0 256 256;" xml:space="preserve">
<g>
	<polygon points="147.727,134.545 145.725,155.266 127.814,160.092 109.997,155.266 108.816,142.539 92.908,142.539 94.91,167.82 
		127.814,176.902 128.179,176.902 128.179,176.809 160.819,167.82 165.359,118.357 106.815,118.357 105.456,101.904 
		166.725,101.904 168.183,85.996 87.817,85.996 92.092,134.545 	"/>
	<path d="M226,14H30c-8.837,0-16,7.164-16,16v196c0,8.837,7.163,16,16,16h196c8.836,0,16-7.163,16-16V30
		C242,21.164,234.836,14,226,14z M180.36,190l-52.545,14.73L75.633,190L64,59.27h128L180.36,190z"/>
</g>
</svg>
