<?xml version="1.0" encoding="iso-8859-1"?>
<!-- Generator: Adobe Illustrator 16.0.0, SVG Export Plug-In . SVG Version: 6.00 Build 0)  -->
<!DOCTYPE svg PUBLIC "-//W3C//DTD SVG 1.1//EN" "http://www.w3.org/Graphics/SVG/1.1/DTD/svg11.dtd">
<svg version="1.1" id="Layer_1" xmlns="http://www.w3.org/2000/svg" xmlns:xlink="http://www.w3.org/1999/xlink" x="0px" y="0px"
	 width="256px" height="256px" viewBox="0 0 256 256" style="enable-background:new 0 0 256 256;" xml:space="preserve">
<g>
	<path d="M95.934,134.434c-2.079,0.661-4.017,2.174-4.584,4.349c-0.662,2.409-0.473,5.244,1.086,7.277
		c1.512,1.984,4.253,2.456,6.617,2.174c3.308-0.379,6.191-2.269,8.743-4.3c0-3.545-0.047-7.043,0-10.587
		C103.826,133.347,99.762,133.11,95.934,134.434z"/>
	<path d="M190.877,133.347c-4.017,0-8.129-0.236-12.004,1.134c-1.986,0.662-3.828,2.175-4.443,4.254
		c-0.661,2.409-0.472,5.246,1.04,7.325c1.56,2.032,4.349,2.456,6.758,2.174c3.261-0.473,6.238-2.269,8.696-4.443
		C190.829,140.341,190.877,136.844,190.877,133.347z"/>
	<path d="M226,14H30c-8.837,0-16,7.164-16,16v196c0,8.837,7.163,16,16,16h196c8.836,0,16-7.163,16-16V30
		C242,21.164,234.836,14,226,14z M75.234,146.06c-0.095,4.866-0.189,9.972-2.553,14.319c-2.599,4.632-7.23,7.893-12.145,9.783
		c-1.56-1.702-2.978-3.498-4.537-5.199c3.969-2.315,7.939-5.625,8.884-10.397c0.898-4.679,0.615-9.451,0.709-14.177
		c0.047-15.501-0.047-31.002,0.047-46.551c3.213,0.095,6.427,0,9.641,0.095C75.234,111.277,75.281,128.668,75.234,146.06z
		 M116.869,154.141c-2.362,0-4.726,0-7.136,0c-0.236-1.56-0.472-3.165-0.661-4.772c-2.694,2.126-5.577,4.157-8.933,5.009
		c-3.828,0.993-8.034,0.897-11.768-0.567c-2.883-1.181-5.151-3.78-5.955-6.806c-1.181-4.395-0.567-9.546,2.552-13.09
		c2.789-3.261,6.995-4.867,11.153-5.624c3.828-0.756,7.75-0.756,11.673-0.756c-0.095-2.979,0.473-6.239-1.229-8.885
		c-1.37-2.032-3.875-2.836-6.19-2.978c-5.057-0.426-10.066,0.851-14.839,2.505c-0.472-1.891-0.898-3.781-1.324-5.671
		c6.38-2.742,13.469-4.159,20.416-3.403c3.592,0.425,7.326,1.749,9.641,4.632c1.937,2.456,2.646,5.624,2.599,8.695
		C116.869,133.017,116.869,143.555,116.869,154.141z M147.257,154.141c-3.781,0-7.562,0-11.342,0
		c-4.537-14.839-9.121-29.631-13.658-44.471c3.309,0,6.617,0,9.924,0c1.938,6.238,3.828,12.43,5.766,18.667
		c1.134,3.828,2.552,7.608,3.355,11.531c0.426,1.749,0.803,3.544,1.323,5.246c4.065-11.483,7.184-23.346,8.791-35.444
		c3.214,0,6.428,0,9.64,0C158.269,124.982,153.873,140.058,147.257,154.141z M199.903,154.188c-2.363-0.094-4.726,0.047-7.089-0.094
		c-0.236-1.606-0.425-3.168-0.709-4.726c-3.308,2.836-7.278,5.151-11.768,5.528c-4.111,0.378-8.743-0.141-11.957-3.071
		c-3.355-3.119-3.922-8.176-3.072-12.477c0.804-3.97,3.78-7.229,7.373-8.979c5.623-2.74,12.051-2.883,18.195-2.835
		c-0.096-2.883,0.424-5.955-1.041-8.554c-1.134-2.08-3.544-3.024-5.813-3.261c-5.246-0.568-10.491,0.757-15.406,2.457
		c-0.425-1.891-0.897-3.781-1.323-5.671c6.427-2.742,13.516-4.207,20.511-3.403c3.496,0.425,7.088,1.701,9.403,4.442
		c2.175,2.599,2.836,6.051,2.789,9.357C199.95,133.347,200.045,143.743,199.903,154.188z"/>
</g>
</svg>
