<?xml version="1.0" encoding="iso-8859-1"?>
<!-- Generator: Adobe Illustrator 16.0.0, SVG Export Plug-In . SVG Version: 6.00 Build 0)  -->
<!DOCTYPE svg PUBLIC "-//W3C//DTD SVG 1.1//EN" "http://www.w3.org/Graphics/SVG/1.1/DTD/svg11.dtd">
<svg version="1.1" id="Layer_1" xmlns="http://www.w3.org/2000/svg" xmlns:xlink="http://www.w3.org/1999/xlink" x="0px" y="0px"
	 width="256px" height="256px" viewBox="0 0 256 256" style="enable-background:new 0 0 256 256;" xml:space="preserve">
<g>
	<path d="M65.593,140.389c0.047-15.501-0.047-31.002,0.047-46.551c3.213,0.095,6.427,0,9.641,0.095
		c-0.047,17.345,0,34.735-0.047,52.127c-0.095,4.866-0.189,9.972-2.553,14.319c-2.599,4.632-7.23,7.893-12.145,9.783
		c-1.56-1.702-2.978-3.498-4.537-5.199l0,0c3.969-2.315,7.939-5.625,8.884-10.397C65.782,149.887,65.499,145.114,65.593,140.389
		L65.593,140.389z"/>
	<path d="M84.213,112.506c6.38-2.742,13.469-4.159,20.416-3.403c3.592,0.425,7.326,1.749,9.641,4.632
		c1.937,2.456,2.646,5.624,2.599,8.695c0,10.587,0,21.125,0,31.711c-2.362,0-4.726,0-7.136,0c-0.236-1.56-0.472-3.165-0.661-4.772
		c-2.694,2.126-5.577,4.157-8.933,5.009c-3.828,0.993-8.034,0.897-11.768-0.567c-2.883-1.181-5.151-3.78-5.955-6.806
		c-1.181-4.395-0.567-9.546,2.552-13.09c2.789-3.261,6.995-4.867,11.153-5.624c3.828-0.756,7.75-0.756,11.673-0.756
		c-0.095-2.979,0.473-6.239-1.229-8.885c-1.37-2.032-3.875-2.836-6.19-2.978c-5.057-0.426-10.066,0.851-14.839,2.505
		C85.064,116.286,84.639,114.396,84.213,112.506 M95.934,134.434c-2.079,0.661-4.017,2.174-4.584,4.349
		c-0.662,2.409-0.473,5.244,1.086,7.277c1.512,1.984,4.253,2.456,6.617,2.174c3.308-0.379,6.191-2.269,8.743-4.3
		c0-3.545-0.047-7.043,0-10.587C103.826,133.347,99.762,133.11,95.934,134.434L95.934,134.434z"/>
	<path d="M167.295,112.506c6.427-2.742,13.516-4.207,20.511-3.403c3.496,0.425,7.088,1.701,9.403,4.442
		c2.175,2.599,2.836,6.051,2.789,9.357c-0.048,10.444,0.047,20.841-0.094,31.285c-2.363-0.094-4.726,0.047-7.089-0.094
		c-0.236-1.606-0.425-3.168-0.709-4.726c-3.308,2.836-7.278,5.151-11.768,5.528c-4.111,0.378-8.743-0.141-11.957-3.071
		c-3.355-3.119-3.922-8.176-3.072-12.477c0.804-3.97,3.78-7.229,7.373-8.979c5.623-2.74,12.051-2.883,18.195-2.835
		c-0.096-2.883,0.424-5.955-1.041-8.554c-1.134-2.08-3.544-3.024-5.813-3.261c-5.246-0.568-10.491,0.757-15.406,2.457
		C168.193,116.286,167.721,114.396,167.295,112.506 M178.873,134.48c-1.986,0.662-3.828,2.175-4.443,4.254
		c-0.661,2.409-0.472,5.246,1.04,7.325c1.56,2.032,4.349,2.456,6.758,2.174c3.261-0.473,6.238-2.269,8.696-4.443
		c-0.095-3.449-0.047-6.946-0.047-10.443C186.86,133.347,182.748,133.11,178.873,134.48L178.873,134.48z"/>
	<path d="M122.256,109.67c3.309,0,6.617,0,9.924,0c1.938,6.238,3.828,12.43,5.766,18.667c1.134,3.828,2.552,7.608,3.355,11.531
		c0.426,1.749,0.803,3.544,1.323,5.246c4.065-11.483,7.184-23.346,8.791-35.444c3.214,0,6.428,0,9.64,0
		c-2.787,15.312-7.183,30.388-13.799,44.471c-3.781,0-7.562,0-11.342,0C131.378,139.302,126.793,124.51,122.256,109.67
		L122.256,109.67z"/>
</g>
</svg>
