<?xml version="1.0" encoding="iso-8859-1"?>
<!-- Generator: Adobe Illustrator 16.0.0, SVG Export Plug-In . SVG Version: 6.00 Build 0)  -->
<!DOCTYPE svg PUBLIC "-//W3C//DTD SVG 1.1//EN" "http://www.w3.org/Graphics/SVG/1.1/DTD/svg11.dtd">
<svg version="1.1" id="Layer_1" xmlns="http://www.w3.org/2000/svg" xmlns:xlink="http://www.w3.org/1999/xlink" x="0px" y="0px"
	 width="256px" height="256px" viewBox="0 0 256 256" style="enable-background:new 0 0 256 256;" xml:space="preserve">
<path d="M226,14H30c-8.837,0-16,7.164-16,16v196c0,8.837,7.163,16,16,16h196c8.836,0,16-7.163,16-16V30
	C242,21.164,234.836,14,226,14z M175.412,135.189c4.474-0.591,9.243,0.549,12.62,3.63c2.786,2.491,4.348,6.374,3.757,10.131
	c-0.633,4.348-3.546,7.978-6.838,10.722c-5.951,4.77-13.296,7.556-20.641,9.413c0.422-0.465,0.886-0.887,1.435-1.225
	c5.571-2.997,11.101-6.5,15.196-11.396c2.49-3.04,4.432-7.007,3.63-11.017c-0.844-4.644-5.36-8.021-9.961-8.273
	c-2.195-0.212-4.263,0.633-6.374,1.055C170.009,136.076,172.836,135.527,175.412,135.189z M144.345,92.431
	c-2.406,2.321-4.685,4.981-5.74,8.231c-0.802,2.406-0.464,5.064,0.507,7.345c1.772,4.052,4.769,7.345,7.049,11.059
	c1.941,3.166,2.279,7.218,0.802,10.637c-2.237,5.023-6.627,8.695-11.186,11.608c-0.591,0.337-1.097,0.971-1.815,1.055
	c3.04-2.743,5.403-6.627,5.318-10.806c-0.084-3.123-1.814-5.867-3.841-8.104c-4.179-4.98-7.682-11.312-6.964-18.023
	s5.529-12.114,10.721-15.998c8.189-6.035,17.771-9.877,27.479-12.663C158.992,81.667,150.972,86.142,144.345,92.431z
	 M105.85,100.408c1.224-3.841,3.967-6.922,6.711-9.792c7.64-7.641,17.053-13.254,24.524-21.021
	c4.137-4.264,7.556-9.371,8.737-15.238c0.971-4.306,0.507-8.737-0.379-13.001c3.967,4.517,5.276,10.975,4.136,16.8
	c-1.225,6.543-4.854,12.325-9.118,17.307c-3.418,4.01-7.345,7.556-11.438,10.848c-4.77,3.841-9.456,7.978-12.452,13.381
	c-2.533,4.39-3.124,9.792-1.393,14.562c2.828,8.188,9.413,14.267,13.001,21.991c-3.968-3.504-7.852-7.134-11.481-10.975
	c-3.799-4.052-7.387-8.358-9.75-13.423C105.343,108.302,104.625,104.165,105.85,100.408z M78.328,145.024
	c1.393-1.435,3.335-2.11,5.065-2.954c7.767-3.335,16.208-5.487,24.693-5.361c-4.938,1.436-10.003,2.66-14.647,4.854
	c-1.097,0.591-2.364,1.14-2.997,2.279c-0.338,0.887,0.591,1.478,1.266,1.772c2.87,1.183,6.036,1.352,9.117,1.646
	c10.806,0.718,21.654,0.296,32.418-0.38c10.636-0.676,21.189-2.11,31.699-3.799c-2.321,1.098-4.685,2.195-6.837,3.588
	c-1.098,0.76-2.449,0.971-3.673,1.266c-12.916,2.871-26.17,3.757-39.34,3.969c-5.107,0.042-10.172-0.042-15.238-0.381
	c-5.656-0.379-11.354-0.802-16.884-2.278c-1.604-0.465-3.292-0.971-4.559-2.111C77.78,146.629,77.78,145.615,78.328,145.024z
	 M103.443,178.286c1.14,1.478,3.25,1.646,4.938,2.026c7.134,0.887,14.352,1.478,21.485,0.929c5.402-0.338,10.721-1.309,15.998-2.237
	c3.039,1.772,6.205,3.292,9.455,4.644c-4.98,2.236-10.342,3.672-15.702,4.685c-9.033,1.604-18.361,1.815-27.437,0.381
	c-4.01-0.719-8.104-1.646-11.734-3.631c-1.393-0.802-2.87-1.73-3.461-3.292c-0.464-1.225,0.295-2.532,1.266-3.293
	c1.942-1.562,4.348-2.363,6.711-3.039C104.203,176.176,102.853,177.062,103.443,178.286z M131.048,170.056
	c-8.695,0.591-17.517,0.549-26.17-0.845c-3.419-0.633-6.922-1.351-10.046-2.955c-1.266-0.675-2.702-1.561-3.081-3.038
	c-0.253-1.267,0.675-2.407,1.604-3.124c2.195-1.73,4.812-2.701,7.429-3.63c-0.844,1.013-2.026,1.983-2.11,3.377
	c-0.042,0.886,0.675,1.562,1.393,1.983c1.393,0.718,2.955,0.971,4.517,1.183c8.104,0.844,16.293,1.308,24.482,0.759
	c7.471-0.38,14.9-1.604,22.287-2.912c2.026,1.899,4.432,3.208,6.965,4.348C149.41,167.818,140.25,169.338,131.048,170.056z
	 M64.483,199.434c-1.098-1.267-0.126-3.039,0.929-3.968c2.659-2.448,6.078-3.799,9.413-5.022c3.883-1.309,7.893-2.364,11.987-2.491
	c1.646-0.042,3.334,0.042,4.77,0.887c-4.896,0.296-9.792,1.52-14.182,3.757c-0.971,0.549-2.068,1.182-2.448,2.321
	c0,1.309,1.477,1.73,2.448,2.152c6.121,2.28,12.663,2.997,19.079,3.673c19.122,1.604,38.369,1.182,57.49-0.549
	c7.218-0.802,14.479-1.604,21.485-3.588c2.236-0.76,4.769-1.52,6.247-3.504c0.887-1.182,0.296-2.658-0.59-3.672
	c1.435,0.803,3.461,1.815,3.166,3.757c-0.549,2.025-2.617,3.081-4.306,4.052c-5.402,2.744-11.355,4.138-17.264,5.36
	c-17.179,3.377-34.781,4.138-52.256,3.631c-13.169-0.465-26.339-1.731-39.34-3.968C68.789,201.713,66.172,201.249,64.483,199.434z
	 M185.162,206.313c-5.994,3.124-12.705,4.56-19.375,5.741c-14.098,2.237-28.408,2.785-42.717,2.532
	c-9.75-0.295-19.585-0.675-29.167-2.702c-2.279-0.633-4.728-1.055-6.711-2.405c8.526,1.436,17.18,2.026,25.833,2.363
	c14.225,0.423,28.492-0.126,42.632-1.899c8.189-1.139,16.42-2.532,24.355-5.064c4.264-1.478,8.822-3.039,11.988-6.416
	C191.452,202.135,188.286,204.667,185.162,206.313z"/>
</svg>
