<?xml version="1.0" encoding="iso-8859-1"?>
<!-- Generator: Adobe Illustrator 16.0.0, SVG Export Plug-In . SVG Version: 6.00 Build 0)  -->
<!DOCTYPE svg PUBLIC "-//W3C//DTD SVG 1.1//EN" "http://www.w3.org/Graphics/SVG/1.1/DTD/svg11.dtd">
<svg version="1.1" id="Layer_1" xmlns="http://www.w3.org/2000/svg" xmlns:xlink="http://www.w3.org/1999/xlink" x="0px" y="0px"
	 width="256px" height="256px" viewBox="0 0 256 256" style="enable-background:new 0 0 256 256;" xml:space="preserve">
<g>
	<path d="M145.443,41.356c3.967,4.517,5.276,10.975,4.136,16.8c-1.225,6.543-4.854,12.325-9.118,17.307
		c-3.418,4.01-7.345,7.556-11.438,10.848c-4.77,3.841-9.456,7.978-12.452,13.381c-2.533,4.39-3.124,9.792-1.393,14.562
		c2.828,8.188,9.413,14.267,13.001,21.991c-3.968-3.504-7.852-7.134-11.481-10.975c-3.799-4.052-7.387-8.358-9.75-13.423
		c-1.604-3.546-2.321-7.683-1.097-11.439c1.224-3.841,3.967-6.922,6.711-9.792c7.64-7.641,17.053-13.254,24.524-21.021
		c4.137-4.264,7.556-9.371,8.737-15.238C146.793,50.052,146.329,45.62,145.443,41.356L145.443,41.356z"/>
	<path d="M139.195,89.434c8.189-6.035,17.771-9.877,27.479-12.663c-7.682,4.896-15.702,9.371-22.329,15.66
		c-2.406,2.321-4.685,4.981-5.74,8.231c-0.802,2.406-0.464,5.064,0.507,7.345c1.772,4.052,4.769,7.345,7.049,11.059
		c1.941,3.166,2.279,7.218,0.802,10.637c-2.237,5.023-6.627,8.695-11.186,11.608c-0.591,0.337-1.097,0.971-1.815,1.055
		c3.04-2.743,5.403-6.627,5.318-10.806c-0.084-3.123-1.814-5.867-3.841-8.104c-4.179-4.98-7.682-11.312-6.964-18.023
		S134.003,93.317,139.195,89.434L139.195,89.434z"/>
	<path d="M168.236,138.229c1.772-2.152,4.6-2.701,7.176-3.039c4.474-0.591,9.243,0.549,12.62,3.63
		c2.786,2.491,4.348,6.374,3.757,10.131c-0.633,4.348-3.546,7.978-6.838,10.722c-5.951,4.77-13.296,7.556-20.641,9.413
		c0.422-0.465,0.886-0.887,1.435-1.225c5.571-2.997,11.101-6.5,15.196-11.396c2.49-3.04,4.432-7.007,3.63-11.017
		c-0.844-4.644-5.36-8.021-9.961-8.273C172.415,136.962,170.347,137.807,168.236,138.229L168.236,138.229z"/>
	<path d="M83.394,142.07c7.767-3.335,16.208-5.487,24.693-5.361c-4.938,1.436-10.003,2.66-14.647,4.854
		c-1.097,0.591-2.364,1.14-2.997,2.279c-0.338,0.887,0.591,1.478,1.266,1.772c2.87,1.183,6.036,1.352,9.117,1.646
		c10.806,0.718,21.654,0.296,32.418-0.38c10.636-0.676,21.189-2.11,31.699-3.799c-2.321,1.098-4.685,2.195-6.837,3.588
		c-1.098,0.76-2.449,0.971-3.673,1.266c-12.916,2.871-26.17,3.757-39.34,3.969c-5.107,0.042-10.172-0.042-15.238-0.381
		c-5.656-0.379-11.354-0.802-16.884-2.278c-1.604-0.465-3.292-0.971-4.559-2.111c-0.633-0.506-0.633-1.52-0.085-2.11
		C79.721,143.59,81.663,142.914,83.394,142.07L83.394,142.07z"/>
	<path d="M93.355,160.094c2.195-1.73,4.812-2.701,7.429-3.63c-0.844,1.013-2.026,1.983-2.11,3.377
		c-0.042,0.886,0.675,1.562,1.393,1.983c1.393,0.718,2.955,0.971,4.517,1.183c8.104,0.844,16.293,1.308,24.482,0.759
		c7.471-0.38,14.9-1.604,22.287-2.912c2.026,1.899,4.432,3.208,6.965,4.348c-8.907,2.617-18.066,4.137-27.269,4.854
		c-8.695,0.591-17.517,0.549-26.17-0.845c-3.419-0.633-6.922-1.351-10.046-2.955c-1.266-0.675-2.702-1.561-3.081-3.038
		C91.498,161.951,92.426,160.811,93.355,160.094L93.355,160.094z"/>
	<path d="M98.251,178.497c1.942-1.562,4.348-2.363,6.711-3.039c-0.76,0.718-2.11,1.604-1.52,2.828
		c1.14,1.478,3.25,1.646,4.938,2.026c7.134,0.887,14.352,1.478,21.485,0.929c5.402-0.338,10.721-1.309,15.998-2.237
		c3.039,1.772,6.205,3.292,9.455,4.644c-4.98,2.236-10.342,3.672-15.702,4.685c-9.033,1.604-18.361,1.815-27.437,0.381
		c-4.01-0.719-8.104-1.646-11.734-3.631c-1.393-0.802-2.87-1.73-3.461-3.292C96.521,180.565,97.281,179.258,98.251,178.497
		L98.251,178.497z"/>
	<path d="M74.825,190.443c3.883-1.309,7.893-2.364,11.987-2.491c1.646-0.042,3.334,0.042,4.77,0.887
		c-4.896,0.296-9.792,1.52-14.182,3.757c-0.971,0.549-2.068,1.182-2.448,2.321c0,1.309,1.477,1.73,2.448,2.152
		c6.121,2.28,12.663,2.997,19.079,3.673c19.122,1.604,38.369,1.182,57.49-0.549c7.218-0.802,14.479-1.604,21.485-3.588
		c2.236-0.76,4.769-1.52,6.247-3.504c0.887-1.182,0.296-2.658-0.59-3.672c1.435,0.803,3.461,1.815,3.166,3.757
		c-0.549,2.025-2.617,3.081-4.306,4.052c-5.402,2.744-11.355,4.138-17.264,5.36c-17.179,3.377-34.781,4.138-52.256,3.631
		c-13.169-0.465-26.339-1.731-39.34-3.968c-2.321-0.549-4.938-1.013-6.627-2.828c-1.098-1.267-0.126-3.039,0.929-3.968
		C68.071,193.018,71.49,191.667,74.825,190.443L74.825,190.443z"/>
	<path d="M180.012,204.879c4.264-1.478,8.822-3.039,11.988-6.416c-0.548,3.672-3.714,6.204-6.838,7.851
		c-5.994,3.124-12.705,4.56-19.375,5.741c-14.098,2.237-28.408,2.785-42.717,2.532c-9.75-0.295-19.585-0.675-29.167-2.702
		c-2.279-0.633-4.728-1.055-6.711-2.405c8.526,1.436,17.18,2.026,25.833,2.363c14.225,0.423,28.492-0.126,42.632-1.899
		C163.846,208.805,172.077,207.411,180.012,204.879L180.012,204.879z"/>
</g>
</svg>
