<?xml version="1.0" encoding="iso-8859-1"?>
<!-- Generator: Adobe Illustrator 16.0.0, SVG Export Plug-In . SVG Version: 6.00 Build 0)  -->
<!DOCTYPE svg PUBLIC "-//W3C//DTD SVG 1.1//EN" "http://www.w3.org/Graphics/SVG/1.1/DTD/svg11.dtd">
<svg version="1.1" id="Layer_1" xmlns="http://www.w3.org/2000/svg" xmlns:xlink="http://www.w3.org/1999/xlink" x="0px" y="0px"
	 width="256px" height="256px" viewBox="0 0 256 256" style="enable-background:new 0 0 256 256;" xml:space="preserve">
<path d="M111.518,189.836l-0.543,1.634c-0.545,2.18-1.457,3.907-2.723,5.177c-1.636,1.633-4.271,2.45-7.901,2.45
	c-2.724,0-4.996-0.633-6.812-1.906c-1.818-1.268-3.724-3.541-5.719-6.811c-0.729-1.269-1.137-1.905-1.225-1.905
	c-0.095,0-2.955,1.727-8.582,5.175l-8.444,5.176l0.815,1.089c3.816,7.993,9.898,13.349,18.253,16.072
	c9.261,3.086,18.25,2.902,26.968-0.545c9.624-3.996,15.161-11.892,16.615-23.698c0.18-1.271,0.273-14.438,0.273-39.499v-37.591
	H121.87h-10.353v37.591V189.836z M157.828,122.008c-5.085,5.086-7.626,11.533-7.626,19.339c0,11.442,5.264,20.341,15.797,26.697
	c2.541,1.635,6.9,3.724,13.077,6.265c7.626,3.269,12.347,5.904,14.165,7.9c3.085,3.268,3.719,6.811,1.906,10.623
	c-0.546,0.912-1.184,1.729-1.906,2.452c-2.725,2.724-6.539,4.087-11.442,4.087c-8.17,0-14.71-3.633-19.613-10.896
	c-0.729-1.27-1.136-1.908-1.225-1.908c-0.093,0-2.862,1.592-8.31,4.768c-5.448,3.18-8.267,4.86-8.443,5.039
	c-0.183,0.182,0.088,0.817,0.817,1.906c6.354,10.896,16.432,17.252,30.236,19.069c4.538,0.723,9.078,0.723,13.62,0
	c8.532-1.089,15.255-3.997,20.157-8.716c5.264-5.083,7.899-11.804,7.899-20.158c0-5.082-0.999-9.624-2.994-13.621
	c-1.093-2.541-2.725-4.903-4.905-7.083c-4.18-4.174-11.534-8.532-22.062-13.075c-7.45-3.086-11.988-5.536-13.623-7.355
	c-1.815-1.996-2.632-4.357-2.45-7.081c0.178-2.181,0.906-3.993,2.179-5.448c1.995-1.997,4.722-2.997,8.172-2.997
	c3.813,0,6.899,1.273,9.263,3.815c1.267,1.088,2.22,2.178,2.86,3.268c0.635,1.09,1.043,1.635,1.225,1.635
	c0.363-0.178,3.134-1.949,8.308-5.312c5.177-3.357,7.765-5.082,7.765-5.176c0-0.089-0.546-1.042-1.635-2.859
	c-2.544-3.633-5.358-6.445-8.443-8.444c-4.359-3.087-9.718-4.81-16.071-5.177c-2.364-0.178-4.631-0.178-6.812,0
	C169.54,114.107,162.909,116.926,157.828,122.008z M242,226c0,8.837-7.164,16-16,16H30c-8.837,0-16-7.163-16-16V30
	c0-8.836,7.163-16,16-16h196c8.836,0,16,7.164,16,16V226z"/>
</svg>
