<?xml version="1.0" encoding="iso-8859-1"?>
<!-- Generator: Adobe Illustrator 16.0.0, SVG Export Plug-In . SVG Version: 6.00 Build 0)  -->
<!DOCTYPE svg PUBLIC "-//W3C//DTD SVG 1.1//EN" "http://www.w3.org/Graphics/SVG/1.1/DTD/svg11.dtd">
<svg version="1.1" id="Layer_1" xmlns="http://www.w3.org/2000/svg" xmlns:xlink="http://www.w3.org/1999/xlink" x="0px" y="0px"
	 width="256px" height="256px" viewBox="0 0 256 256" style="enable-background:new 0 0 256 256;" xml:space="preserve">
<g>
	<path d="M96.264,152.036l-0.543,1.633c-0.545,2.18-1.457,3.908-2.723,5.178c-1.636,1.633-4.271,2.449-7.901,2.449
		c-2.724,0-4.996-0.633-6.812-1.906c-1.818-1.268-3.724-3.541-5.719-6.811c-0.729-1.268-1.137-1.905-1.225-1.905
		c-0.095,0-2.955,1.728-8.582,5.175l-8.444,5.176l0.815,1.09c3.816,7.992,9.898,13.348,18.253,16.072
		c9.261,3.086,18.25,2.902,26.968-0.545c9.624-3.997,15.161-11.893,16.615-23.699c0.18-1.27,0.273-14.438,0.273-39.498V76.853
		h-10.624H96.264v37.592V152.036z"/>
	<path d="M142.574,84.208c-5.085,5.085-7.626,11.533-7.626,19.338c0,11.442,5.264,20.342,15.797,26.697
		c2.541,1.635,6.9,3.725,13.077,6.266c7.626,3.268,12.347,5.904,14.165,7.9c3.085,3.268,3.719,6.81,1.906,10.622
		c-0.546,0.912-1.184,1.729-1.906,2.452c-2.725,2.725-6.539,4.087-11.442,4.087c-8.17,0-14.71-3.632-19.613-10.896
		c-0.729-1.269-1.136-1.907-1.225-1.907c-0.093,0-2.862,1.592-8.31,4.768c-5.448,3.18-8.267,4.859-8.443,5.039
		c-0.183,0.182,0.088,0.816,0.817,1.906c6.354,10.896,16.432,17.252,30.236,19.068c4.538,0.723,9.078,0.723,13.62,0
		c8.532-1.089,15.255-3.997,20.157-8.716c5.264-5.083,7.899-11.804,7.899-20.158c0-5.081-0.999-9.624-2.994-13.621
		c-1.093-2.541-2.725-4.903-4.905-7.083c-4.18-4.174-11.534-8.532-22.062-13.075c-7.45-3.085-11.988-5.536-13.623-7.354
		c-1.815-1.996-2.632-4.357-2.45-7.082c0.178-2.18,0.906-3.992,2.179-5.447c1.995-1.998,4.722-2.998,8.172-2.998
		c3.813,0,6.899,1.273,9.263,3.815c1.267,1.088,2.22,2.178,2.86,3.269c0.635,1.089,1.043,1.635,1.225,1.635
		c0.363-0.179,3.134-1.949,8.308-5.312c5.177-3.357,7.765-5.082,7.765-5.177c0-0.089-0.546-1.042-1.635-2.859
		c-2.544-3.632-5.358-6.444-8.443-8.444c-4.359-3.086-9.718-4.809-16.071-5.176c-2.364-0.179-4.631-0.179-6.812,0
		C154.286,76.308,147.655,79.125,142.574,84.208z"/>
</g>
</svg>
