<?xml version="1.0" encoding="utf-8"?>
<!-- Generator: Adobe Illustrator 16.0.0, SVG Export Plug-In . SVG Version: 6.00 Build 0)  -->
<!DOCTYPE svg PUBLIC "-//W3C//DTD SVG 1.1//EN" "http://www.w3.org/Graphics/SVG/1.1/DTD/svg11.dtd">
<svg version="1.1" id="Layer_1" xmlns="http://www.w3.org/2000/svg" xmlns:xlink="http://www.w3.org/1999/xlink" x="0px" y="0px"
	 width="256px" height="256px" viewBox="0 0 256 256" enable-background="new 0 0 256 256" xml:space="preserve">
<path fill-rule="evenodd" clip-rule="evenodd" d="M227.419,136.653c-4.646-0.261-8.055,2.374-8.53,7.135
	c-0.402,4.038-0.256,8.134-0.341,12.205c-0.055,2.586-0.036,5.175-0.147,7.757c-0.389,8.769-4.784,13.562-13.46,14.658
	c-2.238,0.282-4.501,0.375-6.943,0.569c0-3.076,0-5.94,0-8.98c1.388-0.201,2.854-0.315,4.271-0.638
	c3.756-0.856,5.356-2.675,5.472-6.54c0.143-4.935-0.01-9.879,0.141-14.812c0.085-2.728,0.363-5.473,0.856-8.154
	c0.607-3.313,2.717-5.743,5.371-7.63c-0.05-0.263-0.027-0.49-0.116-0.552c-5.215-3.6-6.043-9.039-6.127-14.748
	c-0.073-4.702,0.027-9.407-0.037-14.11c-0.085-6.324-2.1-8.342-8.475-8.657c-0.385-0.019-0.768-0.07-1.339-0.124
	c0-2.961,0-5.88,0-9.007c4.943,0.073,9.769,0.278,14.115,2.807c4.561,2.653,6.001,7.099,6.214,11.962
	c0.249,5.634,0.022,11.289,0.267,16.923c0.1,2.289,0.52,4.72,1.463,6.778c1.354,2.947,3.971,4.312,7.347,3.742
	C227.419,130.376,227.419,133.515,227.419,136.653z M54.515,169.658c-4.204-0.454-6.34-2.679-6.578-6.871
	c-0.079-1.407-0.055-2.821-0.084-4.233c-0.109-5.248-0.115-10.504-0.368-15.745c-0.194-4.001-1.765-7.446-5.078-9.911
	c-0.368-0.271-0.868-0.367-1.325-0.554c5.408-5.128,6.058-6.145,6.563-13.132c0.337-4.683,0.35-9.41,0.17-14.104
	c-0.425-11.167,4.172-10.971,11.671-10.866c0.217,0.003,0.433,0.122,0.925,0.271c0,0.873,0,1.792,0,2.71
	c0.001,16.312-0.049,32.625,0.033,48.935c0.022,4.681,0.544,9.352,4.786,12.433c3.791,2.755,8.219,3.055,12.854,3.204
	c0.531-3.232,1.029-6.263,1.522-9.264c-6.512-1.517-7.651-2.952-7.653-9.297c-0.004-18.43-0.002-36.859-0.002-55.289
	c0-0.915,0-1.83,0-2.832c-0.647-0.057-1.024-0.124-1.4-0.116c-6.188,0.12-12.392,0.024-18.561,0.431
	c-9.67,0.637-14.342,5.539-14.685,15.152c-0.199,5.562-0.076,11.133-0.167,16.7c-0.103,6.362-2.251,9-8.249,10.322
	c-0.139,0.029-0.253,0.175-0.307,0.215c0,2.915,0,5.769,0,8.596c5.363,0.652,7.967,3.049,8.35,8.325
	c0.35,4.84,0.084,9.719,0.252,14.573c0.106,3.04,0.165,6.154,0.854,9.092c1.734,7.392,11.242,12.168,19.747,10.129
	c0-2.785,0-5.59,0-8.665C56.526,169.789,55.517,169.768,54.515,169.658z M123.133,121.554c-1.867-4.606-4.914-8.154-9.453-10.329
	c-11.608-5.562-25.724-0.716-31.129,10.923c-4.073,8.77-3.944,17.799-0.356,26.693c2.011,4.984,5.673,8.655,10.657,10.767
	c9.228,3.908,18.529,2.915,27.79,0.056c0.497-0.154,1.185-0.984,1.13-1.418c-0.352-2.743-0.887-5.464-1.366-8.216
	c-8.495,2.315-12.554,2.709-17.901,1.783c-6.598-1.141-11.425-6.844-10.513-12.729c10.906,0,21.859,0,32.899,0
	C125.743,133.471,124.979,126.114,123.133,121.554z M102.807,118.647c6.72-0.106,10.911,4.389,10.826,11.82
	c-7.226,0-14.456,0-21.684,0C91.673,124.246,96.751,118.743,102.807,118.647z M148.965,109.102
	c-4.566-0.361-9.023,0.423-13.222,2.513c-9.446,4.702-9.573,19.229-1.186,24.034c2.501,1.432,5.198,2.519,7.806,3.767
	c2.816,1.348,5.728,2.536,8.416,4.103c1.792,1.044,2.545,2.929,2.117,5.095c-0.445,2.254-2.056,3.401-4.119,3.603
	c-2.944,0.287-5.963,0.562-8.877,0.218c-3.516-0.414-6.954-1.483-10.555-2.3c-0.471,2.233-0.836,4.472-1.436,6.644
	c-0.513,1.864-0.125,2.747,1.874,3.374c7.123,2.232,14.339,2.445,21.615,1.302c7.165-1.128,12.025-5.423,12.824-10.996
	c1.161-8.104-1.395-13.013-8.729-16.647c-1.682-0.833-3.427-1.539-5.161-2.259c-1.59-0.661-3.215-1.233-4.804-1.896
	c-0.864-0.361-1.699-0.802-2.518-1.259c-2.163-1.211-3.466-2.964-3.123-5.55c0.285-2.14,2.046-3.629,4.846-4.131
	c5.158-0.925,10.114,0.079,15.189,1.855c0.695-3.045,1.365-5.981,2.184-9.554C157.556,110.329,153.281,109.442,148.965,109.102z
	 M186.884,109.102c-4.566-0.361-9.023,0.423-13.222,2.513c-9.443,4.702-9.571,19.229-1.186,24.034
	c2.501,1.432,5.198,2.519,7.807,3.767c2.816,1.348,5.727,2.536,8.415,4.103c1.793,1.044,2.547,2.929,2.117,5.095
	c-0.445,2.254-2.055,3.401-4.118,3.603c-2.945,0.287-5.963,0.562-8.878,0.218c-3.515-0.414-6.953-1.483-10.554-2.3
	c-0.472,2.233-0.836,4.472-1.436,6.644c-0.513,1.864-0.127,2.747,1.872,3.374c7.123,2.232,14.34,2.445,21.615,1.302
	c7.166-1.128,12.025-5.423,12.824-10.996c1.161-8.104-1.394-13.013-8.729-16.647c-1.682-0.833-3.426-1.539-5.161-2.259
	c-1.588-0.661-3.215-1.233-4.804-1.896c-0.864-0.361-1.698-0.802-2.518-1.259c-2.16-1.211-3.466-2.964-3.122-5.55
	c0.285-2.14,2.045-3.629,4.845-4.131c5.158-0.925,10.116,0.079,15.189,1.855c0.696-3.045,1.368-5.981,2.184-9.554
	C195.476,110.329,191.201,109.442,186.884,109.102z"/>
</svg>
