<?xml version="1.0" encoding="utf-8"?>
<!-- Generator: Adobe Illustrator 16.0.0, SVG Export Plug-In . SVG Version: 6.00 Build 0)  -->
<!DOCTYPE svg PUBLIC "-//W3C//DTD SVG 1.1//EN" "http://www.w3.org/Graphics/SVG/1.1/DTD/svg11.dtd">
<svg version="1.1" id="Layer_1" xmlns="http://www.w3.org/2000/svg" xmlns:xlink="http://www.w3.org/1999/xlink" x="0px" y="0px"
	 width="256px" height="256px" viewBox="0 0 256 256" enable-background="new 0 0 256 256" xml:space="preserve">
<g>
	<path d="M102.807,118.647c-6.056,0.096-11.134,5.599-10.857,11.82c7.228,0,14.458,0,21.684,0
		C113.718,123.037,109.527,118.542,102.807,118.647z"/>
	<path d="M226,14H30c-8.837,0-16,7.164-16,16v196c0,8.837,7.163,16,16,16h196c8.836,0,16-7.163,16-16V30
		C242,21.164,234.836,14,226,14z M78.084,161.793c-4.635-0.149-9.064-0.449-12.854-3.204c-4.241-3.081-4.763-7.752-4.786-12.433
		c-0.083-16.31-0.032-32.622-0.033-48.935c0-0.918,0-1.837,0-2.71c-0.493-0.148-0.708-0.267-0.925-0.271
		c-7.5-0.105-12.096-0.3-11.671,10.866c0.18,4.694,0.167,9.421-0.17,14.104c-0.505,6.987-1.155,8.004-6.563,13.132
		c0.457,0.187,0.957,0.282,1.325,0.554c3.313,2.465,4.884,5.91,5.078,9.911c0.252,5.241,0.258,10.497,0.368,15.745
		c0.03,1.412,0.006,2.826,0.084,4.233c0.238,4.192,2.374,6.417,6.578,6.871c1.002,0.109,2.012,0.131,3.271,0.208
		c0,3.075,0,5.88,0,8.665c-8.505,2.039-18.013-2.737-19.747-10.129c-0.69-2.938-0.749-6.052-0.854-9.092
		c-0.168-4.854,0.097-9.733-0.252-14.573c-0.382-5.276-2.986-7.673-8.35-8.325c0-2.827,0-5.681,0-8.596
		c0.054-0.04,0.168-0.187,0.307-0.215c5.998-1.322,8.146-3.959,8.249-10.322c0.091-5.567-0.032-11.138,0.167-16.7
		c0.343-9.613,5.015-14.515,14.685-15.152c6.169-0.407,12.373-0.311,18.561-0.431c0.376-0.008,0.753,0.06,1.4,0.116
		c0,1.001,0,1.917,0,2.832c0,18.43-0.002,36.859,0.002,55.289c0.001,6.345,1.141,7.78,7.653,9.297
		C79.113,155.53,78.616,158.561,78.084,161.793z M124.892,139.084c-11.041,0-21.993,0-32.899,0
		c-0.912,5.885,3.915,11.588,10.513,12.729c5.348,0.926,9.407,0.532,17.901-1.783c0.479,2.752,1.014,5.473,1.366,8.216
		c0.055,0.434-0.634,1.264-1.13,1.418c-9.261,2.859-18.562,3.853-27.79-0.056c-4.983-2.111-8.646-5.782-10.657-10.767
		c-3.588-8.894-3.717-17.923,0.356-26.693c5.405-11.639,19.521-16.484,31.129-10.923c4.539,2.174,7.586,5.722,9.453,10.329
		C124.979,126.114,125.743,133.471,124.892,139.084z M164.223,150.456c-0.799,5.573-5.659,9.868-12.824,10.996
		c-7.276,1.144-14.492,0.931-21.615-1.302c-1.999-0.627-2.386-1.51-1.874-3.374c0.6-2.172,0.965-4.41,1.436-6.644
		c3.601,0.816,7.039,1.886,10.555,2.3c2.914,0.344,5.933,0.069,8.877-0.218c2.063-0.201,3.674-1.349,4.119-3.603
		c0.428-2.166-0.325-4.051-2.117-5.095c-2.688-1.566-5.6-2.755-8.416-4.103c-2.607-1.248-5.305-2.335-7.806-3.767
		c-8.387-4.805-8.261-19.332,1.186-24.034c4.198-2.09,8.655-2.874,13.222-2.513c4.316,0.341,8.591,1.227,13.143,1.913
		c-0.818,3.573-1.488,6.509-2.184,9.554c-5.075-1.777-10.031-2.781-15.189-1.855c-2.8,0.502-4.561,1.991-4.846,4.131
		c-0.343,2.586,0.96,4.339,3.123,5.55c0.818,0.458,1.653,0.898,2.518,1.259c1.589,0.662,3.214,1.234,4.804,1.896
		c1.734,0.72,3.479,1.426,5.161,2.259C162.828,137.443,165.384,142.353,164.223,150.456z M167.702,160.15
		c-1.999-0.627-2.385-1.51-1.872-3.374c0.6-2.172,0.964-4.41,1.436-6.644c3.601,0.816,7.039,1.886,10.554,2.3
		c2.915,0.344,5.933,0.069,8.878-0.218c2.063-0.201,3.673-1.349,4.118-3.603c0.43-2.166-0.324-4.051-2.117-5.095
		c-2.688-1.566-5.599-2.755-8.415-4.103c-2.608-1.248-5.306-2.335-7.807-3.767c-8.386-4.805-8.258-19.332,1.186-24.034
		c4.198-2.09,8.655-2.874,13.222-2.513c4.317,0.341,8.592,1.227,13.143,1.913c-0.815,3.573-1.487,6.509-2.184,9.554
		c-5.073-1.777-10.031-2.781-15.189-1.855c-2.8,0.502-4.56,1.991-4.845,4.131c-0.344,2.586,0.962,4.339,3.122,5.55
		c0.819,0.458,1.653,0.898,2.518,1.259c1.589,0.662,3.216,1.234,4.804,1.896c1.735,0.72,3.479,1.426,5.161,2.259
		c7.335,3.635,9.89,8.544,8.729,16.647c-0.799,5.573-5.658,9.868-12.824,10.996C182.042,162.596,174.825,162.383,167.702,160.15z
		 M227.419,136.653c-4.646-0.261-8.055,2.374-8.53,7.135c-0.402,4.038-0.256,8.134-0.341,12.205
		c-0.055,2.586-0.036,5.175-0.147,7.757c-0.389,8.769-4.784,13.562-13.46,14.658c-2.238,0.282-4.501,0.375-6.943,0.569
		c0-3.076,0-5.94,0-8.98c1.388-0.201,2.854-0.315,4.271-0.638c3.756-0.856,5.356-2.675,5.472-6.54
		c0.143-4.935-0.01-9.879,0.141-14.812c0.085-2.728,0.363-5.473,0.856-8.154c0.607-3.313,2.717-5.743,5.371-7.63
		c-0.05-0.263-0.027-0.49-0.116-0.552c-5.215-3.6-6.043-9.039-6.127-14.748c-0.073-4.702,0.027-9.407-0.037-14.11
		c-0.085-6.324-2.1-8.342-8.475-8.657c-0.385-0.019-0.768-0.07-1.339-0.124c0-2.961,0-5.88,0-9.007
		c4.943,0.073,9.769,0.278,14.115,2.807c4.561,2.653,6.001,7.099,6.214,11.962c0.249,5.634,0.022,11.289,0.267,16.923
		c0.1,2.289,0.52,4.72,1.463,6.778c1.354,2.947,3.971,4.312,7.347,3.742C227.419,130.376,227.419,133.515,227.419,136.653z"/>
</g>
</svg>
