<?xml version="1.0" encoding="iso-8859-1"?>
<!-- Generator: Adobe Illustrator 16.0.0, SVG Export Plug-In . SVG Version: 6.00 Build 0)  -->
<!DOCTYPE svg PUBLIC "-//W3C//DTD SVG 1.1//EN" "http://www.w3.org/Graphics/SVG/1.1/DTD/svg11.dtd">
<svg version="1.1" id="Layer_1" xmlns="http://www.w3.org/2000/svg" xmlns:xlink="http://www.w3.org/1999/xlink" x="0px" y="0px"
	 width="256px" height="256px" viewBox="0 0 256 256" style="enable-background:new 0 0 256 256;" xml:space="preserve">
<path d="M185.542,167.467c-0.096-0.574-0.504-1.223-1.224-1.943c-0.72-0.718-1.753-1.51-3.095-2.375
	c-1.346-0.861-2.015-1.341-2.015-1.438c-4.895-3.646-8.015-5.901-9.357-6.767c-0.672-0.382-1.849-0.91-3.526-1.582
	c-1.68-0.67-2.616-1.055-2.807-1.152c-0.481-0.189-1.512-0.55-3.095-1.079c-1.584-0.525-2.952-1.054-4.103-1.583
	c-1.151-0.525-1.92-1.078-2.304-1.656c-1.727-2.493-3.937-6.955-6.621-13.388c-0.576-1.531-1.608-3.933-3.096-7.196
	c-1.488-3.261-2.568-5.709-3.237-7.341c-0.289-0.669-0.673-1.775-1.152-3.31c-0.481-1.534-0.961-2.734-1.439-3.6
	c-7.005-14.394-16.65-25.768-28.933-34.116c-4.703-3.166-9.165-5.418-13.387-6.766c-0.961-0.382-2.497-0.62-4.606-0.718
	c-2.112-0.096-3.647-0.239-4.607-0.432h-1.87c-0.672-0.29-1.537-0.91-2.591-1.873c-1.058-0.956-1.681-1.485-1.872-1.583
	c-2.302-1.727-5.325-3.404-9.068-5.039c-3.073-1.342-5.038-1.629-5.901-0.861c-0.672,0.192-1.104,0.623-1.295,1.295
	c-0.481,0.862-0.338,2.256,0.431,4.175c0.384,0.959,0.865,1.849,1.439,2.661c0.576,0.816,1.224,1.727,1.943,2.735
	s1.271,1.754,1.656,2.23c2.494,3.744,4.077,6.335,4.75,7.774c0.766,1.919,1.727,4.847,2.879,8.78
	c1.15,3.936,2.062,6.766,2.735,8.492c1.054,2.401,2.207,4.56,3.455,6.479c0.093,0.098,0.622,0.672,1.583,1.727
	c0.958,1.057,1.534,1.968,1.727,2.734c0.384,0.291,0.48,1.058,0.289,2.305c-0.194,1.247-0.41,2.279-0.648,3.096
	c-0.242,0.815-0.601,1.849-1.081,3.093c-0.481,1.249-0.769,2.017-0.863,2.304c-1.152,4.129-1.633,8.688-1.439,13.675
	c0.191,4.991,0.958,9.309,2.302,12.954c0.095,0.098,0.217,0.361,0.361,0.792c0.144,0.434,0.238,0.721,0.287,0.864
	c0.047,0.144,0.167,0.432,0.361,0.865c0.191,0.431,0.334,0.718,0.431,0.861c0.095,0.144,0.238,0.386,0.433,0.722
	c0.191,0.336,0.36,0.574,0.504,0.718c0.144,0.144,0.335,0.361,0.576,0.648c0.238,0.29,0.454,0.482,0.648,0.577
	c0.191,0.095,0.406,0.214,0.646,0.357c0.24,0.146,0.551,0.266,0.937,0.36c0-0.095,0.095-0.189,0.287-0.287
	c0.095-0.574,0.238-1.846,0.433-3.813c0.191-1.965,0.359-3.383,0.504-4.248c0.144-0.861,0.359-1.965,0.648-3.31
	c0.287-1.344,0.622-2.542,1.007-3.6c0.382-1.054,1.152-2.35,2.303-3.887c1.152-1.534,1.872-2.494,2.159-2.879
	c0.289,0.195,0.527,0.482,0.719,0.865c0.193,0.385,0.336,0.864,0.433,1.438c0.095,0.575,0.191,1.009,0.289,1.296
	c2.014,4.893,3.356,8.062,4.029,9.501c3.455,7.004,6.91,13.098,10.364,18.28c1.343,1.824,2.973,3.793,4.894,5.901
	c0.192,0.098,0.552,0.36,1.08,0.791c0.526,0.435,0.886,0.841,1.081,1.226h0.144v0.287c-1.058-0.482-2.376-1.534-3.959-3.166
	s-2.52-2.542-2.807-2.734c-5.375-4.413-9.406-8.927-12.092-13.532c-1.056-2.206-2.303-4.941-3.742-8.205v-0.144
	c-0.194,0.192-0.313,0.432-0.359,0.719c-0.05,0.29-0.098,0.626-0.145,1.008c-0.049,0.386-0.072,0.722-0.072,1.009
	c-0.287,0.861-0.553,2.423-0.791,4.679c-0.24,2.255-0.601,3.981-1.079,5.18c-0.481,1.201-1.346,2.087-2.591,2.665
	c-3.36,1.438-6.622-0.526-9.788-5.901c-2.4-4.224-3.864-9.452-4.391-15.692c-0.529-6.236,0.023-12.184,1.656-17.85
	c0-0.189,0.215-1.295,0.648-3.31c0.431-2.014,0.935-3.404,1.511-4.174c-0.096-0.479-0.289-0.911-0.576-1.296
	c-0.288-0.382-0.625-0.767-1.007-1.152c-0.385-0.382-0.674-0.718-0.865-1.008c-0.959-1.342-2.064-3.355-3.311-6.045
	c-0.574-1.152-2.208-5.659-4.894-13.531c-0.192-0.477-0.431-1.296-0.72-2.445c-0.287-1.151-0.528-2.062-0.719-2.734
	c-0.481-1.058-2.064-3.551-4.75-7.487c-0.192-0.382-0.646-1.029-1.366-1.943c-0.721-0.911-1.295-1.678-1.728-2.301
	c-0.432-0.624-0.961-1.513-1.583-2.665c-0.625-1.152-1.033-2.133-1.224-2.949c-0.194-0.815-0.385-1.849-0.576-3.096
	c-0.192-1.247,0-2.304,0.576-3.166c0.767-2.017,1.919-3.432,3.455-4.247c1.534-0.813,3.117-1.128,4.75-0.936
	c1.63,0.192,3.455,0.673,5.47,1.439c2.016,0.771,3.718,1.537,5.11,2.304c1.39,0.768,2.758,1.632,4.103,2.589
	c0.287,0.195,0.935,0.745,1.943,1.656c1.007,0.914,1.75,1.464,2.231,1.656c3.069,0.192,5.421,0.336,7.053,0.431
	c5.95,1.537,9.883,2.928,11.804,4.175c8.252,5.088,15.137,10.484,20.656,16.193c5.518,5.711,10.675,12.739,15.476,21.089
	c0.574,1.057,1.102,2.209,1.583,3.456c0.478,1.246,1.007,2.661,1.583,4.244c0.575,1.583,1.054,2.809,1.438,3.67
	c2.592,6.43,5.133,12.19,7.63,17.275c0.288,0.574,0.671,1.439,1.151,2.592c0.479,1.148,0.911,2.136,1.296,2.948
	c0.382,0.816,0.863,1.562,1.439,2.231c0.191,0.385,0.814,0.77,1.872,1.152c1.054,0.385,1.63,0.626,1.727,0.721
	c0.576,0.287,2.038,0.984,4.39,2.087c2.352,1.104,4.103,2.088,5.255,2.949c4.699,3.169,9.788,7.249,15.258,12.235
	c0.671,0.578,1.511,1.583,2.52,3.022c1.007,1.439,1.75,2.402,2.23,2.879v0.865c-0.48,0.192-1.968,0.672-4.463,1.438
	c-1.15,0.288-2.735,0.551-4.749,0.792c-2.015,0.238-3.552,0.504-4.606,0.791c-3.264,0.96-5.375,1.488-6.333,1.583l0.144,0.291
	c0.382,1.054,1.199,2.108,2.446,3.166c1.246,1.054,2.808,2.157,4.678,3.31c1.872,1.151,3.046,1.919,3.527,2.304
	c3.935,3.071,7.198,6.427,9.788,10.075l2.734,2.879c0.192,0.29,0.433,0.815,0.72,1.583c0.289,0.767,0.527,1.296,0.722,1.586V200
	c-0.481-0.192-1.058-0.626-1.729-1.296c-0.672-0.672-1.104-1.057-1.296-1.151c-3.646-2.977-5.662-4.605-6.046-4.896
	c-1.248-0.767-3.143-1.775-5.686-3.021c-2.544-1.247-4.39-2.256-5.542-3.022c-1.15-0.771-3.118-2.305-5.9-4.605
	c-1.729-1.345-3.361-3.407-4.895-6.191c-0.194-0.192-0.433-0.672-0.72-1.439c-0.288-0.767-0.576-1.345-0.864-1.727
	c0.095-0.574,0.336-1.008,0.72-1.296c0.383-0.287,0.958-0.525,1.728-0.718c0.768-0.192,1.245-0.336,1.439-0.434
	C172.058,168.188,178.057,167.277,185.542,167.467z M87.371,82.109c0.191,0.192,0.599,0.528,1.224,1.006
	c0.624,0.482,1.079,0.913,1.368,1.295c0.095,0.196,0.238,0.529,0.431,1.009c0.193,0.482,0.384,0.816,0.576,1.009
	c0,2.301-0.625,3.936-1.87,4.893c0,0.098-0.05,0.195-0.145,0.287c-0.481-0.957-1.201-2.54-2.159-4.749
	c-0.192-0.287-0.648-0.887-1.368-1.8c-0.72-0.911-1.224-1.653-1.511-2.231h-0.287V82.54C84.971,82.253,86.219,82.109,87.371,82.109z
	"/>
</svg>
