<?xml version="1.0" encoding="iso-8859-1"?>
<!-- Generator: Adobe Illustrator 16.0.0, SVG Export Plug-In . SVG Version: 6.00 Build 0)  -->
<!DOCTYPE svg PUBLIC "-//W3C//DTD SVG 1.1//EN" "http://www.w3.org/Graphics/SVG/1.1/DTD/svg11.dtd">
<svg version="1.1" id="Layer_1" xmlns="http://www.w3.org/2000/svg" xmlns:xlink="http://www.w3.org/1999/xlink" x="0px" y="0px"
	 width="256px" height="256px" viewBox="0 0 256 256" style="enable-background:new 0 0 256 256;" xml:space="preserve">
<path d="M226,14H30c-8.837,0-16,7.164-16,16v196c0,8.837,7.163,16,16,16h196c8.836,0,16-7.163,16-16V30
	C242,21.164,234.836,14,226,14z M200,162.366c0,4.85-2.116,8.459-6.343,10.817l-59.316,34.323c-1.99,1.117-4.103,1.679-6.341,1.679
	c-2.238,0-4.354-0.562-6.343-1.679l-19.771-11.753c-2.116-1.117-2.303-1.986-0.56-2.613c2.984-0.993,5.968-2.359,8.953-4.102
	c0.494-0.246,0.993-0.188,1.492,0.187l15.295,8.953c0.621,0.373,1.24,0.373,1.864,0l59.316-34.322
	c0.62-0.247,0.932-0.745,0.932-1.49V93.725c0-0.747-0.312-1.308-0.932-1.68l-59.316-34.322c-0.624-0.373-1.244-0.373-1.864,0
	L67.565,92.045c-0.625,0.372-0.933,0.933-0.933,1.68v68.642c0,0.745,0.309,1.243,0.933,1.49l16.414,9.516
	c4.353,1.863,7.802,2.052,10.352,0.557c2.547-1.49,3.824-3.665,3.824-6.528V99.504c0-1.117,0.56-1.676,1.679-1.676h7.648
	c1.118,0,1.679,0.559,1.679,1.676V167.4c0,5.849-1.558,10.386-4.664,13.619c-3.109,3.232-7.461,4.85-13.056,4.85
	c-3.982,0-8.521-1.243-13.617-3.732l-15.669-8.953C58.053,170.825,56,167.216,56,162.366V93.725c0-4.852,2.053-8.457,6.155-10.819
	l59.502-34.321c4.227-2.36,8.395-2.36,12.498,0l59.502,34.321c4.227,2.362,6.343,5.968,6.343,10.819V162.366z M163.066,138.398
	c-0.746-0.934-2.704-1.834-5.875-2.707c-3.172-0.869-7.866-1.614-14.082-2.238c-8.955-0.867-15.576-2.612-19.865-5.222
	c-4.291-2.613-6.435-6.962-6.435-13.059c0-5.968,2.392-10.659,7.181-14.083c4.786-3.419,11.407-5.128,19.865-5.128
	c9.574,0,16.787,1.709,21.636,5.128c4.85,3.424,7.523,8.675,8.021,15.764c0.123,0.496,0,0.933-0.373,1.305
	c-0.373,0.373-0.81,0.562-1.305,0.562h-7.647c-0.998,0-1.557-0.436-1.679-1.308c-0.996-4.104-2.83-6.965-5.502-8.58
	c-2.675-1.614-7.06-2.426-13.15-2.426c-10.198,0-15.295,2.799-15.295,8.395c0,1.619,0.434,2.798,1.306,3.542
	c0.869,0.75,2.704,1.467,5.502,2.146c2.798,0.686,7.305,1.463,13.523,2.331c9.823,1.372,16.788,3.297,20.892,5.784
	s6.155,6.78,6.155,12.87c0,6.466-2.582,11.504-7.741,15.108c-5.161,3.608-12.468,5.409-21.917,5.409
	c-6.221,0-11.504-0.651-15.854-1.957c-4.355-1.308-7.586-3.11-9.7-5.411c-2.116-2.3-3.638-4.631-4.57-6.992
	c-0.933-2.363-1.399-4.914-1.399-7.649c0-1.122,0.621-1.679,1.865-1.679h7.647c0.995,0,1.555,0.436,1.68,1.307
	c0.62,4.227,2.299,7.272,5.036,9.139c2.734,1.864,7.834,2.798,15.295,2.798c6.216,0,10.754-0.772,13.616-2.331
	c2.858-1.554,4.291-3.947,4.291-7.181C164.187,140.541,163.814,139.327,163.066,138.398z"/>
</svg>
