<?xml version="1.0" encoding="iso-8859-1"?>
<!-- Generator: Adobe Illustrator 16.0.0, SVG Export Plug-In . SVG Version: 6.00 Build 0)  -->
<!DOCTYPE svg PUBLIC "-//W3C//DTD SVG 1.1//EN" "http://www.w3.org/Graphics/SVG/1.1/DTD/svg11.dtd">
<svg version="1.1" id="Layer_1" xmlns="http://www.w3.org/2000/svg" xmlns:xlink="http://www.w3.org/1999/xlink" x="0px" y="0px"
	 width="256px" height="256px" viewBox="0 0 256 256" style="enable-background:new 0 0 256 256;" xml:space="preserve">
<polygon points="76.152,79.878 60.346,79.878 60.346,176.125 76.152,176.125 76.152,191.012 42,191.012 42,64.988 76.152,64.988 "/>
<path d="M166.143,100.214c-7.068-4.216-15.111-6.323-24.141-6.323c-9.903,0-17.908,3.115-23.992,9.346s-9.121,14.666-9.121,25.314
	c0,10.205,2.867,18.339,8.609,24.392c5.734,6.067,13.469,9.095,23.18,9.095c9.275,0,17.762-2.252,25.465-6.773v21.718
	c-7.703,3.731-17.762,5.591-30.17,5.591c-16.196,0-28.929-4.758-38.197-14.277c-9.284-9.521-13.918-22.203-13.918-38.051
	c0-16.879,5.215-30.568,15.646-41.066c10.423-10.5,23.953-15.75,40.584-15.75c10.308,0,18.986,1.297,26.055,3.901V100.214z"/>
<polygon points="214,191.012 179.848,191.012 179.848,176.125 195.583,176.125 195.583,79.878 179.848,79.878 179.848,64.988 
	214,64.988 "/>
</svg>
