<?xml version="1.0" encoding="iso-8859-1"?>
<!-- Generator: Adobe Illustrator 16.0.0, SVG Export Plug-In . SVG Version: 6.00 Build 0)  -->
<!DOCTYPE svg PUBLIC "-//W3C//DTD SVG 1.1//EN" "http://www.w3.org/Graphics/SVG/1.1/DTD/svg11.dtd">
<svg version="1.1" id="Layer_1" xmlns="http://www.w3.org/2000/svg" xmlns:xlink="http://www.w3.org/1999/xlink" x="0px" y="0px"
	 width="256px" height="256px" viewBox="0 0 256 256" style="enable-background:new 0 0 256 256;" xml:space="preserve">
<path d="M226,14H30c-8.837,0-16,7.164-16,16v196c0,8.837,7.163,16,16,16h196c8.836,0,16-7.163,16-16V30
	C242,21.164,234.836,14,226,14z M76.152,79.878H60.346v96.247h15.806v14.887H42V64.988h34.152V79.878z M166.143,100.214
	c-7.068-4.216-15.111-6.323-24.141-6.323c-9.903,0-17.908,3.115-23.992,9.346s-9.121,14.666-9.121,25.314
	c0,10.205,2.867,18.339,8.609,24.392c5.734,6.067,13.469,9.095,23.18,9.095c9.275,0,17.762-2.252,25.465-6.773v21.718
	c-7.703,3.731-17.762,5.591-30.17,5.591c-16.196,0-28.929-4.758-38.197-14.277c-9.284-9.521-13.918-22.203-13.918-38.051
	c0-16.879,5.215-30.568,15.646-41.066c10.423-10.5,23.953-15.75,40.584-15.75c10.308,0,18.986,1.297,26.055,3.901V100.214z
	 M214,191.012h-34.152v-14.887h15.735V79.878h-15.735v-14.89H214V191.012z"/>
</svg>
