<?xml version="1.0" encoding="iso-8859-1"?>
<!-- Generator: Adobe Illustrator 16.0.0, SVG Export Plug-In . SVG Version: 6.00 Build 0)  -->
<!DOCTYPE svg PUBLIC "-//W3C//DTD SVG 1.1//EN" "http://www.w3.org/Graphics/SVG/1.1/DTD/svg11.dtd">
<svg version="1.1" id="Layer_1" xmlns="http://www.w3.org/2000/svg" xmlns:xlink="http://www.w3.org/1999/xlink" x="0px" y="0px"
	 width="256px" height="256px" viewBox="0 0 256 256" style="enable-background:new 0 0 256 256;" xml:space="preserve">
<g>
	<path d="M149.604,68.494c3.01-0.088,5.609,0.322,7.797,1.232c0.455,0.184,0.912,0.389,1.369,0.615
		c0.455,0.23,0.842,0.457,1.163,0.686c0.318,0.227,0.706,0.547,1.163,0.955c0.455,0.412,0.798,0.709,1.026,0.891
		c0.226,0.184,0.593,0.525,1.095,1.027c0.5,0.502,0.797,0.799,0.889,0.889c0.637,0.82,1.23,1.732,1.779,2.736
		c0.547,1.004,1.139,2.326,1.778,3.967c0.637,1.643,1.047,2.646,1.23,3.01c1.003,2.463,2.327,4.516,3.967,6.156
		c1.277,1.277,2.508,2.828,3.694,4.65c3.1,6.842,6.978,12.771,11.628,17.785c1.368,1.367,2.279,2.531,2.737,3.488
		c0.455,0.959,0.684,2.35,0.684,4.174c0.729,5.471,0.455,10.625-0.82,15.459c-0.184,0.547-0.914,1.641-2.189,3.281
		c-1.278,1.734-2.099,2.693-2.463,2.875c-0.458,0.092-0.776,0.137-0.958,0.137c-0.821-0.182-1.368-0.686-1.642-1.506
		c-0.184-0.82,0.182-2.004,1.095-3.557c1.916-2.734,2.599-5.518,2.052-8.344c-0.092-0.73-0.184-1.803-0.273-3.215
		c-0.093-1.414-0.185-2.441-0.274-3.08c-0.639-2.371-1.415-3.557-2.326-3.557c-0.82,0-1.778,1.826-2.873,5.471l-0.685,7.525
		c-0.092,6.752,0.045,10.855,0.41,12.312c0.183,0.639,0.274,1.779,0.274,3.422c0,1.641-0.092,2.918-0.274,3.83
		c-0.273,1.367-0.092,2.645,0.548,3.83c0.637,1.459,0.91,2.965,0.821,4.514c0,1.188-0.297,2.418-0.89,3.695
		c-0.594,1.277-0.981,2.92-1.163,4.924c-0.092,1.553-0.184,2.646-0.273,3.283c-0.365,1.277-0.502,2.258-0.41,2.941
		c0.09,0.686,0.455,1.984,1.094,3.9c1.095,2.824,1.505,4.42,1.231,4.789c-0.092,0.363-0.092,0.979,0,1.844
		c0.09,0.867,0.137,1.527,0.137,1.986c-3.01-0.549-6.066-1.051-9.166-1.506c0.09-0.092,0.137-0.184,0.137-0.273
		c0.729-1.279,1.185-2.555,1.369-3.83c0.182-1.369,0.82-3.467,1.915-6.293c0.637-1.645,0.958-3.012,0.958-4.105
		c0.273-3.373,0.182-5.928-0.274-7.66c-0.457-1.459-0.684-3.604-0.684-6.43c0-2.189-0.047-3.604-0.137-4.242
		c-0.365-1.641-1.278-3.693-2.736-6.156c-1.095-2.006-1.87-3.693-2.326-5.062c-0.092-0.361-0.547-1.48-1.367-3.352
		c-0.822-1.869-1.324-3.35-1.505-4.447c-0.457-2.734-1.323-4.104-2.6-4.104c-0.912,0-1.87,0.914-2.872,2.736
		c-2.281,3.65-3.604,6.977-3.967,9.988c-0.457,3.01-0.685,6.111-0.685,9.303v4.377l-0.411,0.82
		c-0.365,0.547-0.957,1.188-1.778,1.918c-0.912,0.82-1.552,1.551-1.915,2.188c-0.913,1.553-1.916,2.963-3.009,4.24
		c-1.734,2.008-2.737,3.65-3.01,4.926c-0.273,0.912-0.092,1.777,0.547,2.598c0.183,0.273,0.685,0.686,1.505,1.232
		c1.55,1.186,2.508,2.691,2.873,4.516c0.09,0.729,0.09,1.457,0,2.188c-0.184,1.277-0.548,2.189-1.095,2.736
		c-1.552-0.092-3.009-0.184-4.377-0.273c-0.457-0.365-0.868-0.82-1.231-1.367c-0.913-1.188-1.597-1.779-2.052-1.779
		c-0.457-0.092-1.004,0.41-1.642,1.506c-0.273,0.547-0.639,1.002-1.094,1.367c-3.375-0.092-7.024-0.139-10.945-0.139
		c-0.092-0.092-0.092-0.227,0-0.408c0.09-0.639,1.047-1.369,2.872-2.189c1.277-0.547,2.235-1.094,2.874-1.641
		c1.642-1.459,2.462-3.057,2.462-4.789c-0.092-0.455-0.273-0.934-0.547-1.436s-0.547-0.936-0.82-1.301
		c-0.275-0.363-0.685-0.82-1.232-1.367s-0.913-0.959-1.095-1.232c-1.459-1.641-3.238-3.146-5.335-4.516
		c-2.373-1.457-3.878-2.598-4.514-3.418c-0.366-0.363-0.663-0.867-0.89-1.506c-0.229-0.637-0.342-1.961-0.342-3.967
		c0-1.732,0.069-2.873,0.206-3.42s0.524-1.322,1.163-2.326c1.003-1.457,1.55-3.1,1.642-4.924c0.182-1.096,0.41-2.143,0.684-3.148
		c0.364-1.549,0.274-2.6-0.273-3.146c-0.547-0.637-1.689-0.957-3.42-0.957c-0.092,0-0.229,0-0.41,0c-0.184,0-0.32,0-0.41,0
		c-0.092,0-0.229,0-0.41,0c-0.821,0.092-1.552,0.41-2.189,0.957c-1.095,1.004-1.688,2.783-1.778,5.336
		c-0.092,1.732-0.685,3.604-1.778,5.609c-0.822,1.459-1.46,3.375-1.916,5.744c-0.273,1.279-0.41,2.967-0.41,5.062
		c0,2.189-0.116,3.648-0.342,4.377c-0.229,0.732-0.663,1.689-1.299,2.875c-0.914,1.641-1.416,3.283-1.505,4.924
		c-0.184,1.277-0.365,2.375-0.547,3.285c-0.274,1.004-0.458,2.188-0.548,3.557c-0.092,1.275-0.32,2.871-0.684,4.789
		c-0.82,0-1.71,0.02-2.668,0.066c-0.957,0.045-1.756,0.09-2.395,0.137c-0.639,0.045-1.141,0.113-1.504,0.205l-0.138-0.135
		c0.183-0.365,0.569-1.027,1.164-1.986c0.592-0.955,0.979-1.572,1.163-1.846c0.91-1.826,1.549-3.92,1.915-6.293
		c0.547-3.283,0.684-5.471,0.41-6.566c-0.092-0.363-0.184-1.779-0.273-4.24c-0.092-2.463-0.184-4.012-0.273-4.654
		c-0.458-1.549-0.685-2.916-0.685-4.104c0-2.004-0.229-4.104-0.684-6.291c-0.547-3.1-0.547-6.156,0-9.166
		c0.363-1.551,0.227-2.689-0.41-3.422c-0.822-1.094-2.374-1.318-4.652-0.682c-3.557,0.912-7.182,0.5-10.875-1.232
		s-6.864-4.104-9.507-7.113c-0.64-0.91-1.689-2.166-3.147-3.762c-1.46-1.596-2.578-3.057-3.352-4.379
		c-0.776-1.32-1.211-2.758-1.3-4.311c-0.092-0.729-0.229-1.982-0.411-3.762c-0.184-1.777-0.32-3.305-0.41-4.582
		c-0.092-1.277-0.092-2.6,0-3.967c-0.092-1.549,0.455-3.51,1.642-5.883c1.184-2.371,1.915-4.014,2.188-4.926
		c-0.273-1.096-0.889-1.893-1.846-2.393c-0.958-0.502-2.258-0.844-3.899-1.027c-1.642-0.182-2.784-0.41-3.42-0.684
		c-1.642-0.822-2.281-1.959-1.915-3.422c0.182-0.82,0.637-1.709,1.368-2.668c0.729-0.957,1.458-1.617,2.188-1.982
		c1.185-0.455,2.918-0.773,5.199-0.957c2.278-0.182,3.784-0.363,4.514-0.547c2.37-0.547,4.194-1.322,5.472-2.326
		c1.276-1.002,2.211-1.643,2.805-1.916c0.592-0.273,1.436-0.41,2.531-0.41c2.37,0.092,4.467,0.709,6.292,1.848
		c1.823,1.141,3.26,2.623,4.31,4.445c1.047,1.826,1.868,3.648,2.462,5.473c0.592,1.824,0.979,3.785,1.163,5.883
		c0.182,1.641,0.09,3.283-0.273,4.924c-0.365,1.643-0.957,3.557-1.779,5.748c-0.82,2.188-1.367,3.783-1.642,4.787
		c-0.365,1.186-0.137,2.236,0.685,3.146c0.82,0.912,1.824,0.869,3.009-0.139c0.273-0.729,0.593-1.73,0.958-3.008
		c0.363-1.277,0.684-2.258,0.957-2.941c0.274-0.684,0.661-1.527,1.163-2.531c0.501-1.002,1.116-1.961,1.847-2.873
		c3.009-3.465,5.973-5.973,8.893-7.525c3.099-1.73,5.472-3.465,7.113-5.197c1.731-2.098,2.963-3.783,3.694-5.062
		c1.642-3.646,5.244-6.43,10.808-8.346c0.637-0.182,1.55-0.479,2.735-0.889c1.185-0.41,2.258-0.773,3.216-1.094
		c0.957-0.318,1.892-0.568,2.805-0.752c0.273,0,0.751-0.023,1.436-0.068C148.714,68.518,149.238,68.494,149.604,68.494z
		 M146.525,135.805c-0.137,0-0.389,0.045-0.752,0.135c-0.547,0.275-1.094,1.416-1.642,3.422c-0.73,2.188-1.367,3.648-1.915,4.377
		c-0.912,1.186-1.483,2.008-1.71,2.463c-0.229,0.457-0.434,1.277-0.616,2.461c-0.273,1.281-0.526,2.121-0.752,2.533
		c-0.229,0.408-0.844,1.072-1.846,1.982c-1.005,0.912-2.007,1.779-3.01,2.6c-1.279,1.094-1.916,2.236-1.916,3.422
		c0,0.73,0.547,1.914,1.642,3.557c0.91,1.459,1.778,2.598,2.599,3.418c1.369,1.188,2.782,2.1,4.242,2.738
		c0.82,0.457,1.549,0.5,2.188,0.135c0.637-0.273,1.275-0.957,1.916-2.051c0.363-0.637,0.91-1.551,1.642-2.738
		c1.641-2.461,2.552-5.014,2.736-7.66c0.089-1.73,0.181-2.873,0.273-3.42c0.182-1.275,0-3.738-0.547-7.387
		c-0.184-0.729-0.41-2.439-0.684-5.131c-0.274-2.689-0.685-4.217-1.231-4.582C146.868,135.896,146.662,135.805,146.525,135.805z"/>
</g>
</svg>
