<?xml version="1.0" encoding="iso-8859-1"?>
<!-- Generator: Adobe Illustrator 16.0.0, SVG Export Plug-In . SVG Version: 6.00 Build 0)  -->
<!DOCTYPE svg PUBLIC "-//W3C//DTD SVG 1.1//EN" "http://www.w3.org/Graphics/SVG/1.1/DTD/svg11.dtd">
<svg version="1.1" id="Layer_1" xmlns="http://www.w3.org/2000/svg" xmlns:xlink="http://www.w3.org/1999/xlink" x="0px" y="0px"
	 width="256px" height="256px" viewBox="0 0 256 256" style="enable-background:new 0 0 256 256;" xml:space="preserve">
<path d="M123.093,73.77c26.306-0.503,49.402,3.841,69.291,13.027c4.909,2.143,9.564,4.846,13.971,8.118
	c4.405,3.272,8.37,7.145,11.895,11.611c3.523,4.47,5.853,9.222,6.987,14.255c1.132,5.035,1.005,10.51-0.377,16.426
	c-7.553,20.769-29.015,34.805-64.382,42.104c-10.196,1.763-20.234,2.737-30.115,2.926c-9.882,0.188-19.824-0.438-29.831-1.888
	c-10.006-1.446-19.761-4.089-29.265-7.93c-9.504-3.838-18.096-8.715-25.771-14.633c-7.806-5.665-12.714-13.404-14.727-23.223
	c-2.015-9.818-0.065-18.692,5.853-26.621C52.981,87.051,81.807,75.656,123.093,73.77z M125.736,86.985
	c-16.992,0.377-32.539,2.959-46.635,7.741c-24.921,9.188-36.816,21.211-35.684,36.062c1.005,3.902,2.737,7.522,5.192,10.856
	c2.454,3.336,5.126,6.106,8.024,8.306c2.894,2.204,6.449,4.313,10.667,6.326c4.216,2.015,7.959,3.587,11.234,4.72
	c3.272,1.132,7.047,2.331,11.329,3.588c12.711,2.771,25.234,4.28,37.571,4.53c12.335,0.255,24.922-1.227,37.761-4.436
	c12.839-3.212,24.356-8.275,34.551-15.2c6.293-3.9,10.352-9.407,12.178-16.52c1.823-7.109,0.218-13.562-4.814-19.353
	c-4.908-5.158-10.605-9.563-17.086-13.217c-6.485-3.647-13.406-6.387-20.769-8.214c-7.363-1.821-14.476-3.114-21.335-3.869
	C141.059,87.551,133.666,87.112,125.736,86.985z"/>
<path d="M78.347,150.233l7.74-39.648h18.125c7.803,0.506,11.706,4.22,11.706,11.141c0,5.662-1.826,10.165-5.475,13.499
	c-3.652,3.336-7.679,4.88-12.083,4.624h-8.873l-1.889,10.385H78.347z M91.563,132.487h5.853c2.643-0.25,4.72-1.069,6.23-2.454
	c1.51-1.385,2.328-3.966,2.454-7.742c0-2.895-1.953-4.342-5.853-4.342h-6.23L91.563,132.487z"/>
<path d="M113.087,139.849l7.741-39.647h9.25l-1.888,10.384h8.875c3.649,0.255,6.292,1.228,7.929,2.927
	c1.634,1.698,2.201,3.809,1.699,6.326l-3.398,20.011h-9.818l3.588-18.123c0.25-1.383,0.218-2.36-0.095-2.927
	c-0.316-0.566-1.292-0.85-2.927-0.85h-7.363l-4.343,21.899H113.087z"/>
<path d="M143.862,150.233l7.74-39.648h18.125c7.803,0.506,11.706,4.22,11.706,11.141c0,5.662-1.826,10.165-5.476,13.499
	c-3.652,3.336-7.679,4.88-12.083,4.624h-8.874l-1.889,10.385H143.862z M157.078,132.487h5.853c2.643-0.25,4.72-1.069,6.23-2.454
	c1.51-1.385,2.328-3.966,2.454-7.742c0-2.895-1.953-4.342-5.853-4.342h-6.23L157.078,132.487z"/>
</svg>
