<?xml version="1.0" encoding="iso-8859-1"?>
<!-- Generator: Adobe Illustrator 16.0.0, SVG Export Plug-In . SVG Version: 6.00 Build 0)  -->
<!DOCTYPE svg PUBLIC "-//W3C//DTD SVG 1.1//EN" "http://www.w3.org/Graphics/SVG/1.1/DTD/svg11.dtd">
<svg version="1.1" id="Layer_1" xmlns="http://www.w3.org/2000/svg" xmlns:xlink="http://www.w3.org/1999/xlink" x="0px" y="0px"
	 width="256px" height="256px" viewBox="0 0 256 256" style="enable-background:new 0 0 256 256;" xml:space="preserve">
<g>
	<path d="M145.552,184.413c1.533,0,2.836-0.562,3.91-1.688c1.073-1.123,1.609-2.501,1.609-4.139c0-1.633-0.536-3.013-1.609-4.139
		c-1.073-1.123-2.377-1.686-3.91-1.686s-2.835,0.562-3.908,1.686c-1.075,1.126-1.611,2.506-1.611,4.139
		c0,1.638,0.536,3.016,1.611,4.139C142.717,183.852,144.019,184.413,145.552,184.413z"/>
	<path d="M226,14H30c-8.837,0-16,7.164-16,16v196c0,8.837,7.163,16,16,16h196c8.836,0,16-7.163,16-16V30
		C242,21.164,234.836,14,226,14z M94.045,138.271c-0.613,1.84-0.972,3.426-1.073,4.753v1.993v15.942H82.087
		c-0.206,0-0.537,0-0.997,0c-0.458,0-1.302-0.178-2.529-0.536c-1.226-0.358-2.428-0.895-3.602-1.61
		c-1.176-0.713-2.453-1.891-3.832-3.526c-1.38-1.634-2.583-3.575-3.602-5.826c-1.023-2.245-1.867-5.234-2.529-8.966
		c-0.666-3.73-0.997-7.945-0.997-12.646c0-3.681,0.229-7.052,0.689-10.118c0.46-3.065,1.096-5.645,1.917-7.74
		c0.817-2.095,1.735-3.986,2.758-5.674c1.021-1.687,2.121-2.989,3.297-3.907c1.172-0.92,2.323-1.737,3.449-2.455
		c1.123-0.714,2.222-1.172,3.295-1.378c1.073-0.204,1.993-0.384,2.76-0.536c0.766-0.153,1.403-0.179,1.915-0.078h0.767h43.229
		v-4.598H97.111v-15.33c-0.103-0.407-0.129-0.943-0.077-1.609c0.05-0.663,0.537-1.84,1.457-3.525
		c0.92-1.688,2.324-3.168,4.215-4.446c1.89-1.277,4.982-2.453,9.275-3.525c4.292-1.073,9.452-1.609,15.482-1.609
		c4.7,0,8.865,0.333,12.494,0.996c3.627,0.666,6.515,1.508,8.661,2.529c2.147,1.021,3.986,2.172,5.519,3.448
		c1.533,1.28,2.581,2.557,3.144,3.833c0.56,1.278,0.997,2.429,1.302,3.449c0.307,1.022,0.407,1.893,0.307,2.605v0.92v29.434
		c0,3.271-0.589,6.132-1.764,8.583c-1.176,2.455-2.632,4.217-4.368,5.29c-1.74,1.072-3.449,1.915-5.137,2.529
		c-1.686,0.612-3.092,0.92-4.215,0.92l-1.84,0.152h-30.658c-3.476,0-6.465,0.666-8.968,1.993c-2.506,1.328-4.293,2.913-5.366,4.753
		C95.501,134.592,94.658,136.432,94.045,138.271z M190.851,140.725c-0.766,3.677-1.762,6.616-2.989,8.813
		c-1.226,2.199-2.583,4.062-4.062,5.596c-1.483,1.532-2.964,2.605-4.446,3.219c-1.481,0.614-2.835,1.072-4.062,1.38
		c-1.226,0.307-2.199,0.41-2.913,0.307h-1.226h-43.229v4.598h30.966v15.33c0.1,0.41,0.126,0.946,0.077,1.611
		c-0.053,0.664-0.537,1.838-1.457,3.523c-0.92,1.688-2.325,3.168-4.215,4.446c-1.894,1.277-4.982,2.453-9.275,3.525
		c-4.292,1.073-9.453,1.609-15.482,1.609c-4.703,0-8.868-0.332-12.494-0.994c-3.629-0.668-6.515-1.51-8.661-2.53
		c-2.147-1.022-3.986-2.173-5.519-3.449c-1.533-1.28-2.583-2.557-3.144-3.833c-0.563-1.276-0.997-2.426-1.302-3.449
		c-0.307-1.02-0.41-1.89-0.307-2.605v-0.92v-29.434c0-3.269,0.588-6.132,1.764-8.583c1.172-2.453,2.629-4.217,4.368-5.29
		c1.737-1.072,3.449-1.915,5.137-2.529c1.686-0.612,3.089-0.97,4.215-1.072h1.84h30.658c3.474,0,6.464-0.665,8.968-1.993
		c2.502-1.327,4.293-2.913,5.366-4.753c1.073-1.839,1.917-3.677,2.529-5.518c0.613-1.84,0.97-3.424,1.073-4.753v-1.993V95.041
		h10.885c0.203,0,0.537,0,0.997,0c0.458,0,1.302,0.181,2.529,0.536c1.226,0.36,2.425,0.896,3.602,1.61
		c1.173,0.716,2.453,1.892,3.832,3.526c1.38,1.636,2.554,3.577,3.526,5.826c0.97,2.248,1.813,5.236,2.529,8.966
		c0.714,3.733,1.073,7.947,1.073,12.646C192,132.855,191.618,137.045,190.851,140.725z"/>
	<path d="M110.448,71.587c-1.533,0-2.836,0.563-3.91,1.688c-1.073,1.126-1.609,2.505-1.609,4.139c0,1.636,0.536,3.016,1.609,4.139
		c1.073,1.126,2.377,1.688,3.91,1.688s2.835-0.562,3.908-1.688c1.075-1.123,1.611-2.503,1.611-4.139
		c0-1.634-0.536-3.013-1.611-4.139C113.283,72.15,111.981,71.587,110.448,71.587z"/>
</g>
</svg>
