<?xml version="1.0" encoding="iso-8859-1"?>
<!-- Generator: Adobe Illustrator 16.0.0, SVG Export Plug-In . SVG Version: 6.00 Build 0)  -->
<!DOCTYPE svg PUBLIC "-//W3C//DTD SVG 1.1//EN" "http://www.w3.org/Graphics/SVG/1.1/DTD/svg11.dtd">
<svg version="1.1" id="Layer_1" xmlns="http://www.w3.org/2000/svg" xmlns:xlink="http://www.w3.org/1999/xlink" x="0px" y="0px"
	 width="256px" height="256px" viewBox="0 0 256 256" style="enable-background:new 0 0 256 256;" xml:space="preserve">
<path d="M226,14H30c-8.837,0-16,7.164-16,16v196c0,8.837,7.163,16,16,16h196c8.836,0,16-7.163,16-16V30
	C242,21.164,234.836,14,226,14z M181.674,66.924l8.463,6.195l-1.654,2.469l-7.22-3.912L181.674,66.924z M156.706,59.502l1.033,6.8
	l-10.519,0.22l-1.444-7.438L156.706,59.502z M124.106,63.213l6.188,6.801l-8.664,4.953l-6.188-7.422L124.106,63.213z M95.226,85.293
	l8.866,5.979l-6.809,8.261l-9.285-6.196L95.226,85.293z M72.113,119.328l11.964,4.752l-3.711,9.906l-11.963-3.711L72.113,119.328z
	 M57.673,175.241l1.646-12.793l13.417,1.04l-2.275,13.416L57.673,175.241z M144.331,125.323l-2.065,8.445l-8.664-7.422l3.3-6.801
	L144.331,125.323z M141.854,103.041l5.365-4.752l5.155,7.641l-3.098,5.355L141.854,103.041z M143.088,148.226l0.621,8.445
	l-10.939-4.534l0.622-9.083L143.088,148.226z M147.832,175.041l4.752,10.107l-13.618-0.823l-2.477-9.284H147.832z M161.248,96.426
	l-3.299-6.18l7.219-1.863l1.033,4.13L161.248,96.426z M187.038,91.472l-7.018-0.822v-3.711l7.018,1.444V91.472z M195.292,90.246
	c-0.554-0.688-1.411-1.511-2.578-2.485c-1.176-0.957-3.652-2.099-7.43-3.408c-3.786-1.293-7.741-1.746-11.862-1.326
	c-3.854,0.402-7.942,1.646-12.274,3.711c-4.333,2.065-8.707,4.953-13.105,8.664c-4.408,3.711-8.253,8.663-11.552,14.86
	c-3.3,6.178-5.365,12.996-6.196,20.417c-0.688,6.465-0.789,12.828-0.302,19.091c0.479,6.264,1.335,12.241,2.578,17.95
	c1.233,5.709,2.543,10.729,3.92,15.061c1.369,4.332,2.543,7.809,3.509,10.411l1.646,3.729H72.936
	c-1.234-7.574-0.344-18.572,2.687-33.013c2.065-10.191,4.71-19.409,7.942-27.654c3.233-8.261,7.875-17.949,13.928-29.098
	c6.053-11.134,13.651-20.284,22.802-27.437c9.143-7.153,19.771-11.283,31.878-12.375c4.811-0.554,9.697-0.285,14.641,0.823
	c4.954,1.107,9.219,2.618,12.795,4.532c3.576,1.932,6.842,3.863,9.805,5.777c2.956,1.93,5.189,3.575,6.7,4.952l2.275,2.065
	L195.292,90.246z"/>
</svg>
