<?xml version="1.0" encoding="iso-8859-1"?>
<!-- Generator: Adobe Illustrator 16.0.0, SVG Export Plug-In . SVG Version: 6.00 Build 0)  -->
<!DOCTYPE svg PUBLIC "-//W3C//DTD SVG 1.1//EN" "http://www.w3.org/Graphics/SVG/1.1/DTD/svg11.dtd">
<svg version="1.1" id="Layer_1" xmlns="http://www.w3.org/2000/svg" xmlns:xlink="http://www.w3.org/1999/xlink" x="0px" y="0px"
	 width="256px" height="256px" viewBox="0 0 256 256" style="enable-background:new 0 0 256 256;" xml:space="preserve">
<path d="M84.908,30h122.347h1.864v2.05v131.64c0,3.442,0.067,8.296,0.201,14.558c0.134,6.247,0.21,10.83,0.21,13.719
	c0,2.888-0.243,6.145-0.722,9.789c-0.487,3.644-1.276,6.716-2.376,9.184c-2.343,5.374-6.574,9.219-12.686,11.553
	c-6.129,2.351-15.037,3.509-26.723,3.509l-118.225-0.402h-1.856v-1.864c0.135-31.079,0.202-62.311,0.202-93.676
	c0-8.798-0.067-18.705-0.202-29.702c-0.142-10.998-0.276-19.227-0.411-24.667c-0.142-5.423-0.042-10.863,0.311-16.286
	c0.335-5.44,0.923-9.807,1.746-13.114C50.377,39.42,54.164,34.87,59.94,32.67C64.482,30.891,72.802,30,84.908,30z M84.908,33.913
	c-11.418,0-19.259,0.755-23.523,2.267c-2.477,0.975-4.399,2.266-5.776,3.929c-1.377,1.646-2.477,4.048-3.3,7.221
	c-0.688,2.888-1.175,6.984-1.443,12.273c-0.277,5.289-0.386,10.629-0.311,15.985c0.067,5.373,0.168,13.583,0.311,24.666
	c0.134,11.064,0.201,21.006,0.201,29.804c0,33.011-0.134,63.554-0.411,91.61c50.616,0.27,89.411,0.42,116.369,0.42
	c11.275,0,19.738-1.04,25.379-3.106c5.088-1.914,8.598-5.087,10.52-9.486c0.831-2.2,1.444-5.021,1.855-8.463
	c0.42-3.441,0.655-6.497,0.723-9.168c0.075-2.686,0.033-7.236-0.101-13.617c-0.134-6.396-0.202-11.249-0.202-14.558V33.913H84.908z"
	/>
<g>
	<polygon points="59.318,162.448 72.735,163.488 70.459,176.904 57.673,175.241 	"/>
	<polygon points="80.366,133.986 68.402,130.275 72.113,119.328 84.077,124.08 	"/>
	<path d="M72.936,196.92c-1.234-7.574-0.344-18.572,2.687-33.013c2.065-10.191,4.71-19.409,7.942-27.654
		c3.233-8.261,7.875-17.949,13.928-29.098c6.053-11.134,13.651-20.284,22.802-27.437c9.143-7.153,19.771-11.283,31.878-12.375
		c4.811-0.554,9.697-0.285,14.641,0.823c4.954,1.107,9.219,2.618,12.795,4.532c3.576,1.932,6.842,3.863,9.805,5.777
		c2.956,1.93,5.189,3.575,6.7,4.952l2.275,2.065l-3.098,4.752c-0.554-0.688-1.411-1.511-2.578-2.485
		c-1.176-0.957-3.652-2.099-7.43-3.408c-3.786-1.293-7.741-1.746-11.862-1.326c-3.854,0.402-7.942,1.646-12.274,3.711
		c-4.333,2.065-8.707,4.953-13.105,8.664c-4.408,3.711-8.253,8.663-11.552,14.86c-3.3,6.178-5.365,12.996-6.196,20.417
		c-0.688,6.465-0.789,12.828-0.302,19.091c0.479,6.264,1.335,12.241,2.578,17.95c1.233,5.709,2.543,10.729,3.92,15.061
		c1.369,4.332,2.543,7.809,3.509,10.411l1.646,3.729H72.936z"/>
	<polygon points="97.283,99.532 87.998,93.336 95.226,85.293 104.092,91.271 	"/>
	<polygon points="115.442,67.545 124.106,63.213 130.293,70.014 121.63,74.967 	"/>
	<polygon points="133.392,143.054 143.088,148.226 143.709,156.671 132.771,152.137 	"/>
	<polygon points="136.901,119.546 144.331,125.323 142.266,133.769 133.602,126.347 	"/>
	<polygon points="136.49,175.041 147.832,175.041 152.584,185.148 138.966,184.325 	"/>
	<polygon points="147.219,98.289 152.374,105.93 149.276,111.285 141.854,103.041 	"/>
	<polygon points="145.775,59.083 156.706,59.502 157.738,66.302 147.219,66.521 	"/>
	<polygon points="157.949,90.246 165.168,88.383 166.201,92.513 161.248,96.426 	"/>
	<polygon points="180.02,86.938 187.038,88.383 187.038,91.472 180.02,90.649 	"/>
	<polygon points="181.674,66.924 190.137,73.119 188.482,75.588 181.262,71.676 	"/>
</g>
</svg>
