<?xml version="1.0" encoding="iso-8859-1"?>
<!-- Generator: Adobe Illustrator 16.0.0, SVG Export Plug-In . SVG Version: 6.00 Build 0)  -->
<!DOCTYPE svg PUBLIC "-//W3C//DTD SVG 1.1//EN" "http://www.w3.org/Graphics/SVG/1.1/DTD/svg11.dtd">
<svg version="1.1" id="Layer_1" xmlns="http://www.w3.org/2000/svg" xmlns:xlink="http://www.w3.org/1999/xlink" x="0px" y="0px"
	 width="256px" height="256px" viewBox="0 0 256 256" style="enable-background:new 0 0 256 256;" xml:space="preserve">
<path d="M226,14H30c-8.837,0-16,7.164-16,16v196c0,8.837,7.163,16,16,16h196c8.836,0,16-7.163,16-16V30
	C242,21.164,234.836,14,226,14z M194.234,76.257l-45.146-7.897l36.082-11.706L194.234,76.257z M101.804,130.146l52.89,11.035
	l-61.129,48.271L101.804,130.146z M90.266,182.036l-18.122-36.082l25.375-16.144L90.266,182.036z M102.132,126.189l28.506-31.644
	l22.734,43.015L102.132,126.189z M134.922,94.546l53.875-14.494l-30.973,57.83L134.922,94.546z M132.945,90.604l7.576-19.281
	l42.183,6.758L132.945,90.604z M171.004,56.332l-34.111,11.035l-6.094-1.649L171.004,56.332z M73.297,114.819l25.872-28.842
	l24.711-17.297l11.371,3.138l-7.254,18.785l-30.645,34.098l-27.186,17.137l-7.743-6.584L73.297,114.819z M56.161,183.028
	l4.452-43.162l7.904,6.584L56,185.335L56.161,183.028z M70.823,152.055l19.61,39.046l-32.951,4.116L70.823,152.055z M59.788,199.668
	l32.951-4.116l0.657-0.161v0.161l93.095,3.62L59.788,199.668z M97.681,192.253l60.472-47.774l38.06,51.569L97.681,192.253z
	 M160.787,142.173l33.943-63.609L200,195.391L160.787,142.173z"/>
</svg>
