<?xml version="1.0" encoding="utf-8"?>
<!-- Generator: Adobe Illustrator 16.0.0, SVG Export Plug-In . SVG Version: 6.00 Build 0)  -->
<!DOCTYPE svg PUBLIC "-//W3C//DTD SVG 1.1//EN" "http://www.w3.org/Graphics/SVG/1.1/DTD/svg11.dtd">
<svg version="1.1" id="Layer_1" xmlns="http://www.w3.org/2000/svg" xmlns:xlink="http://www.w3.org/1999/xlink" x="0px" y="0px"
	 width="256px" height="256px" viewBox="0 0 256 256" enable-background="new 0 0 256 256" xml:space="preserve">
<g>
	<path fill-rule="evenodd" clip-rule="evenodd" fill="#010101" d="M85.881,180.05c-7.538,7.968-9.645,17.969-5.439,20.407
		c3.896,2.26,12.979-0.422,19.481-7.516c2.131-2.325,3.872-4.844,5.169-7.534c0.259-0.538,0.501-1.084,0.724-1.635
		c0.223-0.553,0.429-1.111,0.616-1.676c1.682-5.087,1.86-10.702,0.232-16.725c-0.346,0.19-0.688,0.377-1.023,0.558l0.018,0.035
		C105.66,165.965,93.991,171.477,85.881,180.05z"/>
	<path fill-rule="evenodd" clip-rule="evenodd" fill="#010101" d="M128.904,16.192C67.102,16.192,17,66.293,17,128.096
		C17,189.899,67.102,240,128.904,240s111.903-50.101,111.903-111.904C240.808,66.293,190.707,16.192,128.904,16.192z
		 M165.39,115.413c-19.399,7.503-35.44,6.315-42.029,4.153c-7.49-2.458-11.884-7.399-12.954-10.185c-0.42-1.093-1.146-2.926,0-3.56
		c0.703-0.39,0.984-0.296,2.868,1.78c1.79,1.972,8.983,7.267,22.645,5.735c35.859-4.019,57.456-31.882,50.633-46.873
		c-4.777-10.494-32.42-15.228-66.949,1.978c-42.152,21.003-44.438,38.319-44.797,44.895c-0.989,18.088,22.325,27.606,34.936,41.061
		c0.297,0.316,0.584,0.637,0.866,0.958c3.815-1.42,9.098-2.22,17.5-2.364c20.398-0.352,31.92,13.097,31.446,25.118
		c-0.371,9.469-9.063,13.369-10.68,13.642c-1.174,0.199-1.811,0.233-1.978-0.688c-0.116-0.633,0.304-0.928,1.681-1.779
		s5.494-3.672,6.23-8.803c0.736-5.128-3.115-17.385-22.745-19.678c-6.957-0.812-12.431-0.258-17.126,0.98
		c3.404,7.505,4.056,22.592-3.776,34.274c-8.116,12.106-23.219,19.472-37.937,15.377c-4.75-1.321-11.925-11.14-5.735-24.821
		c5.866-12.969,30.932-25.654,34.357-27.34v-0.061c-11.614-10-39.867-23.478-43.85-44.097c-1.129-5.844,1.61-19.829,18.789-35.897
		c14.448-13.514,34.542-23.863,53.103-30.458c31.189-11.08,64.144-4.547,69.211,15.328
		C204.081,83.63,187.115,107.008,165.39,115.413z"/>
</g>
</svg>
