<?xml version="1.0" encoding="utf-8"?>
<!-- Generator: Adobe Illustrator 16.0.0, SVG Export Plug-In . SVG Version: 6.00 Build 0)  -->
<!DOCTYPE svg PUBLIC "-//W3C//DTD SVG 1.1//EN" "http://www.w3.org/Graphics/SVG/1.1/DTD/svg11.dtd">
<svg version="1.1" id="Layer_1" xmlns="http://www.w3.org/2000/svg" xmlns:xlink="http://www.w3.org/1999/xlink" x="0px" y="0px"
	 width="256px" height="256px" viewBox="0 0 256 256" enable-background="new 0 0 256 256" xml:space="preserve">
<path d="M192.081,137.957c-6.211,0.033-11.59,1.524-16.1,3.747c-1.649-3.292-3.318-6.188-3.599-8.341
	c-0.327-2.514-0.706-4.013-0.312-7.007c0.396-2.995,2.128-7.234,2.103-7.552c-0.025-0.318-0.389-1.843-3.971-1.869
	s-6.646,0.689-7.007,1.635c-0.361,0.946-1.051,3.075-1.479,5.294c-0.628,3.249-7.152,14.833-10.857,20.894
	c-1.212-2.365-2.242-4.451-2.457-6.101c-0.327-2.514-0.706-4.013-0.312-7.008c0.396-2.993,2.128-7.234,2.103-7.552
	c-0.024-0.318-0.388-1.843-3.971-1.869c-3.582-0.026-6.646,0.689-7.007,1.635c-0.361,0.946-0.746,3.157-1.479,5.294
	c-0.734,2.139-9.407,21.463-11.679,26.473c-1.157,2.552-2.165,4.602-2.876,6.003c-0.002-0.004-0.004-0.008-0.004-0.008
	s-0.044,0.093-0.119,0.25c-0.609,1.192-0.971,1.852-0.971,1.852s0.004,0.009,0.011,0.024c-0.483,0.875-1,1.688-1.256,1.688
	c-0.179,0-0.538-2.33,0.078-5.528c1.291-6.703,4.391-17.158,4.36-17.518c-0.016-0.185,0.576-2.006-2.024-2.959
	c-2.528-0.926-3.429,0.618-3.659,0.623c-0.224,0.005-0.39,0.545-0.39,0.545s2.816-11.757-5.372-11.757
	c-5.12,0-12.213,5.601-15.708,10.677c-2.206,1.203-6.925,3.779-11.932,6.53c-1.923,1.057-3.885,2.137-5.746,3.162
	c-0.126-0.141-0.253-0.281-0.383-0.42c-9.929-10.594-28.285-18.087-27.506-32.329c0.283-5.178,2.083-18.811,35.271-35.348
	c27.186-13.547,48.949-9.819,52.71-1.557c5.373,11.803-11.632,33.74-39.864,36.905c-10.757,1.206-16.421-2.963-17.83-4.516
	c-1.483-1.635-1.704-1.708-2.258-1.402c-0.902,0.5-0.331,1.943,0,2.803c0.843,2.194,4.302,6.084,10.199,8.02
	c5.188,1.702,17.817,2.638,33.09-3.27c17.106-6.617,30.464-25.023,26.54-40.409c-3.989-15.648-29.935-20.792-54.491-12.068
	c-14.614,5.192-30.435,13.341-41.81,23.98c-13.525,12.651-15.682,23.662-14.793,28.263c3.158,16.347,25.69,26.993,34.712,34.882
	c-0.445,0.246-0.863,0.477-1.243,0.687c-4.523,2.237-21.699,11.226-25.996,20.723c-4.873,10.773,0.776,18.502,4.516,19.543
	c11.587,3.225,23.478-2.575,29.868-12.106c6.389-9.529,5.609-21.938,2.677-27.602c-0.037-0.07-0.077-0.139-0.114-0.209
	c1.168-0.691,2.359-1.395,3.54-2.088c2.302-1.352,4.562-2.612,6.523-3.68c-1.097,3.007-1.901,6.61-2.319,11.816
	c-0.491,6.115,2.015,14.019,5.294,17.129c1.444,1.369,3.181,1.401,4.282,1.401c3.816,0,5.558-3.175,7.475-6.93
	c2.352-4.604,4.438-9.966,4.438-9.966s-2.619,14.481,4.516,14.481c2.6,0,5.214-3.371,6.379-5.09c0.003,0.02,0.005,0.029,0.005,0.029
	s0.068-0.112,0.2-0.337c0.27-0.412,0.423-0.675,0.423-0.675s0.005-0.027,0.014-0.075c1.045-1.813,3.362-5.95,6.838-12.772
	c4.491-8.812,8.798-19.854,8.798-19.854s0.401,2.699,1.713,7.163c0.772,2.626,2.412,5.529,3.707,8.313
	c-1.042,1.445-1.683,2.275-1.683,2.275s0.006,0.016,0.018,0.043c-0.832,1.105-1.766,2.298-2.742,3.461
	c-3.544,4.221-7.766,9.041-8.331,10.433c-0.666,1.64-0.509,2.845,0.778,3.815c0.94,0.708,2.614,0.818,4.36,0.7
	c3.185-0.214,5.426-1.004,6.531-1.485c1.724-0.609,3.731-1.567,5.615-2.952c3.477-2.557,5.573-6.213,5.372-11.057
	c-0.111-2.669-0.963-5.314-2.04-7.812c0.315-0.454,0.632-0.912,0.949-1.375c5.481-8.013,9.732-16.818,9.732-16.818
	s0.401,2.699,1.714,7.164c0.664,2.259,1.974,4.724,3.152,7.141c-5.153,4.188-8.35,9.054-9.46,12.246
	c-2.052,5.903-0.444,8.578,2.57,9.187c1.365,0.276,3.294-0.35,4.744-0.964c1.805-0.598,3.975-1.595,6-3.084
	c3.477-2.557,6.819-6.136,6.618-10.979c-0.092-2.205-0.69-4.394-1.502-6.496c4.369-1.819,10.025-2.831,17.229-1.99
	c15.455,1.805,18.486,11.455,17.907,15.494c-0.579,4.038-3.821,6.259-4.905,6.93c-1.084,0.67-1.414,0.902-1.323,1.401
	c0.132,0.725,0.633,0.696,1.557,0.541c1.272-0.215,8.116-3.285,8.409-10.741C217.213,148.269,208.145,137.872,192.081,137.957
	 M72.954,178.119c-5.119,5.585-12.271,7.695-15.338,5.918c-3.312-1.921-2-10.143,4.282-16.068c3.829-3.612,8.772-6.938,12.051-8.987
	c0.746-0.449,1.843-1.109,3.175-1.907c0.221-0.126,0.346-0.195,0.346-0.195l-0.005-0.009c0.257-0.154,0.521-0.312,0.793-0.475
	C80.544,164.831,78.328,172.258,72.954,178.119z M110.249,152.766c-1.783,4.347-5.515,15.468-7.786,14.871
	c-1.95-0.511-3.137-8.965-0.39-17.284c1.383-4.188,4.337-9.192,6.073-11.135c2.794-3.125,5.871-4.147,6.618-2.88
	C115.717,137.952,111.367,150.041,110.249,152.766z M141.061,167.468c-0.756,0.395-1.449,0.644-1.771,0.452
	c-0.236-0.142,0.312-0.662,0.312-0.662s3.854-4.146,5.372-6.034c0.883-1.098,1.906-2.4,3.022-3.858
	c0.009,0.146,0.014,0.29,0.014,0.433C147.999,162.766,143.2,166.119,141.061,167.468z M164.797,162.057
	c-0.563-0.401-0.47-1.698,1.385-5.738c0.728-1.586,2.389-4.256,5.276-6.808c0.334,1.05,0.538,2.056,0.532,2.992
	C171.953,158.753,167.494,161.087,164.797,162.057z"/>
</svg>
