<?xml version="1.0" encoding="utf-8"?>
<!-- Generator: Adobe Illustrator 16.0.0, SVG Export Plug-In . SVG Version: 6.00 Build 0)  -->
<!DOCTYPE svg PUBLIC "-//W3C//DTD SVG 1.1//EN" "http://www.w3.org/Graphics/SVG/1.1/DTD/svg11.dtd">
<svg version="1.1" id="Layer_1" xmlns="http://www.w3.org/2000/svg" xmlns:xlink="http://www.w3.org/1999/xlink" x="0px" y="0px"
	 width="256px" height="256px" viewBox="0 0 256 256" enable-background="new 0 0 256 256" xml:space="preserve">
<g>
	<path d="M108.146,139.218c-1.736,1.942-4.69,6.947-6.073,11.135c-2.748,8.319-1.56,16.773,0.39,17.284
		c2.271,0.597,6.003-10.524,7.786-14.871c1.118-2.725,5.469-14.813,4.516-16.428C114.017,135.07,110.941,136.093,108.146,139.218z"
		/>
	<path d="M77.465,156.87l0.005,0.009c0,0-0.125,0.069-0.346,0.195c-1.332,0.798-2.429,1.458-3.175,1.907
		c-3.279,2.049-8.222,5.375-12.051,8.987c-6.282,5.926-7.594,14.147-4.282,16.068c3.067,1.777,10.219-0.333,15.338-5.918
		c5.374-5.861,7.59-13.288,5.304-21.724C77.986,156.559,77.723,156.716,77.465,156.87z"/>
	<path d="M144.974,161.224c-1.518,1.888-5.372,6.034-5.372,6.034s-0.548,0.521-0.312,0.662c0.321,0.191,1.015-0.058,1.771-0.452
		c2.14-1.349,6.938-4.702,6.949-9.67c0-0.143-0.005-0.287-0.014-0.433C146.88,158.823,145.856,160.126,144.974,161.224z"/>
	<path d="M226,14H30c-8.837,0-16,7.164-16,16v196c0,8.837,7.163,16,16,16h196c8.836,0,16-7.163,16-16V30
		C242,21.164,234.836,14,226,14z M216.841,157.733c-0.293,7.456-7.137,10.526-8.409,10.741c-0.924,0.155-1.425,0.184-1.557-0.541
		c-0.091-0.499,0.239-0.731,1.323-1.401c1.084-0.671,4.326-2.892,4.905-6.93c0.579-4.039-2.452-13.689-17.907-15.494
		c-7.204-0.841-12.86,0.171-17.229,1.99c0.812,2.103,1.41,4.291,1.502,6.496c0.201,4.843-3.142,8.422-6.618,10.979
		c-2.025,1.489-4.195,2.486-6,3.084c-1.45,0.614-3.379,1.24-4.744,0.964c-3.015-0.608-4.622-3.283-2.57-9.187
		c1.11-3.192,4.307-8.059,9.46-12.246c-1.179-2.417-2.488-4.882-3.152-7.141c-1.312-4.465-1.714-7.164-1.714-7.164
		s-4.251,8.806-9.732,16.818c-0.317,0.463-0.634,0.921-0.949,1.375c1.077,2.497,1.929,5.143,2.04,7.812
		c0.201,4.844-1.896,8.5-5.372,11.057c-1.884,1.385-3.892,2.343-5.615,2.952c-1.105,0.481-3.347,1.271-6.531,1.485
		c-1.746,0.118-3.42,0.008-4.36-0.7c-1.287-0.971-1.444-2.176-0.778-3.815c0.565-1.392,4.787-6.212,8.331-10.433
		c0.977-1.163,1.91-2.355,2.742-3.461c-0.012-0.027-0.018-0.043-0.018-0.043s0.641-0.83,1.683-2.275
		c-1.295-2.784-2.935-5.688-3.707-8.313c-1.312-4.464-1.713-7.163-1.713-7.163s-4.307,11.041-8.798,19.854
		c-3.476,6.822-5.793,10.959-6.838,12.772c-0.008,0.048-0.014,0.075-0.014,0.075s-0.153,0.263-0.423,0.675
		c-0.132,0.225-0.2,0.337-0.2,0.337s-0.001-0.01-0.005-0.029c-1.165,1.719-3.779,5.09-6.379,5.09
		c-7.135,0-4.516-14.481-4.516-14.481s-2.086,5.361-4.438,9.966c-1.917,3.755-3.658,6.93-7.475,6.93
		c-1.101,0-2.838-0.032-4.282-1.401c-3.279-3.11-5.786-11.014-5.294-17.129c0.418-5.206,1.222-8.81,2.319-11.816
		c-1.961,1.067-4.221,2.328-6.523,3.68c-1.181,0.693-2.372,1.396-3.54,2.088c0.037,0.07,0.077,0.139,0.114,0.209
		c2.932,5.664,3.712,18.072-2.677,27.602c-6.39,9.531-18.281,15.331-29.868,12.106c-3.74-1.041-9.389-8.77-4.516-19.543
		c4.296-9.497,21.472-18.485,25.996-20.723c0.38-0.21,0.797-0.44,1.243-0.687c-9.022-7.89-31.555-18.535-34.712-34.882
		c-0.889-4.601,1.268-15.611,14.793-28.263c11.375-10.64,27.196-18.789,41.81-23.98c24.556-8.724,50.501-3.58,54.491,12.068
		c3.924,15.385-9.434,33.792-26.54,40.409c-15.272,5.908-27.902,4.972-33.09,3.27c-5.897-1.935-9.356-5.826-10.199-8.02
		c-0.331-0.86-0.902-2.303,0-2.803c0.554-0.306,0.775-0.233,2.258,1.402c1.409,1.553,7.073,5.722,17.83,4.516
		c28.232-3.165,45.237-25.102,39.864-36.905c-3.761-8.262-25.524-11.99-52.71,1.557c-33.188,16.537-34.987,30.17-35.271,35.348
		c-0.778,14.242,17.577,21.735,27.506,32.329c0.13,0.139,0.256,0.279,0.383,0.42c1.861-1.025,3.823-2.105,5.746-3.162
		c5.007-2.751,9.726-5.327,11.932-6.53c3.495-5.076,10.588-10.677,15.708-10.677c8.188,0,5.372,11.757,5.372,11.757
		s0.166-0.54,0.39-0.545c0.23-0.005,1.131-1.549,3.659-0.623c2.601,0.953,2.008,2.774,2.024,2.959
		c0.031,0.359-3.069,10.814-4.36,17.518c-0.616,3.198-0.257,5.528-0.078,5.528c0.256,0,0.773-0.813,1.256-1.688
		c-0.007-0.016-0.011-0.024-0.011-0.024s0.362-0.659,0.971-1.852c0.075-0.157,0.119-0.25,0.119-0.25s0.002,0.004,0.004,0.008
		c0.711-1.401,1.719-3.451,2.876-6.003c2.272-5.01,10.945-24.334,11.679-26.473c0.733-2.138,1.118-4.349,1.479-5.294
		c0.36-0.946,3.425-1.661,7.007-1.635c3.583,0.026,3.946,1.551,3.971,1.869c0.025,0.317-1.707,4.559-2.103,7.552
		c-0.395,2.995-0.016,4.494,0.312,7.008c0.215,1.649,1.245,3.735,2.457,6.101c3.705-6.061,10.229-17.646,10.857-20.894
		c0.429-2.22,1.118-4.348,1.479-5.294c0.36-0.946,3.425-1.661,7.007-1.635s3.945,1.551,3.971,1.869
		c0.025,0.317-1.707,4.557-2.103,7.552c-0.395,2.994-0.016,4.493,0.312,7.007c0.28,2.153,1.949,5.049,3.599,8.341
		c4.51-2.223,9.889-3.714,16.1-3.747C208.145,137.872,217.213,148.269,216.841,157.733z"/>
	<path d="M166.182,156.318c-1.854,4.04-1.948,5.337-1.385,5.738c2.697-0.97,7.156-3.304,7.193-9.554
		c0.006-0.937-0.198-1.942-0.532-2.992C168.57,152.062,166.909,154.732,166.182,156.318z"/>
</g>
</svg>
