<?xml version="1.0" encoding="iso-8859-1"?>
<!-- Generator: Adobe Illustrator 16.0.0, SVG Export Plug-In . SVG Version: 6.00 Build 0)  -->
<!DOCTYPE svg PUBLIC "-//W3C//DTD SVG 1.1//EN" "http://www.w3.org/Graphics/SVG/1.1/DTD/svg11.dtd">
<svg version="1.1" id="Layer_1" xmlns="http://www.w3.org/2000/svg" xmlns:xlink="http://www.w3.org/1999/xlink" x="0px" y="0px"
	 width="256px" height="256px" viewBox="0 0 256 256" style="enable-background:new 0 0 256 256;" xml:space="preserve">
<path d="M226,14H30c-8.837,0-16,7.164-16,16v196c0,8.837,7.163,16,16,16h196c8.836,0,16-7.163,16-16V30
	C242,21.164,234.836,14,226,14z M75.2,120.882c0.994-0.108,2.483-0.272,4.47-0.495c11.917-1.325,21.654-2.427,29.213-3.311
	c7.557-0.882,17.38-2.205,29.462-3.973c12.082-1.763,21.736-3.611,28.966-5.544c7.226-1.93,11.668-3.889,13.323-5.877l-0.331,33.765
	c-1.104,1.768-3.449,3.422-7.034,4.968c-3.587,1.546-8.44,2.925-14.565,4.137c-6.124,1.215-11.945,2.291-17.462,3.228
	c-5.52,0.939-12.496,1.849-20.938,2.73c-8.44,0.884-14.925,1.548-19.448,1.987c-4.526,0.442-10.593,0.992-18.207,1.654
	c-3.421,0.223-5.903,0.442-7.448,0.662V120.882z M180.469,180.799c-1.105,1.656-3.45,3.258-7.035,4.801
	c-3.586,1.546-8.44,2.95-14.564,4.221c-6.125,1.268-11.946,2.344-17.462,3.228c-5.52,0.881-12.497,1.763-20.938,2.649
	c-8.44,0.881-14.925,1.543-19.448,1.984c-4.525,0.439-10.592,0.993-18.207,1.654c-3.531,0.331-6.014,0.551-7.447,0.664v-33.931
	c0.883-0.108,2.371-0.275,4.469-0.497c11.806-1.213,21.489-2.288,29.048-3.228c7.557-0.938,17.38-2.261,29.462-3.973
	c12.082-1.71,21.736-3.531,28.966-5.461c7.226-1.93,11.723-3.944,13.489-6.043L180.469,180.799z M180.303,89.932
	c-0.993,1.654-3.311,3.255-6.951,4.801c-3.642,1.546-8.498,2.925-14.566,4.137c-6.068,1.215-11.89,2.291-17.462,3.228
	c-5.572,0.939-12.578,1.849-21.02,2.73c-8.44,0.887-14.925,1.548-19.448,1.987c-4.526,0.442-10.538,0.993-18.042,1.654
	c-3.531,0.223-6.068,0.442-7.613,0.662V75.2c0.994-0.109,2.537-0.273,4.635-0.495c11.806-1.326,21.489-2.428,29.048-3.312
	c7.557-0.881,17.38-2.204,29.462-3.973c12.082-1.763,21.736-3.611,28.966-5.543c7.226-1.93,11.723-3.89,13.489-5.878L180.303,89.932
	z"/>
</svg>
