<?xml version="1.0" encoding="iso-8859-1"?>
<!-- Generator: Adobe Illustrator 16.0.0, SVG Export Plug-In . SVG Version: 6.00 Build 0)  -->
<!DOCTYPE svg PUBLIC "-//W3C//DTD SVG 1.1//EN" "http://www.w3.org/Graphics/SVG/1.1/DTD/svg11.dtd">
<svg version="1.1" id="Layer_1" xmlns="http://www.w3.org/2000/svg" xmlns:xlink="http://www.w3.org/1999/xlink" x="0px" y="0px"
	 width="256px" height="256px" viewBox="0 0 256 256" style="enable-background:new 0 0 256 256;" xml:space="preserve">
<path d="M165.075,93.904c4.081-0.108,8.385,1.323,12.911,4.304c0.77,0.441,1.377,0.992,1.82,1.654l0.496,0.992l0.166,0.167v0.33
	l-0.496,30.787l-0.166,2.151l-2.317-0.497c-7.506-1.874-17.986-4.938-31.448-9.186c-13.464-4.248-25.819-7.698-37.075-10.345
	c-11.255-2.649-22.456-4.248-33.6-4.801l-0.166-3.309l85.24-11.421c0.439-0.108,0.771-0.22,0.994-0.331
	C162.536,94.068,163.752,93.904,165.075,93.904z M164.91,139.256c3.973,0,8.275,1.435,12.91,4.304
	c0.551,0.33,1.02,0.745,1.407,1.239c0.385,0.498,0.634,0.856,0.745,1.076l0.165,0.498l0.165,0.164v0.331l-0.661,31.117v2.318
	l-2.484-0.662c-7.505-1.876-17.958-4.965-31.364-9.269c-13.407-4.304-25.712-7.781-36.91-10.428
	c-11.201-2.649-22.373-4.248-33.517-4.802l-0.166-3.475l85.075-11.421c0.331-0.22,0.604-0.387,0.827-0.497
	C162.205,139.42,163.474,139.256,164.91,139.256z M180.634,101.683l-0.331,33.765c-1.104,1.768-3.449,3.422-7.034,4.968
	c-3.587,1.546-8.416,2.925-14.483,4.137c-6.068,1.215-11.862,2.291-17.378,3.228c-5.52,0.939-12.497,1.849-20.938,2.73
	c-8.44,0.884-14.925,1.548-19.448,1.987c-4.525,0.442-10.538,0.992-18.041,1.654c-3.532,0.223-6.069,0.442-7.613,0.662v-33.932
	c0.993-0.108,2.482-0.272,4.469-0.495c11.806-1.325,21.517-2.427,29.131-3.311c7.613-0.882,17.433-2.205,29.462-3.973
	c12.025-1.763,21.653-3.611,28.883-5.544C174.536,105.63,178.979,103.671,180.634,101.683z M180.8,56l-0.497,33.932
	c-0.993,1.654-3.284,3.255-6.869,4.801c-3.586,1.546-8.44,2.925-14.565,4.137c-6.124,1.215-11.945,2.291-17.461,3.228
	c-5.52,0.939-12.497,1.849-20.938,2.73c-8.44,0.887-14.925,1.548-19.448,1.987c-4.525,0.442-10.538,0.993-18.041,1.654
	c-3.532,0.223-6.015,0.442-7.448,0.662V75.2c0.883-0.109,2.372-0.273,4.469-0.495c11.806-1.326,21.489-2.428,29.048-3.312
	c7.558-0.881,17.351-2.204,29.38-3.973c12.025-1.763,21.653-3.611,28.883-5.543C174.536,59.948,179.032,57.988,180.8,56z
	 M180.8,146.868l-0.331,33.931c-1.105,1.656-3.45,3.258-7.035,4.801c-3.586,1.546-8.44,2.95-14.565,4.221
	c-6.124,1.268-11.945,2.344-17.461,3.228c-5.52,0.881-12.472,1.763-20.855,2.649c-8.387,0.881-14.843,1.543-19.366,1.984
	c-4.525,0.439-10.592,0.993-18.206,1.654c-3.421,0.331-5.903,0.551-7.448,0.664v-33.931c0.883-0.108,2.372-0.275,4.469-0.497
	c11.806-1.213,21.489-2.288,29.048-3.228c7.558-0.938,17.38-2.261,29.462-3.973c12.083-1.71,21.709-3.531,28.883-5.461
	C174.563,150.981,179.032,148.967,180.8,146.868z M164.91,142.73c-0.885,0-1.713,0.111-2.483,0.331l-0.496,0.331l-0.331,0.167
	h-0.497l-70.344,9.6c9.047,1.215,18.373,3.119,27.973,5.71c9.6,2.594,19.862,5.602,30.785,9.021
	c10.924,3.42,19.696,6.014,26.317,7.778l0.496-28.468c0-0.223-0.276-0.498-0.827-0.828
	C171.639,143.945,168.108,142.73,164.91,142.73z M165.075,97.379c-0.884,0-1.712,0.111-2.482,0.331l-0.496,0.167l-0.331,0.164
	l-0.496,0.167l-70.345,9.269c9.047,1.215,18.372,3.119,27.972,5.71c9.6,2.594,19.862,5.574,30.785,8.938
	c10.925,3.366,19.697,5.933,26.317,7.695l0.497-28.138c-0.111-0.22-0.388-0.439-0.827-0.661
	C171.805,98.483,168.275,97.271,165.075,97.379z"/>
</svg>
