<?xml version="1.0" encoding="utf-8"?>
<!-- Generator: Adobe Illustrator 16.0.0, SVG Export Plug-In . SVG Version: 6.00 Build 0)  -->
<!DOCTYPE svg PUBLIC "-//W3C//DTD SVG 1.1//EN" "http://www.w3.org/Graphics/SVG/1.1/DTD/svg11.dtd">
<svg version="1.1" id="Layer_1" xmlns="http://www.w3.org/2000/svg" xmlns:xlink="http://www.w3.org/1999/xlink" x="0px" y="0px"
	 width="256px" height="256px" viewBox="0 0 256 256" enable-background="new 0 0 256 256" xml:space="preserve">
<path d="M167.696,115.122V89.899h-25.409V64.49h-25.223v25.409h-25.71V64.49H66.131v25.409H40.723v25.223h25.409v25.711H40.723
	v25.224h25.409v25.409h25.223v-25.409h25.71v25.409h25.223v-25.409h25.409v-25.224h-25.409v-25.711H167.696z M117.06,140.833H91.352
	v-25.711h25.708V140.833z M209.869,149.572h-18.744l-5.408-50.105V64.536h29.561v34.931L209.869,149.572z M200.048,191.51
	c-8.363,0-15.141-6.779-15.141-15.14c0-8.361,6.777-15.14,15.141-15.14c8.361,0,15.139,6.778,15.139,15.14
	C215.187,184.73,208.409,191.51,200.048,191.51z"/>
</svg>
