<?xml version="1.0" encoding="utf-8"?>
<!-- Generator: Adobe Illustrator 16.0.0, SVG Export Plug-In . SVG Version: 6.00 Build 0)  -->
<!DOCTYPE svg PUBLIC "-//W3C//DTD SVG 1.1//EN" "http://www.w3.org/Graphics/SVG/1.1/DTD/svg11.dtd">
<svg version="1.1" id="Layer_1" xmlns="http://www.w3.org/2000/svg" xmlns:xlink="http://www.w3.org/1999/xlink" x="0px" y="0px"
	 width="256px" height="256px" viewBox="0 0 256 256" enable-background="new 0 0 256 256" xml:space="preserve">
<path d="M91.352,115.122h25.708v25.711H91.352V115.122z M242,30v196c0,8.837-7.164,16-16,16H30c-8.837,0-16-7.163-16-16V30
	c0-8.836,7.163-16,16-16h196C234.836,14,242,21.164,242,30z M167.696,89.899h-25.409V64.49h-25.223v25.409h-25.71V64.49H66.131
	v25.409H40.723v25.223h25.409v25.711H40.723v25.224h25.409v25.409h25.223v-25.409h25.71v25.409h25.223v-25.409h25.409v-25.224
	h-25.409v-25.711h25.409V89.899z M215.187,176.37c0-8.361-6.777-15.14-15.139-15.14c-8.363,0-15.141,6.778-15.141,15.14
	c0,8.36,6.777,15.14,15.141,15.14C208.409,191.51,215.187,184.73,215.187,176.37z M215.277,64.536h-29.561v34.931l5.408,50.105
	h18.744l5.408-50.105V64.536z"/>
</svg>
