<?xml version="1.0" encoding="iso-8859-1"?>
<!-- Generator: Adobe Illustrator 16.0.0, SVG Export Plug-In . SVG Version: 6.00 Build 0)  -->
<!DOCTYPE svg PUBLIC "-//W3C//DTD SVG 1.1//EN" "http://www.w3.org/Graphics/SVG/1.1/DTD/svg11.dtd">
<svg version="1.1" id="Layer_1" xmlns="http://www.w3.org/2000/svg" xmlns:xlink="http://www.w3.org/1999/xlink" x="0px" y="0px"
	 width="256px" height="256px" viewBox="0 0 256 256" style="enable-background:new 0 0 256 256;" xml:space="preserve">
<path d="M190.474,185.078c0,0-6.618-11.029-17.647-11.029c-10.662,0-16.912,11.029-38.42,11.029
	C86.611,185.078,64,145.188,64,145.188c43.036,28.359,72.429,8.273,72.429,8.273c-19.414-11.277-60.664-65.076-60.664-65.076
	c35.955,30.582,51.472,38.604,51.472,38.604c-9.29-7.648-35.295-45.037-35.295-45.037c20.808,21.053,62.134,50.369,62.134,50.369
	c11.788-32.404-11.213-61.398-11.213-61.398c56.251,38.236,38.053,80.332,38.053,80.332S196.908,169.27,190.474,185.078z"/>
</svg>
