<?xml version="1.0" encoding="utf-8"?>
<!-- Generator: Adobe Illustrator 16.0.0, SVG Export Plug-In . SVG Version: 6.00 Build 0)  -->
<!DOCTYPE svg PUBLIC "-//W3C//DTD SVG 1.1//EN" "http://www.w3.org/Graphics/SVG/1.1/DTD/svg11.dtd">
<svg version="1.1" id="Layer_1" xmlns="http://www.w3.org/2000/svg" xmlns:xlink="http://www.w3.org/1999/xlink" x="0px" y="0px"
	 width="400px" height="564.312px" viewBox="0 0 400 564.312" enable-background="new 0 0 400 564.312" xml:space="preserve">
<g>
	<g>
		<polygon points="142,26 142,0 80,0 80,76 142,76 142,50 106,50 106,26 		"/>
		<polygon points="230,0 168,0 168,26.688 193.871,50 168,50 168,76 230,76 230,50.688 206.48,26 230,26 		"/>
		<polygon points="320,0 258,0 258,26.688 282.871,50 258,50 258,76 320,76 320,50.688 295.48,26 320,26 		"/>
	</g>
	<polygon fill="#0071BC" points="36.402,518.965 0,110.688 400,110.688 363.559,518.898 199.758,564.312 	"/>
	<polygon fill="#29ABE2" points="200.336,529.578 332.531,493.211 363.504,144.688 200.336,144.688 	"/>
	<polygon fill="#B3B3B3" points="83.324,294.688 87.709,344.688 200.336,294.688 200.336,244.607 	"/>
	<polygon fill="#E6E6E6" points="325.074,191.148 200.336,244.607 200.336,294.688 320.773,241.148 	"/>
	<polygon fill="#E6E6E6" points="200.336,425.512 199.949,425.57 144.094,410.57 140.445,370.688 90.176,370.688 97.191,449.258 
		199.938,477.707 200.336,477.613 	"/>
	<polygon fill="#FFFFFF" points="200.336,294.688 200.336,344.688 261.488,344.688 255.93,410.059 200.336,425.555 200.336,477.652 
		302.742,449.203 316.227,294.688 	"/>
	<polygon fill="#E6E6E6" points="200.336,294.688 83.324,294.688 87.709,344.688 200.336,344.688 	"/>
	<polygon fill="#E6E6E6" points="200.336,241.148 200.336,191.148 199.828,191.148 74.434,191.148 78.871,241.148 	"/>
	<polygon fill="#FFFFFF" points="200.336,191.148 200.336,240.521 200.336,241.148 320.773,241.148 325.074,191.148 	"/>
</g>
</svg>
