<?xml version="1.0" encoding="utf-8"?>
<!-- Generator: Adobe Illustrator 16.0.0, SVG Export Plug-In . SVG Version: 6.00 Build 0)  -->
<!DOCTYPE svg PUBLIC "-//W3C//DTD SVG 1.1//EN" "http://www.w3.org/Graphics/SVG/1.1/DTD/svg11.dtd">
<svg version="1.1" id="Layer_1" xmlns="http://www.w3.org/2000/svg" xmlns:xlink="http://www.w3.org/1999/xlink" x="0px" y="0px"
	 width="372.464px" height="636.231px" viewBox="0 0 372.464 636.231" enable-background="new 0 0 372.464 636.231"
	 xml:space="preserve">
<path fill="#E92E2F" stroke="#E92E2F" stroke-width="0.0938" stroke-miterlimit="10" d="M214.576,22.534
	c9.398,10.7,12.5,26,9.799,39.8c-2.9,15.5-11.5,29.2-21.6,41c-8.1,9.5-17.4,17.9-27.1,25.7c-11.3,9.1-22.4,18.9-29.5,31.7
	c-6,10.4-7.4,23.2-3.3,34.5c6.7,19.4,22.3,33.8,30.8,52.1c-9.4-8.3-18.6-16.9-27.2-26c-9-9.6-17.5-19.8-23.1-31.8
	c-3.8-8.4-5.5-18.2-2.6-27.1c2.9-9.1,9.4-16.4,15.9-23.2c18.1-18.1,40.401-31.4,58.1-49.8c9.801-10.1,17.9-22.2,20.699-36.1
	C217.775,43.134,216.676,32.634,214.576,22.534L214.576,22.534z"/>
<path fill="#E92E2F" stroke="#E92E2F" stroke-width="0.0938" stroke-miterlimit="10" d="M199.775,136.434
	c19.4-14.3,42.1-23.4,65.1-30c-18.199,11.6-37.199,22.2-52.9,37.1c-5.699,5.5-11.1,11.8-13.6,19.5c-1.9,5.7-1.1,12,1.201,17.4
	c4.199,9.6,11.299,17.4,16.699,26.2c4.6,7.5,5.4,17.1,1.9,25.2c-5.301,11.9-15.701,20.6-26.5,27.5c-1.4,0.8-2.6,2.3-4.301,2.5
	c7.201-6.5,12.801-15.7,12.6-25.6c-0.199-7.4-4.299-13.9-9.1-19.2c-9.9-11.8-18.2-26.8-16.5-42.7
	C176.076,158.434,187.475,145.634,199.775,136.434L199.775,136.434z"/>
<path fill="#0774BB" stroke="#0774BB" stroke-width="0.0938" stroke-miterlimit="10" d="M268.576,252.034
	c4.199-5.1,10.898-6.4,17-7.2c10.6-1.4,21.898,1.3,29.898,8.6c6.602,5.9,10.301,15.1,8.9,24c-1.5,10.3-8.4,18.9-16.199,25.4
	c-14.1,11.3-31.5,17.9-48.9,22.301c1-1.102,2.1-2.102,3.4-2.9c13.199-7.101,26.299-15.4,36-27c5.9-7.2,10.5-16.6,8.6-26.1
	c-2-11-12.699-19-23.6-19.6C278.475,249.034,273.576,251.034,268.576,252.034L268.576,252.034z"/>
<path fill="#0774BB" stroke="#0774BB" stroke-width="0.0938" stroke-miterlimit="10" d="M67.575,261.134c18.4-7.9,38.4-13,58.5-12.7
	c-11.7,3.4-23.7,6.3-34.7,11.5c-2.6,1.4-5.6,2.7-7.1,5.4c-0.8,2.1,1.4,3.5,3,4.2c6.8,2.8,14.3,3.2,21.6,3.9
	c25.6,1.7,51.3,0.7,76.8-0.9c25.199-1.6,50.199-5,75.1-9c-5.5,2.6-11.1,5.2-16.199,8.5c-2.602,1.8-5.801,2.3-8.701,3
	c-30.6,6.8-62,8.9-93.2,9.4c-12.1,0.1-24.1-0.1-36.1-0.9c-13.4-0.9-26.9-1.9-40-5.4c-3.8-1.1-7.8-2.3-10.8-5c-1.5-1.2-1.5-3.6-0.2-5
	C58.875,264.734,63.475,263.134,67.575,261.134L67.575,261.134z"/>
<path fill="#0774BB" stroke="#0774BB" stroke-width="0.0938" stroke-miterlimit="10" d="M91.175,303.834c5.2-4.1,11.4-6.4,17.6-8.6
	c-2,2.4-4.8,4.7-5,8c-0.1,2.1,1.6,3.7,3.3,4.7c3.3,1.7,7,2.3,10.7,2.8c19.2,2,38.6,3.1,58,1.8c17.699-0.9,35.301-3.8,52.801-6.9
	c4.799,4.5,10.5,7.6,16.5,10.3c-21.102,6.2-42.801,9.8-64.602,11.5c-20.599,1.4-41.5,1.301-62-2c-8.1-1.5-16.4-3.199-23.8-7
	c-3-1.6-6.4-3.7-7.3-7.2C86.775,308.234,88.975,305.534,91.175,303.834L91.175,303.834z"/>
<path fill="#0774BB" stroke="#0774BB" stroke-width="0.0938" stroke-miterlimit="10" d="M102.775,347.434
	c4.6-3.699,10.3-5.6,15.9-7.199c-1.8,1.699-5,3.799-3.6,6.699c2.7,3.5,7.7,3.9,11.7,4.801c16.9,2.1,34,3.5,50.9,2.199
	c12.799-0.799,25.4-3.1,37.9-5.299c7.199,4.199,14.699,7.799,22.398,11c-11.799,5.299-24.5,8.699-37.199,11.1
	c-21.4,3.799-43.5,4.299-65,0.9c-9.5-1.701-19.2-3.9-27.8-8.602c-3.3-1.898-6.8-4.1-8.2-7.799
	C98.675,352.334,100.475,349.234,102.775,347.434L102.775,347.434z"/>
<path fill="#0774BB" stroke="#0774BB" stroke-width="0.0938" stroke-miterlimit="10" d="M47.275,375.734c9.2-3.1,18.7-5.6,28.4-5.9
	c3.9-0.1,7.9,0.1,11.3,2.1c-11.6,0.701-23.2,3.6-33.6,8.9c-2.3,1.301-4.9,2.801-5.8,5.5c0,3.1,3.5,4.1,5.8,5.1
	c14.5,5.4,30,7.1,45.2,8.701c45.3,3.799,90.899,2.799,136.2-1.301c17.1-1.9,34.301-3.801,50.9-8.5
	c5.299-1.801,11.299-3.6,14.799-8.301c2.102-2.799,0.701-6.299-1.398-8.699c3.398,1.9,8.199,4.301,7.5,8.9
	c-1.301,4.799-6.201,7.299-10.201,9.6c-12.799,6.5-26.9,9.801-40.9,12.699c-40.699,8-82.399,9.801-123.799,8.602
	c-31.2-1.102-62.4-4.102-93.2-9.4c-5.5-1.301-11.7-2.4-15.7-6.701c-2.6-3-0.3-7.199,2.2-9.398
	C31.275,381.834,39.375,378.635,47.275,375.734L47.275,375.734z"/>
<path fill="#0774BB" stroke="#0774BB" stroke-width="0.0938" stroke-miterlimit="10" d="M296.475,409.934
	c10.102-3.5,20.9-7.199,28.4-15.199c-1.299,8.699-8.799,14.699-16.199,18.6c-14.201,7.4-30.1,10.801-45.9,13.6
	c-33.4,5.301-67.301,6.6-101.2,6c-23.1-0.699-46.4-1.6-69.1-6.4c-5.4-1.5-11.2-2.5-15.9-5.699c20.2,3.4,40.7,4.801,61.2,5.6
	c33.7,1,67.5-0.299,101-4.5C258.176,419.234,277.676,415.934,296.475,409.934L296.475,409.934z"/>
<path fill="#E92E2F" stroke="#E92E2F" stroke-width="0.0938" stroke-miterlimit="10" d="M32.975,558.234
	c0.1-32.801-0.1-65.6,0.1-98.5c6.8,0.199,13.6,0,20.4,0.199c-0.1,36.701,0,73.5-0.1,110.301c-0.2,10.299-0.4,21.1-5.4,30.299
	c-5.5,9.801-15.3,16.701-25.7,20.701c-3.3-3.6-6.3-7.4-9.6-11l0,0c8.4-4.9,16.8-11.9,18.8-22
	C33.375,578.334,32.775,568.234,32.975,558.234L32.975,558.234z"/>
<path fill="#E92E2F" stroke="#E92E2F" stroke-width="0.0938" stroke-miterlimit="10" d="M72.375,499.234
	c13.5-5.801,28.5-8.801,43.2-7.201c7.6,0.9,15.5,3.701,20.4,9.801c4.1,5.199,5.6,11.9,5.5,18.4c0,22.4,0,44.699,0,67.1
	c-5,0-10,0-15.1,0c-0.5-3.301-1-6.699-1.4-10.1c-5.7,4.5-11.8,8.799-18.9,10.6c-8.1,2.1-17,1.9-24.9-1.199
	c-6.1-2.5-10.9-8-12.6-14.4c-2.5-9.301-1.2-20.201,5.4-27.701c5.9-6.898,14.8-10.299,23.6-11.898c8.1-1.602,16.4-1.602,24.7-1.602
	c-0.2-6.299,1-13.199-2.6-18.799c-2.9-4.301-8.2-6-13.1-6.301c-10.7-0.9-21.3,1.801-31.4,5.301
	C74.175,507.234,73.275,503.234,72.375,499.234 M97.175,545.635c-4.4,1.398-8.5,4.6-9.7,9.199c-1.4,5.1-1,11.1,2.3,15.4
	c3.2,4.199,9,5.199,14,4.6c7-0.801,13.1-4.801,18.5-9.1c0-7.5-0.1-14.9,0-22.4C113.875,543.334,105.275,542.834,97.175,545.635
	L97.175,545.635z"/>
<path fill="#E92E2F" stroke="#E92E2F" stroke-width="0.0938" stroke-miterlimit="10" d="M248.176,499.234
	c13.6-5.801,28.6-8.9,43.4-7.201c7.398,0.9,15,3.602,19.898,9.4c4.602,5.5,6,12.801,5.9,19.801c-0.1,22.1,0.1,44.1-0.199,66.199
	c-5-0.199-10,0.1-15-0.199c-0.5-3.4-0.9-6.701-1.5-10c-7,6-15.4,10.9-24.9,11.699c-8.699,0.801-18.5-0.299-25.301-6.5
	c-7.1-6.6-8.299-17.299-6.5-26.4c1.701-8.398,8-15.299,15.602-19c11.898-5.799,25.5-6.1,38.5-6c-0.201-6.1,0.898-12.6-2.201-18.1
	c-2.4-4.4-7.5-6.4-12.299-6.9c-11.102-1.199-22.201,1.602-32.602,5.201C250.076,507.234,249.076,503.234,248.176,499.234
	 M272.676,545.734c-4.201,1.4-8.1,4.6-9.4,9c-1.4,5.1-1,11.1,2.199,15.5c3.301,4.299,9.201,5.199,14.301,4.6
	c6.9-1,13.199-4.801,18.4-9.4c-0.201-7.299-0.1-14.699-0.1-22.1C289.576,543.334,280.875,542.834,272.676,545.734L272.676,545.734z"
	/>
<path fill="#E92E2F" stroke="#E92E2F" stroke-width="0.0938" stroke-miterlimit="10" d="M152.875,493.234c7,0,14,0,21,0
	c4.099,13.199,8.099,26.299,12.201,39.5c2.398,8.1,5.398,16.1,7.1,24.4c0.9,3.699,1.699,7.5,2.799,11.1
	c8.602-24.301,15.201-49.4,18.602-75c6.799,0,13.6,0,20.398,0c-5.898,32.4-15.199,64.299-29.199,94.1c-8,0-16,0-24,0
	C172.175,555.934,162.475,524.635,152.875,493.234L152.875,493.234z"/>
<g>
	<path fill="#E92E2F" stroke="#E92E2F" stroke-width="0.0938" stroke-miterlimit="10" d="M321.365,491.417h-2.458v-0.888h5.984
		v0.888h-2.471v7.196h-1.056V491.417z"/>
	<path fill="#E92E2F" stroke="#E92E2F" stroke-width="0.0938" stroke-miterlimit="10" d="M332.606,495.063
		c-0.06-1.128-0.132-2.495-0.132-3.49h-0.024c-0.287,0.936-0.611,1.955-1.019,3.07l-1.428,3.922h-0.791l-1.319-3.85
		c-0.384-1.151-0.696-2.184-0.924-3.143h-0.024c-0.023,1.008-0.084,2.351-0.155,3.574l-0.216,3.466h-0.996l0.564-8.084h1.331
		l1.379,3.91c0.336,0.995,0.6,1.883,0.815,2.723h0.024c0.216-0.815,0.504-1.703,0.863-2.723l1.439-3.91h1.331l0.504,8.084h-1.031
		L332.606,495.063z"/>
</g>
</svg>
