<?xml version="1.0" encoding="utf-8"?>
<!-- Generator: Adobe Illustrator 16.0.0, SVG Export Plug-In . SVG Version: 6.00 Build 0)  -->
<!DOCTYPE svg PUBLIC "-//W3C//DTD SVG 1.1//EN" "http://www.w3.org/Graphics/SVG/1.1/DTD/svg11.dtd">
<svg version="1.1" id="Layer_1" xmlns="http://www.w3.org/2000/svg" xmlns:xlink="http://www.w3.org/1999/xlink" x="0px" y="0px"
	 width="612px" height="792px" viewBox="0 0 612 792" enable-background="new 0 0 612 792" xml:space="preserve">
<path fill-rule="evenodd" clip-rule="evenodd" d="M305.905,90.192c168.946,0,305.903,136.958,305.903,305.905
	S474.851,702,305.905,702C136.958,702,0,565.043,0,396.097S136.958,90.192,305.905,90.192"/>
<path fill="#FFFFFF" d="M497.788,221.123c-13.853-54.33-103.938-72.189-189.197-41.9c-50.739,18.028-105.669,46.32-145.165,83.262
	c-46.96,43.924-54.449,82.154-51.362,98.128c10.888,56.367,88.121,93.21,119.87,120.546v0.165
	c-9.362,4.608-77.883,39.285-93.919,74.737c-16.92,37.4,2.694,64.238,15.678,67.852c40.233,11.192,81.518-8.94,103.705-42.035
	c21.411-31.937,19.628-73.178,10.324-93.692c12.835-3.386,27.799-4.903,46.815-2.682c53.661,6.268,64.19,39.774,62.177,53.793
	c-2.012,14.024-13.268,21.734-17.03,24.062c-3.765,2.328-4.912,3.134-4.595,4.864c0.455,2.517,2.197,2.423,5.406,1.879
	c4.417-0.744,28.178-11.406,29.193-37.29c1.294-32.863-30.2-69.625-85.963-68.665c-22.965,0.396-37.406,2.581-47.837,6.463
	c-0.771-0.879-1.556-1.753-2.368-2.618c-34.475-36.78-98.205-62.799-95.502-112.246c0.983-17.976,7.231-65.312,122.458-122.728
	c94.391-47.035,169.954-34.092,183.014-5.407c18.653,40.98-40.385,117.148-138.41,128.134
	c-37.347,4.187-57.012-10.288-61.903-15.678c-5.15-5.675-5.917-5.931-7.84-4.866c-3.133,1.735-1.148,6.745,0,9.732
	c2.926,7.616,14.937,21.124,35.413,27.842c18.011,5.912,61.861,9.159,114.891-11.353C465.032,338.45,511.41,274.542,497.788,221.123
	 M245.111,497.994c4.451,16.463,3.962,31.815-0.634,45.719c-0.511,1.544-1.074,3.071-1.684,4.581
	c-0.611,1.507-1.272,2.998-1.98,4.469c-3.545,7.356-8.303,14.241-14.13,20.597c-17.773,19.391-42.606,26.723-53.254,20.544
	c-11.499-6.664-5.739-34.003,14.868-55.785c22.169-23.437,54.066-38.504,54.066-38.504l-0.049-0.096
	C243.232,499.024,244.166,498.516,245.111,497.994z"/>
</svg>
