<?xml version="1.0" encoding="utf-8"?>
<!-- Generator: Adobe Illustrator 16.0.0, SVG Export Plug-In . SVG Version: 6.00 Build 0)  -->
<!DOCTYPE svg PUBLIC "-//W3C//DTD SVG 1.1//EN" "http://www.w3.org/Graphics/SVG/1.1/DTD/svg11.dtd">
<svg version="1.1" id="Layer_1" xmlns="http://www.w3.org/2000/svg" xmlns:xlink="http://www.w3.org/1999/xlink" x="0px" y="0px"
	 width="612px" height="792px" viewBox="0 0 612 792" enable-background="new 0 0 612 792" xml:space="preserve">
<path d="M526.473,430.504c-21.381,0.113-39.899,5.246-55.423,12.897c-5.678-11.331-11.423-21.3-12.389-28.712
	c-1.126-8.653-2.432-13.814-1.071-24.123c1.361-10.308,7.324-24.904,7.237-25.998c-0.087-1.094-1.338-6.345-13.669-6.434
	c-12.333-0.088-22.882,2.372-24.123,5.628c-1.242,3.257-3.616,10.585-5.094,18.226c-2.16,11.183-24.622,51.063-37.375,71.927
	c-4.172-8.143-7.719-15.322-8.458-21c-1.126-8.653-2.432-13.815-1.072-24.124c1.361-10.307,7.325-24.906,7.238-25.999
	s-1.337-6.343-13.67-6.433c-12.332-0.088-22.882,2.372-24.122,5.628c-1.242,3.257-2.567,10.865-5.094,18.226
	c-2.526,7.362-32.385,73.888-40.205,91.131c-3.984,8.786-7.452,15.844-9.9,20.665c-0.006-0.012-0.015-0.026-0.015-0.026
	s-0.151,0.32-0.411,0.862c-2.095,4.103-3.343,6.373-3.343,6.373s0.014,0.031,0.037,0.085c-1.662,3.013-3.443,5.812-4.326,5.812
	c-0.616,0-1.85-8.021,0.27-19.029c4.442-23.078,15.116-59.067,15.009-60.307c-0.056-0.636,1.983-6.906-6.97-10.186
	c-8.703-3.186-11.802,2.128-12.596,2.145c-0.77,0.017-1.341,1.877-1.341,1.877s9.696-40.473-18.494-40.473
	c-17.624,0-42.045,19.279-54.075,36.755c-7.592,4.141-23.838,13.01-41.074,22.479c-6.621,3.637-13.376,7.354-19.782,10.884
	c-0.436-0.482-0.87-0.966-1.318-1.444c-34.182-36.469-97.371-62.263-94.69-111.291c0.975-17.824,7.171-64.756,121.418-121.686
	c93.587-46.635,168.508-33.802,181.456-5.36c18.496,40.632-40.042,116.151-137.232,127.046c-37.03,4.151-56.528-10.2-61.378-15.546
	c-5.105-5.626-5.867-5.88-7.773-4.825c-3.105,1.721-1.137,6.688,0,9.649c2.902,7.553,14.81,20.946,35.112,27.607
	c17.859,5.861,61.336,9.081,113.912-11.257c58.888-22.778,104.872-86.142,91.365-139.107
	c-13.735-53.869-103.053-71.578-187.586-41.545c-50.31,17.873-104.772,45.926-143.932,82.553
	C4.965,307.608-2.459,345.513,0.6,361.352c10.871,56.276,88.438,92.924,119.499,120.084c-1.533,0.846-2.971,1.64-4.278,2.36
	c-15.572,7.704-74.7,38.646-89.489,71.341c-16.775,37.085,2.671,63.692,15.545,67.275c39.891,11.1,80.824-8.865,102.823-41.678
	c21.994-32.805,19.309-75.52,9.214-95.018c-0.125-0.242-0.264-0.479-0.392-0.719c4.021-2.38,8.121-4.8,12.185-7.187
	c7.926-4.653,15.706-8.996,22.458-12.67c-3.777,10.352-6.544,22.759-7.984,40.678c-1.691,21.052,6.937,48.262,18.226,58.968
	c4.971,4.713,10.951,4.823,14.742,4.823c13.137,0,19.132-10.929,25.731-23.854c8.095-15.853,15.277-34.308,15.277-34.308
	s-9.015,49.854,15.547,49.854c8.949,0,17.951-11.604,21.96-17.521c0.011,0.064,0.017,0.1,0.017,0.1s0.233-0.386,0.689-1.158
	c0.929-1.421,1.455-2.325,1.455-2.325s0.018-0.094,0.047-0.257c3.597-6.246,11.576-20.486,23.541-43.97
	c15.459-30.34,30.286-68.347,30.286-68.347s1.38,9.292,5.896,24.658c2.658,9.042,8.305,19.036,12.76,28.62
	c-3.586,4.976-5.791,7.833-5.791,7.833s0.021,0.053,0.061,0.148c-2.865,3.804-6.078,7.909-9.44,11.912
	c-12.2,14.531-26.733,31.126-28.68,35.916c-2.292,5.643-1.75,9.794,2.681,13.133c3.236,2.439,8.997,2.818,15.009,2.412
	c10.965-0.736,18.68-3.456,22.485-5.112c5.934-2.099,12.844-5.398,19.329-10.165c11.968-8.799,19.188-21.387,18.493-38.061
	c-0.384-9.188-3.314-18.296-7.021-26.894c1.086-1.562,2.175-3.138,3.268-4.733c18.868-27.584,33.503-57.895,33.503-57.895
	s1.38,9.292,5.898,24.659c2.286,7.778,6.797,16.263,10.853,24.585c-17.741,14.415-28.744,31.165-32.564,42.154
	c-7.063,20.322-1.531,29.531,8.847,31.627c4.7,0.95,11.339-1.204,16.333-3.317c6.214-2.061,13.681-5.492,20.654-10.619
	c11.969-8.799,23.477-21.12,22.783-37.793c-0.317-7.591-2.376-15.125-5.169-22.362c15.039-6.265,34.51-9.747,59.311-6.852
	c53.204,6.213,63.642,39.433,61.646,53.337s-13.155,21.547-16.887,23.855c-3.73,2.308-4.869,3.107-4.556,4.824
	c0.454,2.495,2.179,2.399,5.359,1.863c4.381-0.739,27.939-11.31,28.947-36.975C612.987,466,581.77,430.21,526.473,430.504
	 M116.377,568.761c-17.623,19.226-42.244,26.491-52.802,20.371c-11.4-6.61-6.885-34.914,14.742-55.315
	c13.182-12.434,30.198-23.885,41.487-30.938c2.568-1.546,6.343-3.816,10.93-6.564c0.761-0.434,1.189-0.674,1.189-0.674l-0.017-0.029
	c0.885-0.529,1.792-1.073,2.729-1.632C142.504,523.017,134.875,548.582,116.377,568.761z M244.763,481.481
	c-6.138,14.964-18.984,53.246-26.803,51.194c-6.711-1.761-10.799-30.862-1.34-59.502c4.761-14.417,14.931-31.644,20.906-38.33
	c9.619-10.759,20.209-14.277,22.782-9.916C263.589,430.486,248.612,472.102,244.763,481.481z M350.834,532.092
	c-2.603,1.361-4.988,2.217-6.097,1.557c-0.813-0.485,1.073-2.278,1.073-2.278s13.269-14.272,18.494-20.772
	c3.039-3.778,6.563-8.265,10.404-13.282c0.031,0.501,0.048,0.998,0.048,1.489C374.718,515.905,358.2,527.45,350.834,532.092z
	 M432.547,513.465c-1.941-1.382-1.618-5.847,4.766-19.753c2.506-5.46,8.224-14.652,18.164-23.437
	c1.151,3.613,1.854,7.077,1.834,10.303C457.182,502.094,441.83,510.129,432.547,513.465z"/>
</svg>
