<?xml version="1.0" encoding="utf-8"?>
<!-- Generator: Adobe Illustrator 16.0.0, SVG Export Plug-In . SVG Version: 6.00 Build 0)  -->
<!DOCTYPE svg PUBLIC "-//W3C//DTD SVG 1.1//EN" "http://www.w3.org/Graphics/SVG/1.1/DTD/svg11.dtd">
<svg version="1.1" id="Layer_1" xmlns="http://www.w3.org/2000/svg" xmlns:xlink="http://www.w3.org/1999/xlink" x="0px" y="0px"
	 width="1280px" height="720px" viewBox="0 0 1280 720" enable-background="new 0 0 1280 720" xml:space="preserve">
<path id="Background" fill="#333333" d="M1280,710c0,5.521-4.479,10-10,10H10c-5.523,0-10-4.479-10-10V10C0,4.477,4.477,0,10,0h1260
	c5.521,0,10,4.477,10,10V710z"/>
<path fill="#FFFFFF" d="M143.239,431.922c2.121,0,3.907,0.728,5.361,2.18c1.453,1.454,2.18,3.24,2.18,5.361v92.376
	c0,2.121-0.727,3.909-2.18,5.361c-1.454,1.453-3.24,2.18-5.361,2.18H50.862c-2.121,0-3.908-0.727-5.361-2.18
	c-1.455-1.452-2.18-3.24-2.18-5.361v-92.376c0-2.121,0.726-3.907,2.18-5.361c1.453-1.452,3.24-2.18,5.361-2.18H143.239z
	 M116.492,472.572v-10.841c-1.729-0.549-3.614-0.98-5.656-1.297c-2.043-0.312-4.282-0.471-6.716-0.471
	c-3.929,0-7.482,0.609-10.664,1.826c-3.181,1.219-5.991,3.084-8.425,5.597c-2.436,2.437-4.282,5.265-5.538,8.483
	c-1.258,3.222-1.885,6.834-1.885,10.84c0,3.771,0.548,7.149,1.649,10.134c1.099,2.986,2.749,5.578,4.949,7.776
	c2.198,2.279,4.791,3.968,7.777,5.065c2.984,1.103,6.401,1.649,10.251,1.649c2.905,0,5.538-0.215,7.894-0.647
	c2.357-0.431,4.478-1.078,6.363-1.943v-10.251c-1.885,1.101-3.811,1.905-5.773,2.415c-1.964,0.512-4.047,0.767-6.245,0.767
	c-2.279,0-4.341-0.354-6.186-1.061c-1.847-0.707-3.438-1.769-4.772-3.183c-1.337-1.414-2.338-3.082-3.005-5.008
	c-0.668-1.924-1.001-4.104-1.001-6.539c0-2.514,0.354-4.752,1.061-6.717c0.707-1.962,1.768-3.69,3.181-5.184
	c1.414-1.491,3.063-2.594,4.949-3.301c1.886-0.707,4.006-1.061,6.363-1.061c2.121,0,4.124,0.236,6.009,0.707
	C112.957,470.805,114.763,471.552,116.492,472.572z"/>
<path fill="#FFFFFF" d="M263.894,431.922c2.121,0,3.907,0.728,5.361,2.18c1.453,1.454,2.18,3.24,2.18,5.361v92.376
	c0,2.121-0.727,3.909-2.18,5.361c-1.454,1.453-3.24,2.18-5.361,2.18h-92.377c-2.121,0-3.908-0.727-5.361-2.18
	c-1.455-1.452-2.18-3.24-2.18-5.361v-92.376c0-2.121,0.726-3.907,2.18-5.361c1.453-1.452,3.24-2.18,5.361-2.18H263.894z
	 M211.225,474.104v-9.426c-1.493-0.549-3.143-0.961-4.949-1.236c-1.808-0.274-3.771-0.412-5.892-0.412
	c-3.458,0-6.58,0.55-9.367,1.648c-2.789,1.102-5.284,2.71-7.482,4.831c-2.121,2.2-3.732,4.713-4.831,7.541
	c-1.101,2.827-1.649,6.009-1.649,9.544c0,3.299,0.49,6.266,1.473,8.896c0.981,2.633,2.416,4.931,4.301,6.894
	c1.962,1.964,4.26,3.438,6.893,4.418c2.631,0.983,5.635,1.474,9.014,1.474c2.513,0,4.811-0.195,6.893-0.59
	c2.08-0.393,3.947-0.98,5.597-1.768v-8.955c-1.649,0.943-3.34,1.65-5.067,2.121c-1.729,0.472-3.575,0.707-5.538,0.707
	c-2.043,0-3.85-0.312-5.42-0.942c-1.572-0.628-2.946-1.569-4.124-2.827c-1.257-1.257-2.18-2.729-2.769-4.418
	s-0.884-3.595-0.884-5.716c0-2.197,0.313-4.183,0.943-5.949c0.627-1.769,1.57-3.279,2.828-4.537
	c1.256-1.334,2.729-2.315,4.418-2.945c1.688-0.628,3.553-0.942,5.597-0.942c1.885,0,3.653,0.218,5.302,0.647
	C208.162,472.592,209.732,473.24,211.225,474.104z M235.026,488.832v-6.48h-6.599v-6.599h-6.598v6.599h-6.48v6.48h6.48v6.717h6.598
	v-6.717H235.026z M258.356,488.832v-6.48h-6.716v-6.599h-6.48v6.599h-6.598v6.48h6.598v6.717h6.48v-6.717H258.356z"/>
<path fill="#FFFFFF" d="M384.549,431.922c2.121,0,3.907,0.728,5.361,2.18c1.453,1.454,2.18,3.24,2.18,5.361v92.376
	c0,2.121-0.727,3.909-2.18,5.361c-1.454,1.453-3.24,2.18-5.361,2.18h-92.376c-2.121,0-3.908-0.727-5.361-2.18
	c-1.455-1.452-2.18-3.24-2.18-5.361v-92.376c0-2.121,0.726-3.907,2.18-5.361c1.453-1.452,3.24-2.18,5.361-2.18H384.549z
	 M336.122,474.457v-9.426c-1.414-0.473-3.025-0.844-4.831-1.119c-1.808-0.274-3.731-0.413-5.773-0.413
	c-3.458,0-6.579,0.53-9.366,1.591c-2.789,1.062-5.243,2.691-7.364,4.891c-2.121,2.12-3.711,4.596-4.772,7.424
	c-1.061,2.827-1.591,5.97-1.591,9.426c0,3.222,0.471,6.127,1.414,8.72c0.942,2.592,2.356,4.871,4.242,6.834
	c1.885,1.964,4.143,3.438,6.775,4.418c2.631,0.983,5.597,1.474,8.896,1.474c2.592,0,4.909-0.195,6.952-0.589
	c2.042-0.394,3.848-0.942,5.42-1.649v-8.955c-1.572,0.942-3.222,1.631-4.949,2.062c-1.729,0.434-3.535,0.647-5.42,0.647
	c-2.044,0-3.85-0.295-5.42-0.884c-1.572-0.589-2.945-1.512-4.124-2.77c-1.179-1.256-2.062-2.729-2.651-4.419
	c-0.589-1.688-0.884-3.553-0.884-5.597c0-2.198,0.313-4.162,0.943-5.892c0.627-1.728,1.569-3.221,2.828-4.479
	c1.178-1.334,2.592-2.314,4.241-2.944c1.65-0.629,3.495-0.942,5.538-0.942c1.886,0,3.653,0.217,5.303,0.646
	C333.176,472.945,334.708,473.594,336.122,474.457z M374.298,475.989v-6.48h-6.479v-6.479h-6.48v6.479h-6.479v-6.479h-6.48v6.479
	h-6.479v6.48h6.479v6.598h-6.479v6.48h6.479v6.48h6.48v-6.48h6.479v6.48h6.48v-6.48h6.479v-6.48h-6.479v-6.598H374.298z
	 M354.856,475.989v6.598h6.479v-6.598H354.856z"/>
<path fill="#FFFFFF" d="M505.204,431.922c2.121,0,3.907,0.728,5.361,2.18c1.452,1.454,2.18,3.24,2.18,5.361v92.376
	c0,2.121-0.728,3.909-2.18,5.361c-1.454,1.453-3.24,2.18-5.361,2.18h-92.376c-2.121,0-3.909-0.727-5.361-2.18
	c-1.455-1.452-2.18-3.24-2.18-5.361v-92.376c0-2.121,0.725-3.907,2.18-5.361c1.452-1.452,3.24-2.18,5.361-2.18H505.204z
	 M442.638,482.233v-7.306h-17.556v21.444h17.556v-7.306h-10.251v-6.834L442.638,482.233L442.638,482.233z M467.5,482.233v-7.306
	h-17.557v7.541l7.306,6.599h-7.306v7.306H467.5v-7.188l-6.599-6.951H467.5z M492.95,482.233v-7.306h-17.557v7.541l7.069,6.599
	h-7.069v7.306h17.557v-7.188l-6.951-6.951H492.95z"/>
<path fill="#FFFFFF" d="M625.859,431.922c2.121,0,3.906,0.728,5.36,2.18c1.453,1.454,2.181,3.24,2.181,5.361v92.376
	c0,2.121-0.728,3.909-2.181,5.361c-1.454,1.453-3.239,2.18-5.36,2.18h-92.376c-2.121,0-3.909-0.727-5.361-2.18
	c-1.455-1.452-2.18-3.24-2.18-5.361v-92.376c0-2.121,0.725-3.907,2.18-5.361c1.452-1.452,3.24-2.18,5.361-2.18H625.859z
	 M604.297,514.872l5.538-61.624h-60.327l5.538,61.624l24.625,6.834L604.297,514.872z M561.408,472.926l-0.707-7.541h37.822
	l-0.59,7.541l-18.264,8.13h17.558l-2.003,23.212l-15.555,4.359l-15.553-4.359l-1.061-11.782h7.658l0.472,6.01l8.482,2.238
	l8.484-2.356l0.824-9.779h-26.275l-0.589-7.541l18.853-8.13h-1.297L561.408,472.926L561.408,472.926z"/>
<path fill="#FFFFFF" d="M746.515,431.922c2.121,0,3.907,0.728,5.361,2.18c1.453,1.454,2.18,3.24,2.18,5.361v92.376
	c0,2.121-0.727,3.909-2.18,5.361c-1.454,1.453-3.24,2.18-5.361,2.18h-92.376c-2.121,0-3.908-0.727-5.36-2.18
	c-1.455-1.452-2.181-3.24-2.181-5.361v-92.376c0-2.121,0.726-3.907,2.181-5.361c1.452-1.452,3.239-2.18,5.36-2.18H746.515z
	 M657.556,515.814h15.081l20.149-30.164l-20.149-30.163h-15.081l20.148,30.163L657.556,515.814z M717.883,515.814h15.082
	l-40.179-60.327h-15.082l20.147,30.163l-20.147,30.164h15.082l12.606-18.854L717.883,515.814z M743.098,483.177v-10.134h-33.58
	l6.717,10.134H743.098z M743.098,498.259v-10.134h-23.564l6.717,10.134H743.098z"/>
<path fill="#FFFFFF" d="M867.17,431.922c2.121,0,3.907,0.728,5.361,2.18c1.453,1.454,2.18,3.24,2.18,5.361v92.376
	c0,2.121-0.727,3.909-2.18,5.361c-1.454,1.453-3.24,2.18-5.361,2.18h-92.376c-2.121,0-3.909-0.727-5.361-2.18
	c-1.455-1.452-2.18-3.24-2.18-5.361v-92.376c0-2.121,0.725-3.907,2.18-5.361c1.452-1.452,3.24-2.18,5.361-2.18H867.17z
	 M806.96,471.865v-10.604l-27.1,22.033v6.363l27.1,19.44v-10.604l-18.734-12.49L806.96,471.865z M817.329,518.171l14.964-65.04
	h-7.541l-14.964,65.04H817.329z M862.104,489.657v-6.363l-27.101-22.033v10.604l18.735,14.139l-18.735,12.49v10.604L862.104,489.657
	z"/>
<path fill="#FFFFFF" d="M987.824,431.922c2.121,0,3.906,0.728,5.36,2.18c1.453,1.454,2.181,3.24,2.181,5.361v92.376
	c0,2.121-0.728,3.909-2.181,5.361c-1.453,1.453-3.239,2.18-5.36,2.18h-92.376c-2.121,0-3.909-0.727-5.361-2.18
	c-1.455-1.452-2.18-3.24-2.18-5.361v-92.376c0-2.121,0.725-3.907,2.18-5.361c1.452-1.452,3.24-2.18,5.361-2.18H987.824z
	 M966.262,514.872l5.538-61.624h-60.327l5.538,61.624l24.509,6.952L966.262,514.872z M924.669,488.715l-2.003-22.858h37.94
	l-0.707,7.54h-28.868l0.59,7.659h27.571l-2.121,23.33l-15.317,4.241v0.118h-0.234l-15.437-4.359l-0.942-11.9h7.424l0.589,6.01
	l8.366,2.238l8.482-2.238l0.942-9.779L924.669,488.715L924.669,488.715z"/>
<path fill="#FFFFFF" d="M1108.479,431.922c2.121,0,3.907,0.728,5.361,2.18c1.453,1.454,2.18,3.24,2.18,5.361v92.376
	c0,2.121-0.727,3.909-2.18,5.361c-1.454,1.453-3.24,2.18-5.361,2.18h-92.375c-2.121,0-3.909-0.727-5.361-2.18
	c-1.455-1.452-2.18-3.24-2.18-5.361v-92.376c0-2.121,0.725-3.907,2.18-5.361c1.452-1.452,3.24-2.18,5.361-2.18H1108.479z
	 M1032.363,519.35c0.393,0.395,0.863,0.668,1.414,0.824c0.549,0.159,1.099,0.315,1.648,0.472c3.063,0.552,6.146,0.983,9.25,1.297
	c3.103,0.314,6.225,0.512,9.367,0.59c4.083,0.079,8.188,0.02,12.312-0.177c4.123-0.195,8.228-0.727,12.312-1.592
	c1.413-0.235,2.808-0.549,4.183-0.942c1.373-0.393,2.689-0.901,3.947-1.531c0.392-0.235,0.784-0.49,1.178-0.766
	c0.394-0.274,0.667-0.648,0.825-1.12c0.077-0.472-0.059-0.844-0.412-1.119c-0.354-0.274-0.728-0.489-1.12-0.647
	c0.236,0.235,0.394,0.513,0.473,0.824c0.077,0.315,0.039,0.59-0.118,0.825c-0.395,0.471-0.845,0.824-1.354,1.061
	c-0.512,0.235-1.042,0.434-1.591,0.589c-1.648,0.473-3.318,0.825-5.008,1.062c-1.689,0.234-3.398,0.472-5.125,0.707
	c-4.479,0.394-8.996,0.63-13.551,0.707c-4.558,0.079-9.072-0.077-13.551-0.473c-1.492-0.155-3.005-0.354-4.535-0.589
	c-1.532-0.234-3.006-0.628-4.419-1.179c-0.235-0.077-0.491-0.177-0.767-0.294c-0.275-0.118-0.412-0.334-0.412-0.648
	c0.077-0.312,0.235-0.549,0.472-0.707c0.234-0.155,0.472-0.312,0.707-0.471c1.021-0.472,2.101-0.864,3.239-1.179
	c1.139-0.313,2.258-0.51,3.358-0.589c-0.315-0.157-0.669-0.254-1.062-0.295c-0.395-0.039-0.785-0.06-1.179-0.06
	c-0.941,0-1.885,0.117-2.827,0.354c-0.942,0.234-1.886,0.512-2.828,0.823c-0.785,0.236-1.552,0.552-2.298,0.943
	c-0.747,0.395-1.434,0.865-2.062,1.413c-0.315,0.236-0.53,0.53-0.648,0.884C1032.066,518.702,1032.128,519.036,1032.363,519.35z
	 M1038.844,493.663c-0.079,0.158-0.118,0.335-0.118,0.53c0,0.196,0.078,0.374,0.236,0.529c0.235,0.235,0.549,0.434,0.942,0.589
	c0.393,0.158,0.783,0.276,1.179,0.354c1.255,0.315,2.551,0.551,3.888,0.707c1.335,0.158,2.67,0.276,4.006,0.354
	c1.256,0.079,2.476,0.139,3.653,0.178c1.178,0.041,2.355,0.059,3.534,0.059c3.142-0.077,6.264-0.254,9.367-0.53
	c3.103-0.272,6.187-0.725,9.25-1.354c0.234-0.077,0.51-0.156,0.824-0.235c0.312-0.078,0.589-0.194,0.824-0.354
	c0.549-0.394,1.1-0.707,1.649-0.943c0.549-0.234,1.1-0.51,1.648-0.824c-2.515,0.395-5.007,0.747-7.48,1.062
	c-2.476,0.313-4.97,0.589-7.482,0.824c-2.515,0.157-5.048,0.256-7.6,0.295c-2.554,0.04-5.126-0.02-7.718-0.178
	c-0.707-0.076-1.436-0.155-2.181-0.234c-0.747-0.078-1.435-0.274-2.062-0.59c-0.158,0-0.314-0.077-0.472-0.235
	c-0.157-0.156-0.196-0.354-0.118-0.589c0.156-0.236,0.354-0.431,0.59-0.59c0.235-0.156,0.511-0.312,0.824-0.472
	c1.101-0.472,2.238-0.884,3.417-1.236c1.18-0.354,2.316-0.688,3.417-1.002c-1.965-0.077-3.929,0.118-5.892,0.59
	c-1.964,0.471-3.85,1.101-5.655,1.885c-0.472,0.235-0.925,0.453-1.354,0.648C1039.53,493.094,1039.157,493.351,1038.844,493.663z
	 M1089.274,522.531c0.706-0.394,1.373-0.884,2.003-1.475c0.628-0.589,1.02-1.313,1.178-2.18c-0.707,0.786-1.572,1.396-2.592,1.826
	c-1.022,0.433-2.044,0.846-3.063,1.237c-1.886,0.551-3.791,1.002-5.715,1.354c-1.926,0.354-3.829,0.688-5.715,1.001
	c-3.378,0.396-6.736,0.669-10.074,0.825c-3.34,0.158-6.696,0.158-10.073,0c-2.043-0.077-4.086-0.195-6.127-0.354
	c-2.045-0.155-4.048-0.393-6.01-0.707c0.471,0.314,0.98,0.552,1.531,0.707c0.549,0.158,1.1,0.314,1.649,0.473
	c2.197,0.471,4.458,0.766,6.774,0.884c2.316,0.117,4.613,0.217,6.894,0.294c3.377,0.079,6.755,0.041,10.134-0.117
	c3.376-0.157,6.716-0.511,10.015-1.061c1.57-0.236,3.143-0.55,4.714-0.943C1086.367,523.906,1087.86,523.317,1089.274,522.531z
	 M1063.705,505.446c2.198-0.157,4.378-0.413,6.54-0.768c2.159-0.354,4.26-0.843,6.304-1.473c-0.551-0.312-1.119-0.628-1.709-0.942
	c-0.589-0.312-1.119-0.707-1.591-1.179c-1.729,0.315-3.457,0.609-5.184,0.884c-1.729,0.276-3.496,0.453-5.304,0.53
	c-1.885,0.158-3.791,0.197-5.715,0.118c-1.926-0.077-3.869-0.235-5.832-0.472c-0.314-0.077-0.668-0.156-1.061-0.235
	c-0.395-0.077-0.747-0.195-1.062-0.354c-0.157-0.076-0.295-0.194-0.412-0.354c-0.118-0.156-0.177-0.354-0.177-0.589
	c0-0.313,0.117-0.59,0.354-0.825c0.234-0.235,0.431-0.472,0.589-0.707c-0.63,0.235-1.237,0.472-1.826,0.707s-1.16,0.551-1.709,0.942
	c-0.158,0.235-0.335,0.472-0.53,0.707c-0.196,0.235-0.256,0.512-0.177,0.824c0.078,0.314,0.273,0.59,0.59,0.824
	c0.312,0.236,0.589,0.434,0.824,0.59c0.784,0.395,1.569,0.688,2.355,0.885c0.785,0.195,1.609,0.372,2.476,0.529
	c1.963,0.314,3.985,0.491,6.067,0.53C1059.6,505.663,1061.662,505.604,1063.705,505.446z M1050.744,509.334
	c-0.158-0.312-0.117-0.568,0.118-0.766c0.234-0.195,0.431-0.372,0.589-0.53c-0.551,0.158-1.102,0.335-1.649,0.53
	c-0.551,0.196-1.061,0.49-1.532,0.884c-0.234,0.158-0.411,0.374-0.528,0.646c-0.118,0.276-0.14,0.571-0.061,0.885
	c0.156,0.395,0.394,0.707,0.707,0.942s0.628,0.434,0.942,0.589c0.864,0.472,1.768,0.846,2.71,1.119
	c0.942,0.276,1.886,0.491,2.828,0.648c2.121,0.313,4.261,0.452,6.422,0.412c2.159-0.039,4.301-0.254,6.422-0.648
	c1.334-0.235,2.61-0.53,3.829-0.884c1.217-0.354,2.415-0.766,3.594-1.236c-0.707-0.312-1.435-0.667-2.18-1.061
	c-0.748-0.394-1.515-0.784-2.298-1.179c-1.18,0.234-2.397,0.452-3.652,0.647c-1.258,0.196-2.554,0.335-3.889,0.412
	c-1.649,0.158-3.319,0.177-5.009,0.059c-1.688-0.116-3.356-0.294-5.008-0.529c-0.471-0.077-0.924-0.156-1.354-0.235
	C1051.312,509.964,1050.98,509.729,1050.744,509.334z M1051.805,472.689c-0.234,0.864-0.294,1.768-0.177,2.71
	c0.118,0.942,0.372,1.809,0.767,2.593c0.549,1.258,1.218,2.396,2.004,3.417c0.783,1.021,1.648,2.003,2.592,2.944
	c0.863,0.943,1.747,1.826,2.65,2.651c0.901,0.825,1.826,1.67,2.77,2.533c-0.865-1.806-1.944-3.494-3.24-5.066
	c-1.296-1.569-2.259-3.338-2.887-5.303c-0.395-1.099-0.53-2.257-0.412-3.476c0.117-1.218,0.451-2.336,1.001-3.358
	c0.707-1.255,1.591-2.396,2.651-3.417c1.061-1.02,2.14-2.003,3.24-2.945c0.941-0.784,1.886-1.591,2.827-2.415
	c0.942-0.825,1.807-1.709,2.593-2.65c1.021-1.18,1.924-2.454,2.71-3.829c0.784-1.374,1.296-2.809,1.531-4.301
	c0.312-1.414,0.312-2.828,0-4.242c-0.314-1.414-0.941-2.67-1.886-3.771c0.157,1.021,0.274,2.062,0.354,3.122
	c0.077,1.062,0,2.062-0.235,3.005c-0.235,1.414-0.729,2.73-1.473,3.947c-0.748,1.219-1.633,2.298-2.651,3.24
	c-1.729,1.886-3.634,3.575-5.715,5.065c-2.082,1.493-4.026,3.104-5.832,4.831c-0.63,0.707-1.237,1.436-1.826,2.181
	C1052.57,470.904,1052.118,471.747,1051.805,472.689z M1069.95,468.919c1.569-1.491,3.278-2.808,5.126-3.947
	c1.845-1.138,3.671-2.297,5.479-3.476c-2.279,0.63-4.536,1.435-6.774,2.416s-4.302,2.18-6.187,3.594
	c-1.258,0.865-2.377,1.943-3.357,3.24c-0.982,1.296-1.553,2.729-1.709,4.301c-0.157,1.571,0.099,3.083,0.767,4.536
	c0.666,1.454,1.512,2.769,2.533,3.947c0.472,0.55,0.884,1.14,1.236,1.768c0.354,0.629,0.53,1.296,0.53,2.003
	c0,1.021-0.234,1.964-0.707,2.827c-0.472,0.865-1.061,1.611-1.768,2.239c0.156,0,0.295-0.061,0.412-0.177
	c0.117-0.118,0.255-0.217,0.412-0.296c1.1-0.628,2.121-1.394,3.063-2.298c0.942-0.9,1.688-1.942,2.238-3.122
	c0.312-0.783,0.431-1.629,0.354-2.532c-0.079-0.902-0.313-1.747-0.707-2.533c-0.55-0.863-1.14-1.709-1.768-2.533
	c-0.629-0.825-1.178-1.709-1.649-2.651c-0.158-0.549-0.274-1.118-0.354-1.708s-0.04-1.157,0.118-1.709
	c0.312-0.783,0.707-1.49,1.179-2.121C1068.89,470.059,1069.399,469.47,1069.95,468.919z M1084.679,489.067
	c-0.63,0.079-1.258,0.196-1.886,0.354c-0.629,0.159-1.14,0.513-1.531,1.062c0.473-0.077,0.961-0.194,1.474-0.354
	c0.51-0.156,1.002-0.194,1.473-0.117c1.1,0,2.121,0.373,3.063,1.119c0.942,0.747,1.49,1.67,1.649,2.77
	c0.235,0.942,0.156,1.866-0.235,2.77c-0.395,0.903-0.865,1.708-1.414,2.415c-1.021,1.179-2.142,2.18-3.357,3.005
	c-1.219,0.824-2.495,1.591-3.83,2.298c-0.158,0.079-0.275,0.178-0.354,0.294c-0.079,0.118-0.196,0.219-0.354,0.295
	c1.729-0.393,3.437-0.941,5.126-1.648c1.688-0.707,3.24-1.609,4.654-2.71c0.784-0.707,1.473-1.475,2.062-2.298
	c0.591-0.825,0.962-1.747,1.12-2.77c0.156-0.864,0.06-1.728-0.295-2.593c-0.354-0.863-0.845-1.609-1.473-2.238
	c-0.786-0.707-1.709-1.196-2.771-1.474C1086.74,488.971,1085.698,488.911,1084.679,489.067z"/>
<path fill="#FFFFFF" d="M1229.135,431.922c2.121,0,3.907,0.728,5.361,2.18c1.453,1.454,2.18,3.24,2.18,5.361v92.376
	c0,2.121-0.727,3.909-2.18,5.361c-1.454,1.453-3.24,2.18-5.361,2.18h-92.376c-2.121,0-3.909-0.727-5.36-2.18
	c-1.455-1.452-2.181-3.24-2.181-5.361v-92.376c0-2.121,0.726-3.907,2.181-5.361c1.451-1.452,3.239-2.18,5.36-2.18H1229.135z
	 M1158.085,494.135c0-4.084,0-8.169,0-12.254c0-4.084,0-8.169,0-12.255c-0.786-0.077-1.552-0.098-2.298-0.059
	c-0.747,0.041-1.473,0.021-2.18-0.06c-0.079,3.692-0.1,7.364-0.06,11.018c0.039,3.651,0.02,7.324-0.059,11.017c0,1.102,0,2.2,0,3.3
	c0,1.102-0.079,2.199-0.236,3.299c-0.235,1.179-0.766,2.161-1.59,2.945c-0.825,0.786-1.709,1.455-2.651,2.003
	c0.393,0.396,0.745,0.808,1.062,1.237c0.312,0.433,0.666,0.846,1.061,1.237c1.179-0.472,2.277-1.1,3.3-1.886
	c1.02-0.784,1.845-1.688,2.475-2.71c0.548-1.1,0.884-2.219,1.001-3.357C1158.026,496.473,1158.085,495.312,1158.085,494.135z
	 M1177.645,498.022c0-2.514,0-5.025,0-7.541c0-2.514,0-4.987,0-7.424c0.077-0.707,0.02-1.433-0.177-2.18
	c-0.196-0.746-0.53-1.394-1.002-1.944c-0.55-0.707-1.235-1.217-2.062-1.53c-0.825-0.313-1.631-0.55-2.415-0.707
	c-1.65-0.157-3.3-0.078-4.949,0.234c-1.649,0.314-3.222,0.786-4.713,1.414c0.077,0.472,0.177,0.924,0.294,1.354
	c0.118,0.433,0.216,0.884,0.295,1.354c1.1-0.393,2.239-0.726,3.417-1.002c1.179-0.273,2.396-0.333,3.652-0.177
	c0.472,0,0.98,0.118,1.531,0.354c0.55,0.236,0.981,0.591,1.296,1.062c0.394,0.63,0.59,1.296,0.59,2.003s0,1.414,0,2.121
	c-0.942,0-1.866,0.021-2.77,0.059c-0.904,0.041-1.826,0.14-2.769,0.295c-0.943,0.158-1.887,0.453-2.828,0.885
	c-0.942,0.433-1.729,1.042-2.356,1.825c-0.707,0.786-1.16,1.749-1.354,2.888c-0.196,1.14-0.138,2.221,0.177,3.24
	c0.156,0.706,0.49,1.354,1.002,1.943c0.51,0.589,1.079,1.002,1.708,1.237c0.943,0.394,1.886,0.589,2.828,0.589
	s1.885-0.077,2.828-0.235c0.784-0.234,1.512-0.568,2.18-1.002c0.666-0.431,1.314-0.922,1.944-1.473
	c0.077,0.395,0.136,0.786,0.177,1.179c0.038,0.395,0.098,0.786,0.177,1.178c0.548,0,1.1,0,1.649,0
	C1176.544,498.022,1177.094,498.022,1177.645,498.022z M1167.865,488.715c0.863-0.312,1.767-0.49,2.71-0.53
	c0.941-0.038,1.885-0.06,2.827-0.06c0,0.865,0,1.709,0,2.533c0,0.825,0,1.67,0,2.533c-0.551,0.472-1.179,0.903-1.886,1.297
	s-1.454,0.629-2.238,0.707c-0.551,0.079-1.119,0.04-1.708-0.118c-0.59-0.156-1.042-0.472-1.355-0.942
	c-0.394-0.472-0.629-1.021-0.707-1.649c-0.079-0.627-0.04-1.218,0.118-1.768c0.156-0.472,0.431-0.884,0.825-1.236
	C1166.843,489.127,1167.314,488.873,1167.865,488.715z M1192.02,498.022c1.57-3.376,2.888-6.813,3.947-10.311
	c1.062-3.494,1.903-7.05,2.533-10.663c-0.707,0-1.454,0-2.238,0c-0.787,0-1.531,0-2.238,0c-0.395,2.827-0.942,5.637-1.649,8.424
	c-0.707,2.79-1.572,5.521-2.593,8.189c-0.079-0.394-0.178-0.784-0.294-1.179c-0.118-0.393-0.219-0.824-0.296-1.296
	c-0.157-0.863-0.394-1.747-0.707-2.65c-0.313-0.902-0.589-1.827-0.823-2.771c-0.473-1.413-0.925-2.865-1.355-4.358
	c-0.433-1.491-0.884-2.945-1.354-4.359c-0.786,0-1.572,0-2.357,0c-0.786,0-1.571,0-2.355,0c1.1,3.457,2.181,6.934,3.239,10.428
	c1.062,3.496,2.141,7.012,3.24,10.546c0.864,0,1.748,0,2.651,0C1190.271,498.022,1191.154,498.022,1192.02,498.022z
	 M1216.881,498.022c0-2.514,0-4.987,0-7.424c0-2.434,0-4.868,0-7.306c0-0.784-0.1-1.57-0.294-2.355
	c-0.197-0.784-0.53-1.491-1.002-2.121c-0.551-0.627-1.219-1.1-2.003-1.413c-0.786-0.313-1.611-0.55-2.475-0.707
	c-1.649-0.157-3.299-0.078-4.948,0.234c-1.65,0.314-3.224,0.786-4.714,1.414c0.078,0.472,0.177,0.924,0.295,1.354
	c0.118,0.433,0.216,0.884,0.295,1.354c1.178-0.393,2.375-0.726,3.594-1.002c1.217-0.273,2.454-0.333,3.711-0.177
	c0.549,0.079,1.079,0.236,1.592,0.472c0.51,0.235,0.884,0.589,1.118,1.062c0.394,0.63,0.569,1.276,0.53,1.943
	c-0.04,0.668-0.02,1.354,0.061,2.062c-1.493,0-2.968,0.059-4.419,0.177c-1.454,0.118-2.849,0.492-4.184,1.119
	c-0.864,0.472-1.61,1.062-2.239,1.768c-0.629,0.707-1.061,1.532-1.296,2.476c-0.157,1.021-0.157,2.082,0,3.182
	c0.156,1.102,0.667,2.003,1.532,2.71c0.707,0.707,1.57,1.159,2.592,1.354c1.021,0.197,2.004,0.256,2.945,0.177
	c1.1-0.156,2.101-0.471,3.005-0.942c0.902-0.472,1.747-1.061,2.533-1.768c0.077,0.395,0.156,0.786,0.235,1.179
	c0.077,0.395,0.117,0.747,0.117,1.062c0.549,0.079,1.119,0.099,1.709,0.059S1216.33,497.945,1216.881,498.022z M1212.64,488.125
	c0,0.865-0.021,1.709-0.06,2.533c-0.04,0.825-0.021,1.632,0.06,2.416c-0.63,0.55-1.277,1.021-1.943,1.414
	c-0.669,0.394-1.396,0.629-2.181,0.707c-0.551,0.079-1.119,0.04-1.709-0.118c-0.589-0.156-1.08-0.472-1.473-0.942
	c-0.395-0.472-0.609-1.021-0.648-1.649c-0.039-0.627,0.02-1.218,0.178-1.768c0.156-0.472,0.431-0.884,0.824-1.236
	c0.393-0.354,0.784-0.607,1.179-0.767c0.942-0.312,1.886-0.49,2.828-0.53C1210.636,488.146,1211.617,488.125,1212.64,488.125z"/>
<path fill="#FFFFFF" d="M148.6,681.986c-1.454,1.453-3.24,2.18-5.361,2.18H50.862c-2.121,0-3.908-0.727-5.361-2.18
	c-1.455-1.452-2.18-3.24-2.18-5.361v-92.376c0-2.121,0.726-3.907,2.18-5.361c1.453-1.453,3.24-2.18,5.361-2.18h92.377
	c2.121,0,3.907,0.727,5.361,2.18c1.453,1.454,2.18,3.24,2.18,5.361v92.376C150.779,678.746,150.052,680.534,148.6,681.986z
	 M89.038,660.365c-0.158,0.472-0.335,0.924-0.53,1.354c-0.197,0.434-0.453,0.808-0.766,1.12c-0.394,0.314-0.904,0.57-1.532,0.767
	c-0.629,0.196-1.375,0.295-2.239,0.295c-0.629,0-1.198-0.061-1.708-0.178c-0.512-0.117-1.001-0.334-1.473-0.647
	c-0.394-0.313-0.825-0.746-1.296-1.296c-0.472-0.55-0.943-1.18-1.414-1.887c-0.158-0.312-0.276-0.549-0.354-0.707
	c-0.079-0.155-0.158-0.234-0.236-0.234c-1.336,0.786-2.671,1.611-4.006,2.475l-4.006,2.356l0.472,0.589
	c0.863,1.886,2.003,3.458,3.417,4.713c1.414,1.258,3.141,2.2,5.184,2.828c2.121,0.707,4.242,1.042,6.363,1.002
	c2.121-0.039,4.201-0.451,6.245-1.237c2.277-0.941,4.083-2.355,5.42-4.242c1.334-1.885,2.159-4.2,2.474-6.95
	c0-0.313,0.019-2.021,0.059-5.126c0.039-3.104,0.059-7.601,0.059-13.491v-17.674h-9.898v35.348L89.038,660.365z M108.42,631.674
	c-0.589,1.532-0.883,3.202-0.883,5.008c0,2.751,0.607,5.166,1.826,7.246c1.217,2.083,3.082,3.87,5.597,5.361
	c0.628,0.395,1.453,0.846,2.475,1.354c1.02,0.513,2.239,1.042,3.652,1.592c1.806,0.786,3.279,1.492,4.418,2.12
	c1.138,0.63,1.904,1.179,2.298,1.649c0.707,0.786,1.138,1.59,1.296,2.415c0.157,0.825,0.039,1.67-0.354,2.533
	c-0.158,0.234-0.314,0.453-0.471,0.647c-0.158,0.196-0.315,0.373-0.471,0.53c-0.63,0.629-1.396,1.102-2.298,1.414
	c-0.904,0.314-1.944,0.471-3.122,0.471c-1.885,0-3.614-0.411-5.185-1.236c-1.572-0.824-2.907-2.102-4.006-3.829
	c-0.158-0.312-0.353-0.628-0.589-0.942c-1.336,0.786-2.633,1.531-3.888,2.238c-1.337,0.786-2.671,1.572-4.006,2.355
	c-0.079,0.079-0.079,0.197,0,0.354c0.077,0.158,0.195,0.354,0.354,0.59c1.491,2.592,3.436,4.636,5.833,6.127
	c2.395,1.493,5.203,2.437,8.425,2.827c1.099,0.236,2.18,0.354,3.24,0.354s2.139-0.117,3.24-0.354
	c1.962-0.234,3.73-0.687,5.302-1.354c1.57-0.667,2.945-1.552,4.124-2.651c1.256-1.256,2.198-2.669,2.828-4.241
	c0.628-1.57,0.942-3.338,0.942-5.303c0-1.179-0.118-2.316-0.354-3.417c-0.235-1.099-0.589-2.121-1.06-3.063
	c-0.315-0.549-0.648-1.099-1.001-1.648c-0.354-0.549-0.807-1.1-1.355-1.649c-0.942-0.942-2.297-1.943-4.065-3.005
	c-1.767-1.061-3.87-2.101-6.304-3.122c-1.729-0.707-3.143-1.354-4.242-1.943c-1.101-0.591-1.847-1.119-2.239-1.592
	c-0.394-0.472-0.688-0.98-0.884-1.531c-0.197-0.548-0.256-1.139-0.177-1.768c0-0.549,0.098-1.021,0.295-1.414
	c0.195-0.393,0.412-0.784,0.648-1.179c0.471-0.471,1.04-0.824,1.708-1.061c0.667-0.235,1.394-0.354,2.18-0.354
	c0.863,0,1.668,0.158,2.416,0.472c0.746,0.314,1.394,0.786,1.944,1.414c0.313,0.235,0.589,0.472,0.825,0.707
	c0.235,0.235,0.431,0.513,0.589,0.824c0.078,0.236,0.236,0.472,0.471,0.707c0.078,0,0.451-0.215,1.12-0.647
	c0.667-0.432,1.629-1.041,2.887-1.826c1.178-0.784,2.395-1.608,3.653-2.475c-0.315-0.472-0.589-0.901-0.825-1.296
	c-0.55-0.864-1.16-1.63-1.826-2.298c-0.668-0.667-1.396-1.237-2.18-1.709c-1.022-0.707-2.162-1.275-3.417-1.708
	c-1.257-0.431-2.633-0.688-4.124-0.768c-0.55,0-1.101,0-1.649,0c-0.551,0-1.061,0-1.532,0c-1.964,0.159-3.712,0.571-5.244,1.237
	c-1.532,0.669-2.927,1.591-4.183,2.771C109.894,628.787,109.01,630.143,108.42,631.674z"/>
<path fill="#FFFFFF" d="M263.894,576.708c2.121,0,3.907,0.727,5.361,2.18c1.453,1.454,2.18,3.24,2.18,5.361v92.376
	c0,2.121-0.727,3.909-2.18,5.361c-1.454,1.453-3.24,2.18-5.361,2.18h-92.377c-2.121,0-3.908-0.727-5.361-2.18
	c-1.455-1.452-2.18-3.24-2.18-5.361v-92.376c0-2.121,0.726-3.907,2.18-5.361c1.453-1.453,3.24-2.18,5.361-2.18H263.894z
	 M251.64,646.579v-32.284c0-1.179-0.256-2.18-0.766-3.005c-0.512-0.825-1.237-1.512-2.18-2.062l-28.043-16.261
	c-1.022-0.549-2.023-0.824-3.005-0.824c-0.983,0-1.944,0.275-2.887,0.824l-28.043,16.261c-1.021,0.551-1.767,1.236-2.239,2.062
	c-0.471,0.825-0.707,1.826-0.707,3.005v32.284c0,1.179,0.235,2.2,0.707,3.062c0.472,0.865,1.217,1.572,2.239,2.121l7.306,4.242
	c1.255,0.55,2.415,0.963,3.476,1.237s2.062,0.412,3.005,0.412c1.334,0,2.513-0.178,3.535-0.53c1.02-0.354,1.885-0.923,2.592-1.709
	c0.707-0.784,1.255-1.708,1.649-2.77c0.392-1.061,0.589-2.257,0.589-3.594v-32.049c0-0.236-0.079-0.431-0.236-0.59
	c-0.158-0.156-0.354-0.235-0.589-0.235h-3.652c-0.236,0-0.413,0.079-0.53,0.235c-0.118,0.159-0.177,0.354-0.177,0.59v32.049
	c0,0.63-0.158,1.198-0.471,1.708c-0.315,0.514-0.786,0.963-1.414,1.355c-0.55,0.313-1.237,0.453-2.062,0.412
	c-0.825-0.038-1.749-0.295-2.769-0.767l-7.776-4.478c-0.158,0-0.256-0.06-0.294-0.178c-0.041-0.116-0.059-0.294-0.059-0.529v-32.284
	c0-0.157,0.019-0.313,0.059-0.472c0.039-0.156,0.136-0.274,0.294-0.354l28.043-16.143c0.156-0.077,0.313-0.117,0.471-0.117
	c0.156,0,0.313,0.04,0.471,0.117l27.925,16.143c0.156,0.079,0.274,0.197,0.354,0.354c0.077,0.157,0.118,0.313,0.118,0.472v32.284
	c0,0.235-0.041,0.413-0.118,0.529c-0.079,0.118-0.197,0.178-0.354,0.178l-27.925,16.261c-0.158,0.079-0.315,0.117-0.471,0.117
	c-0.158,0-0.315-0.038-0.471-0.117l-7.188-4.242c-0.079-0.077-0.177-0.137-0.295-0.177c-0.118-0.039-0.256-0.02-0.412,0.059
	c-0.707,0.396-1.414,0.768-2.121,1.12c-0.707,0.354-1.414,0.647-2.121,0.883c-0.394,0.08-0.571,0.236-0.53,0.473
	c0.039,0.234,0.333,0.472,0.884,0.707l9.308,5.538c0.471,0.234,0.943,0.433,1.414,0.589c0.471,0.157,0.981,0.234,1.532,0.234
	c0.549,0,1.061-0.077,1.532-0.234c0.471-0.156,0.942-0.354,1.414-0.589l28.043-16.144c0.942-0.549,1.668-1.256,2.18-2.121
	C251.384,648.779,251.64,647.758,251.64,646.579z M234.201,635.386c0.236,0.158,0.392,0.395,0.472,0.707
	c0.077,0.314,0.118,0.63,0.118,0.942c0,0.786-0.177,1.454-0.53,2.003c-0.354,0.551-0.845,1.021-1.473,1.414
	c-0.707,0.395-1.591,0.669-2.651,0.825c-1.061,0.157-2.338,0.234-3.829,0.234c-1.729,0-3.202-0.098-4.419-0.295
	c-1.219-0.193-2.141-0.53-2.769-1.001c-0.63-0.472-1.14-1.061-1.532-1.768c-0.394-0.707-0.668-1.57-0.825-2.592
	c-0.079-0.157-0.177-0.296-0.294-0.413c-0.118-0.117-0.294-0.178-0.53-0.178h-3.652c-0.236,0-0.433,0.079-0.589,0.236
	c-0.158,0.158-0.236,0.354-0.236,0.589c0,0.63,0.059,1.237,0.177,1.826c0.118,0.589,0.295,1.198,0.53,1.826
	c0.157,0.551,0.431,1.102,0.825,1.648c0.392,0.552,0.825,1.062,1.296,1.532c0.471,0.551,1.099,1.042,1.885,1.473
	c0.784,0.434,1.688,0.808,2.71,1.119c1.02,0.315,2.139,0.552,3.358,0.707c1.217,0.158,2.572,0.236,4.065,0.236
	c2.198,0,4.163-0.216,5.891-0.648c1.727-0.431,3.22-1.078,4.478-1.943c1.178-0.784,2.081-1.786,2.71-3.005
	c0.628-1.218,0.943-2.571,0.943-4.064c0-1.414-0.256-2.631-0.766-3.651c-0.512-1.021-1.237-1.846-2.18-2.476
	c-0.943-0.549-2.239-1.061-3.888-1.532c-1.65-0.471-3.614-0.862-5.892-1.178c-1.493-0.157-2.769-0.334-3.83-0.53
	c-1.06-0.194-1.944-0.372-2.651-0.529c-0.63-0.156-1.16-0.313-1.591-0.473c-0.433-0.155-0.766-0.354-1.001-0.589
	c-0.158-0.156-0.294-0.372-0.412-0.647c-0.118-0.274-0.177-0.607-0.177-1.001c0-1.335,0.607-2.316,1.826-2.946
	c1.217-0.628,3.004-0.942,5.361-0.942c1.492,0,2.749,0.079,3.771,0.235c1.02,0.159,1.845,0.433,2.475,0.825
	c0.628,0.394,1.158,0.924,1.591,1.591c0.431,0.668,0.766,1.514,1.001,2.533c0,0.158,0.077,0.295,0.235,0.412
	c0.157,0.117,0.354,0.177,0.589,0.177h3.535c0.157,0,0.274-0.02,0.354-0.06c0.078-0.038,0.195-0.098,0.354-0.177
	c0.077-0.077,0.118-0.177,0.118-0.295c0-0.117,0-0.254,0-0.412c-0.079-1.648-0.433-3.082-1.06-4.301
	c-0.63-1.217-1.532-2.257-2.71-3.122c-1.178-0.784-2.612-1.374-4.3-1.768c-1.69-0.394-3.673-0.589-5.951-0.589
	c-1.964,0-3.731,0.195-5.302,0.589c-1.572,0.394-2.907,0.982-4.006,1.768c-1.101,0.865-1.944,1.847-2.533,2.945
	c-0.589,1.101-0.884,2.355-0.884,3.771s0.254,2.633,0.766,3.652c0.51,1.021,1.276,1.847,2.298,2.475
	c1.02,0.63,2.316,1.141,3.888,1.532c1.57,0.394,3.376,0.707,5.42,0.942c1.491,0.157,2.787,0.313,3.888,0.472
	c1.099,0.158,2.042,0.353,2.828,0.589c0.707,0.158,1.296,0.354,1.768,0.589C233.734,634.912,234.043,635.15,234.201,635.386z"/>
<path fill="#FFFFFF" d="M384.549,576.708c2.121,0,3.907,0.727,5.361,2.18c1.453,1.454,2.18,3.24,2.18,5.361v92.376
	c0,2.121-0.727,3.909-2.18,5.361c-1.454,1.453-3.24,2.18-5.361,2.18h-92.376c-2.121,0-3.908-0.727-5.361-2.18
	c-1.455-1.452-2.18-3.24-2.18-5.361v-92.376c0-2.121,0.726-3.907,2.18-5.361c1.453-1.453,3.24-2.18,5.361-2.18H384.549z
	 M313.971,607.814v-7.07h-16.143v59.386h16.143v-7.07h-7.541v-45.244L313.971,607.814L313.971,607.814z M356.388,617.358v-10.842
	c-1.729-0.548-3.613-0.979-5.654-1.296c-2.044-0.312-4.283-0.471-6.717-0.471c-3.929,0-7.481,0.609-10.664,1.826
	c-3.181,1.219-5.99,3.084-8.424,5.597c-2.436,2.437-4.282,5.264-5.538,8.483c-1.257,3.222-1.885,6.834-1.885,10.84
	c0,3.771,0.549,7.148,1.649,10.134c1.099,2.986,2.749,5.578,4.948,7.776c2.198,2.278,4.791,3.968,7.777,5.065
	c2.984,1.103,6.401,1.649,10.251,1.649c2.905,0,5.538-0.215,7.896-0.647c2.355-0.431,4.477-1.079,6.361-1.943v-10.25
	c-1.885,1.101-3.811,1.905-5.772,2.415c-1.964,0.512-4.046,0.767-6.245,0.767c-2.279,0-4.341-0.354-6.187-1.061
	c-1.847-0.707-3.438-1.769-4.771-3.183c-1.336-1.414-2.338-3.082-3.005-5.008c-0.668-1.924-1.001-4.104-1.001-6.539
	c0-2.514,0.354-4.752,1.061-6.717c0.707-1.962,1.769-3.69,3.183-5.184c1.414-1.491,3.062-2.594,4.948-3.301
	c1.887-0.707,4.007-1.061,6.362-1.061c2.121,0,4.124,0.236,6.009,0.707C352.854,615.591,354.66,616.338,356.388,617.358z
	 M378.894,660.13v-59.386h-16.143v7.07h7.423v45.362h-7.423v6.952L378.894,660.13L378.894,660.13z"/>
<path fill="#FFFFFF" d="M505.204,576.708c2.121,0,3.907,0.727,5.361,2.18c1.452,1.454,2.18,3.24,2.18,5.361v92.376
	c0,2.121-0.728,3.909-2.18,5.361c-1.454,1.453-3.24,2.18-5.361,2.18h-92.376c-2.121,0-3.909-0.727-5.361-2.18
	c-1.455-1.452-2.18-3.24-2.18-5.361v-92.376c0-2.121,0.725-3.907,2.18-5.361c1.452-1.453,3.24-2.18,5.361-2.18H505.204z
	 M488.591,634.325c0.312-1.178,0.51-2.375,0.589-3.594c0.077-1.218,0-2.454-0.234-3.712c0-0.393-0.021-0.767-0.06-1.119
	c-0.041-0.354-0.1-0.647-0.177-0.885c-0.159-0.234-0.336-0.488-0.53-0.766c-0.196-0.273-0.453-0.568-0.767-0.884
	c-1.102-1.178-2.104-2.454-3.004-3.829c-0.904-1.374-1.749-2.887-2.533-4.536c-0.236-0.393-0.513-0.784-0.825-1.179
	c-0.313-0.393-0.63-0.707-0.941-0.942c-0.315-0.393-0.63-0.844-0.942-1.354c-0.315-0.511-0.59-1.04-0.825-1.592
	c-0.079-0.076-0.158-0.234-0.234-0.471c-0.079-0.234-0.197-0.549-0.354-0.941c-0.158-0.394-0.314-0.746-0.472-1.062
	c-0.158-0.312-0.276-0.59-0.354-0.825c-0.158-0.234-0.313-0.451-0.472-0.646s-0.314-0.413-0.471-0.648
	c-0.158-0.156-0.276-0.273-0.354-0.354c-0.158-0.156-0.275-0.274-0.354-0.354c-0.079-0.077-0.158-0.155-0.235-0.234
	c-0.159-0.157-0.315-0.274-0.472-0.354c-0.079-0.077-0.158-0.157-0.235-0.236c-0.079-0.076-0.158-0.155-0.236-0.234
	c-0.078-0.077-0.177-0.136-0.294-0.177c-0.117-0.038-0.218-0.099-0.295-0.178c-0.079,0-0.177-0.038-0.295-0.118
	c-0.117-0.076-0.217-0.116-0.294-0.116c-0.551-0.236-1.14-0.394-1.768-0.473c-0.63-0.077-1.296-0.116-2.003-0.116
	c-0.079,0-0.178,0-0.295,0s-0.257,0-0.412,0c-0.158,0-0.295,0.02-0.412,0.059c-0.118,0.04-0.218,0.059-0.295,0.059
	c-0.158,0-0.354,0.041-0.589,0.118c-0.236,0.079-0.473,0.158-0.707,0.235c-0.236,0-0.473,0.059-0.707,0.177
	c-0.235,0.118-0.513,0.218-0.825,0.295c-0.235,0.079-0.471,0.158-0.707,0.235c-0.235,0.079-0.434,0.118-0.589,0.118
	c-1.258,0.471-2.317,1.042-3.183,1.708c-0.864,0.669-1.492,1.435-1.885,2.298c-0.158,0.313-0.374,0.668-0.647,1.061
	c-0.276,0.395-0.647,0.824-1.119,1.296c-0.395,0.396-0.865,0.808-1.414,1.237c-0.551,0.433-1.179,0.845-1.886,1.237
	c-0.706,0.394-1.413,0.884-2.12,1.473s-1.414,1.277-2.121,2.062c-0.158,0.234-0.314,0.451-0.473,0.646
	c-0.157,0.197-0.274,0.412-0.354,0.648c-0.158,0.234-0.275,0.471-0.354,0.707c-0.079,0.234-0.158,0.433-0.235,0.589
	c-0.079,0.157-0.139,0.354-0.178,0.589c-0.039,0.236-0.138,0.472-0.294,0.707c-0.078,0.314-0.158,0.589-0.235,0.825
	c-0.079,0.234-0.117,0.433-0.117,0.589c-0.315,0.234-0.59,0.374-0.825,0.412c-0.234,0.041-0.433-0.06-0.589-0.295
	c-0.236-0.235-0.374-0.472-0.413-0.706c-0.04-0.236-0.02-0.511,0.061-0.825c0.076-0.235,0.177-0.53,0.294-0.884
	c0.117-0.354,0.255-0.806,0.413-1.354c0.234-0.472,0.411-0.943,0.529-1.414c0.117-0.472,0.254-0.902,0.412-1.296
	c0.077-0.393,0.118-0.784,0.118-1.179c0-0.393,0-0.745,0-1.062c-0.079-0.549-0.159-1.061-0.236-1.53
	c-0.079-0.473-0.195-0.902-0.354-1.298c-0.158-0.392-0.335-0.804-0.53-1.235c-0.196-0.433-0.412-0.885-0.646-1.355
	c-0.236-0.393-0.53-0.766-0.885-1.119c-0.354-0.353-0.728-0.687-1.118-1.002c-0.473-0.234-0.943-0.431-1.414-0.589
	c-0.473-0.156-0.983-0.235-1.532-0.235c-0.314,0-0.57,0.021-0.767,0.06c-0.196,0.04-0.335,0.1-0.411,0.177
	c-0.158,0-0.354,0.079-0.591,0.235c-0.234,0.158-0.512,0.354-0.823,0.59c-0.235,0.235-0.571,0.452-1.002,0.647
	c-0.434,0.196-0.964,0.373-1.592,0.529c-0.157,0-0.412,0.021-0.766,0.06c-0.354,0.041-0.807,0.1-1.354,0.177
	c-0.472,0-0.925,0.041-1.354,0.118c-0.433,0.079-0.766,0.196-1.001,0.354c-0.236,0.079-0.434,0.197-0.59,0.354
	c-0.158,0.158-0.314,0.313-0.472,0.472c-0.157,0.235-0.295,0.471-0.412,0.707c-0.117,0.235-0.218,0.433-0.295,0.589
	c-0.078,0.395-0.04,0.707,0.117,0.942c0.157,0.234,0.433,0.472,0.825,0.707c0.156,0.079,0.372,0.138,0.648,0.177
	c0.272,0.04,0.606,0.1,1.001,0.177c0.393,0,0.726,0.04,1.002,0.118c0.273,0.079,0.529,0.196,0.766,0.354
	c0.235,0.079,0.431,0.218,0.589,0.412c0.156,0.197,0.274,0.412,0.354,0.648c-0.079,0.235-0.197,0.55-0.354,0.942
	c-0.158,0.394-0.394,0.864-0.707,1.413c-0.313,0.551-0.529,1.061-0.646,1.531c-0.118,0.473-0.178,0.904-0.178,1.296
	c0,0.315,0,0.63,0,0.943c0,0.314,0,0.589,0,0.824c0.077,0.314,0.137,0.647,0.178,1.002c0.038,0.354,0.059,0.766,0.059,1.237
	c0.077,0.394,0.118,0.746,0.118,1.061s0.038,0.55,0.117,0.706c0,0.314,0.06,0.647,0.177,1.002c0.118,0.354,0.254,0.688,0.413,1.002
	c0.156,0.314,0.371,0.647,0.647,1.001c0.273,0.354,0.568,0.729,0.884,1.119c0.393,0.314,0.707,0.63,0.941,0.943
	c0.236,0.313,0.433,0.589,0.59,0.823c0.629,0.707,1.314,1.337,2.062,1.886c0.746,0.551,1.55,1.021,2.416,1.414
	c0.863,0.395,1.727,0.647,2.592,0.767c0.863,0.117,1.688,0.059,2.476-0.177c0.549-0.156,1.02-0.217,1.414-0.178
	c0.392,0.04,0.665,0.217,0.823,0.53c0.156,0.158,0.254,0.373,0.295,0.647c0.038,0.275,0.02,0.57-0.06,0.884
	c-0.158,0.707-0.235,1.435-0.235,2.18c0,0.748,0.077,1.474,0.235,2.181c0.078,0.551,0.137,1.061,0.177,1.531
	c0.039,0.473,0.061,0.942,0.061,1.414c0,0.314,0.038,0.63,0.116,0.942c0.078,0.314,0.157,0.669,0.236,1.061
	c0,0.158,0.02,0.412,0.059,0.767c0.039,0.354,0.06,0.807,0.06,1.354c0.078,0.63,0.118,1.101,0.118,1.414c0,0.314,0,0.512,0,0.589
	c0.077,0.235,0.098,0.63,0.059,1.179c-0.04,0.551-0.099,1.179-0.177,1.886c-0.079,0.63-0.196,1.179-0.354,1.648
	c-0.157,0.473-0.354,0.942-0.589,1.414c-0.079,0-0.157,0.079-0.234,0.235c-0.079,0.159-0.197,0.354-0.354,0.59
	c-0.079,0.235-0.177,0.433-0.295,0.589c-0.117,0.158-0.177,0.276-0.177,0.354c0.077,0,0.177,0,0.295,0s0.254,0,0.412,0
	c0.156,0,0.333-0.02,0.53-0.06c0.194-0.039,0.411-0.06,0.647-0.06c0.235,0,0.451,0,0.647,0c0.194,0,0.412,0,0.647,0
	c0.077-0.472,0.136-0.884,0.177-1.237c0.039-0.354,0.06-0.687,0.06-1.001c0.077-0.312,0.137-0.628,0.177-0.942
	c0.039-0.312,0.061-0.59,0.061-0.824c0.076-0.156,0.136-0.372,0.177-0.648c0.038-0.273,0.097-0.568,0.177-0.884
	c0-0.393,0.059-0.767,0.177-1.119c0.117-0.354,0.294-0.726,0.529-1.119c0.157-0.312,0.274-0.589,0.354-0.825
	c0.078-0.234,0.157-0.431,0.236-0.589c0.077-0.156,0.117-0.412,0.117-0.766c0-0.354,0-0.767,0-1.237c0-0.549,0.019-1.02,0.06-1.414
	c0.038-0.392,0.099-0.745,0.178-1.061c0.076-0.549,0.194-1.04,0.354-1.474c0.156-0.431,0.354-0.843,0.589-1.236
	c0.235-0.472,0.412-0.922,0.53-1.354c0.118-0.432,0.216-0.844,0.295-1.236c0-0.629,0.059-1.139,0.177-1.532
	c0.117-0.393,0.333-0.707,0.647-0.942c0.156-0.156,0.312-0.273,0.472-0.354c0.156-0.077,0.354-0.118,0.589-0.118h0.118
	c0.077,0,0.156,0,0.235,0h0.118c0.471,0,0.823,0.041,1.061,0.118c0.235,0.078,0.431,0.196,0.589,0.354
	c0.156,0.079,0.235,0.256,0.235,0.53c0,0.276-0.04,0.57-0.118,0.884c-0.079,0.235-0.138,0.471-0.176,0.707
	c-0.041,0.235-0.101,0.512-0.178,0.824c0,0.395-0.06,0.786-0.177,1.179c-0.118,0.394-0.295,0.747-0.53,1.062
	c-0.158,0.234-0.275,0.452-0.354,0.646c-0.079,0.197-0.158,0.374-0.236,0.53c0,0.079-0.02,0.256-0.059,0.53
	c-0.04,0.275-0.059,0.608-0.059,1.002c0,0.472,0.019,0.864,0.059,1.178c0.039,0.314,0.098,0.551,0.177,0.707
	c0,0.158,0.039,0.295,0.118,0.413c0.077,0.116,0.156,0.217,0.235,0.294c0.155,0.235,0.412,0.492,0.766,0.767
	c0.354,0.275,0.805,0.57,1.355,0.883c0.549,0.315,1.02,0.648,1.413,1.002c0.393,0.354,0.784,0.729,1.179,1.119
	c0,0.079,0.059,0.158,0.177,0.236c0.118,0.079,0.216,0.196,0.295,0.354c0.156,0.157,0.274,0.274,0.354,0.354
	c0.076,0.079,0.155,0.158,0.234,0.235c0.077,0.157,0.156,0.275,0.235,0.354c0.078,0.079,0.118,0.197,0.118,0.354
	c0.077,0.078,0.137,0.177,0.177,0.294c0.039,0.118,0.098,0.218,0.177,0.295c0,0.472-0.1,0.884-0.295,1.236
	c-0.196,0.354-0.491,0.729-0.884,1.119c-0.158,0.079-0.354,0.197-0.589,0.354c-0.235,0.158-0.513,0.275-0.824,0.354
	c-0.395,0.235-0.707,0.434-0.943,0.589c-0.234,0.158-0.354,0.315-0.354,0.473c-0.079,0-0.117,0.021-0.117,0.059
	c0,0.041,0.038,0.101,0.117,0.177c0.864,0,1.728,0,2.593,0c0.863,0,1.688,0,2.475,0c0.156-0.076,0.273-0.177,0.354-0.294
	c0.077-0.117,0.156-0.216,0.235-0.295c0.155-0.312,0.294-0.529,0.412-0.647c0.117-0.117,0.216-0.137,0.295-0.06
	c0.155,0,0.312,0.06,0.471,0.178c0.157,0.117,0.354,0.335,0.59,0.647c0.077,0.079,0.156,0.177,0.235,0.294
	c0.077,0.118,0.194,0.218,0.354,0.295c0.312,0,0.628,0.021,0.942,0.06c0.312,0.041,0.667,0.06,1.061,0.06
	c0.156-0.078,0.274-0.236,0.354-0.472c0.077-0.235,0.118-0.51,0.118-0.825c0.076-0.156,0.116-0.312,0.116-0.471
	c0-0.156-0.04-0.313-0.116-0.473c-0.079-0.471-0.219-0.884-0.413-1.236c-0.196-0.354-0.491-0.647-0.885-0.884
	c-0.157-0.156-0.394-0.354-0.705-0.59c-0.159-0.234-0.258-0.45-0.296-0.647c-0.041-0.194-0.021-0.412,0.06-0.647
	c0.077-0.312,0.235-0.647,0.472-1.002c0.236-0.354,0.549-0.805,0.942-1.354c0.234-0.236,0.472-0.53,0.707-0.884
	c0.234-0.354,0.472-0.688,0.707-1.003c0.077-0.155,0.194-0.332,0.354-0.529c0.156-0.195,0.312-0.372,0.472-0.53
	c0.235-0.156,0.432-0.312,0.59-0.471c0.155-0.156,0.273-0.313,0.354-0.473l0.117-0.354v-2.121c0-0.707,0.039-1.432,0.118-2.18
	c0.077-0.745,0.156-1.474,0.234-2.181s0.274-1.451,0.591-2.237c0.312-0.784,0.744-1.609,1.296-2.476
	c0.234-0.393,0.471-0.707,0.707-0.941c0.234-0.236,0.431-0.354,0.589-0.354c0.312,0,0.568,0.158,0.766,0.472
	c0.195,0.314,0.372,0.824,0.53,1.531c0,0.235,0.06,0.53,0.177,0.884c0.118,0.354,0.295,0.728,0.53,1.119
	c0.156,0.473,0.295,0.846,0.413,1.119c0.117,0.276,0.177,0.453,0.177,0.53c0.156,0.314,0.312,0.669,0.471,1.061
	c0.156,0.395,0.394,0.825,0.707,1.297c0.313,0.551,0.569,1.08,0.767,1.591c0.194,0.512,0.334,0.963,0.413,1.354
	c0.076,0.158,0.116,0.395,0.116,0.707c0,0.314,0,0.747,0,1.296c0,0.63,0.02,1.198,0.061,1.708c0.038,0.513,0.136,0.925,0.294,1.237
	c0.077,0.472,0.137,1.002,0.177,1.591c0.039,0.589,0.02,1.277-0.059,2.062c0,0.235-0.041,0.529-0.118,0.884
	c-0.079,0.354-0.196,0.688-0.354,1.002c-0.234,0.707-0.433,1.315-0.589,1.826c-0.158,0.512-0.275,0.925-0.354,1.236
	c0,0.235-0.06,0.513-0.178,0.825c-0.117,0.314-0.256,0.629-0.411,0.942c0,0.079-0.041,0.117-0.118,0.117
	c0.784,0.08,1.532,0.177,2.239,0.295c0.705,0.118,1.412,0.256,2.119,0.412c0-0.077,0-0.194,0-0.354c0-0.156-0.04-0.354-0.116-0.589
	c0-0.156,0-0.312,0-0.471c0-0.157,0-0.274,0-0.354c0.076-0.078,0.076-0.312,0-0.707c-0.079-0.393-0.236-0.901-0.473-1.532
	c-0.158-0.471-0.295-0.862-0.412-1.178c-0.117-0.312-0.177-0.549-0.177-0.707c0-0.157,0.02-0.354,0.06-0.59
	c0.038-0.235,0.098-0.51,0.177-0.824c0-0.155,0.019-0.354,0.059-0.589c0.039-0.236,0.061-0.549,0.061-0.942
	c0-0.472,0.059-0.901,0.177-1.297c0.117-0.392,0.254-0.744,0.412-1.061c0.077-0.235,0.155-0.51,0.234-0.824
	c0.078-0.312,0.118-0.59,0.118-0.825c0-0.393-0.021-0.766-0.059-1.118c-0.041-0.354-0.14-0.688-0.295-1.003
	c-0.158-0.312-0.256-0.628-0.295-0.941c-0.04-0.313-0.021-0.628,0.06-0.942c0-0.157,0.02-0.393,0.059-0.707
	c0.039-0.312,0.06-0.667,0.06-1.061s-0.021-0.727-0.06-1.002c-0.04-0.274-0.059-0.489-0.059-0.647
	c-0.079-0.312-0.139-0.961-0.177-1.943c-0.041-0.981-0.061-2.258-0.061-3.829l0.354-3.535c0.236-0.863,0.472-1.512,0.707-1.944
	c0.235-0.431,0.431-0.646,0.59-0.646c0.235,0,0.45,0.138,0.647,0.412c0.194,0.275,0.371,0.688,0.529,1.236c0,0.158,0,0.354,0,0.59
	c0,0.234,0.039,0.551,0.118,0.941c0,0.315,0,0.59,0,0.825s0.038,0.433,0.117,0.589c0.078,0.707,0.039,1.396-0.117,2.062
	c-0.158,0.668-0.433,1.315-0.825,1.942c-0.234,0.315-0.394,0.63-0.471,0.943c-0.079,0.313-0.118,0.55-0.118,0.707
	c0.077,0.158,0.177,0.294,0.295,0.412c0.117,0.116,0.294,0.217,0.53,0.294c0.156,0,0.312-0.038,0.471-0.117
	c0.077,0,0.216-0.118,0.412-0.354c0.195-0.234,0.413-0.549,0.648-0.941c0.312-0.394,0.568-0.707,0.766-0.943
	C488.491,634.679,488.591,634.483,488.591,634.325z M468.561,636.446c0.077,0.63,0.156,1.14,0.235,1.53
	c0.077,0.396,0.117,0.67,0.117,0.825c0.157,0.865,0.255,1.591,0.295,2.181c0.039,0.589,0.019,1.042-0.059,1.354
	c0,0.079,0,0.256,0,0.53s-0.041,0.608-0.118,1.001c0,0.63-0.118,1.258-0.354,1.886c-0.234,0.629-0.55,1.219-0.941,1.768
	c-0.158,0.314-0.295,0.57-0.412,0.767c-0.118,0.196-0.218,0.373-0.295,0.53c-0.158,0.234-0.314,0.433-0.473,0.589
	c-0.157,0.158-0.313,0.275-0.471,0.354c-0.158,0.079-0.315,0.118-0.472,0.118c-0.158,0-0.354-0.039-0.589-0.118
	c-0.315-0.155-0.63-0.354-0.942-0.589c-0.315-0.236-0.669-0.472-1.061-0.707c-0.158-0.235-0.335-0.49-0.53-0.767
	c-0.197-0.273-0.413-0.568-0.648-0.883c-0.234-0.394-0.433-0.727-0.589-1.002c-0.158-0.274-0.234-0.49-0.234-0.648
	c0-0.312,0.076-0.607,0.234-0.884c0.156-0.273,0.393-0.529,0.707-0.767c0.235-0.155,0.471-0.354,0.707-0.589
	c0.235-0.234,0.471-0.431,0.707-0.589c0.235-0.235,0.431-0.431,0.589-0.59c0.156-0.156,0.274-0.274,0.354-0.354
	c0-0.076,0.039-0.234,0.118-0.471c0.076-0.236,0.155-0.472,0.234-0.707c0-0.312,0.02-0.568,0.06-0.766
	c0.039-0.195,0.098-0.334,0.177-0.413c0.077-0.156,0.177-0.312,0.295-0.471c0.118-0.157,0.295-0.394,0.53-0.707
	c0.155-0.156,0.294-0.413,0.412-0.768c0.117-0.353,0.295-0.804,0.529-1.354c0.077-0.473,0.177-0.825,0.295-1.062
	c0.117-0.234,0.254-0.392,0.412-0.472c0.077-0.077,0.195-0.117,0.354-0.117c0.077,0,0.136,0.021,0.177,0.06
	c0.039,0.041,0.098,0.059,0.177,0.059c0.077,0.08,0.177,0.315,0.295,0.707C468.501,635.309,468.561,635.818,468.561,636.446z"/>
<path fill="#FFFFFF" d="M625.859,576.708c2.121,0,3.906,0.727,5.36,2.18c1.453,1.454,2.181,3.24,2.181,5.361v92.376
	c0,2.121-0.728,3.909-2.181,5.361c-1.454,1.453-3.239,2.18-5.36,2.18h-92.376c-2.121,0-3.909-0.727-5.361-2.18
	c-1.455-1.452-2.18-3.24-2.18-5.361v-92.376c0-2.121,0.725-3.907,2.18-5.361c1.452-1.453,3.24-2.18,5.361-2.18H625.859z
	 M567.771,638.567c1.179-1.101,2.062-2.396,2.65-3.89c0.589-1.49,0.884-3.182,0.884-5.065c0-2.277-0.63-4.024-1.886-5.243
	c-1.257-1.217-3.181-1.904-5.773-2.062h-11.899l-5.066,26.158h6.009l1.298-6.834h5.772c1.491,0.079,2.905-0.137,4.241-0.647
	C565.335,640.473,566.593,639.668,567.771,638.567z M561.055,627.138c1.256,0,2.22,0.235,2.888,0.707
	c0.666,0.473,1.002,1.22,1.002,2.239c-0.08,1.178-0.256,2.199-0.53,3.062c-0.276,0.865-0.648,1.531-1.12,2.004
	c-0.471,0.471-1.061,0.823-1.767,1.061c-0.707,0.235-1.493,0.394-2.357,0.471h-3.888l1.648-9.544H561.055L561.055,627.138z
	 M582.971,641.631h6.362l2.239-13.197c0.234-0.862,0.254-1.629,0.059-2.297c-0.197-0.667-0.57-1.314-1.119-1.943
	c-0.551-0.55-1.258-0.981-2.121-1.297c-0.864-0.312-1.886-0.511-3.062-0.59h-5.893l1.297-6.834h-6.127l-5.066,26.158h6.01
	l2.945-14.493h4.831c0.549,0,0.98,0.06,1.296,0.178c0.312,0.117,0.51,0.256,0.589,0.411c0.077,0.159,0.137,0.413,0.177,0.768
	c0.039,0.354,0.02,0.727-0.059,1.119L582.971,641.631z M610.896,638.567c1.179-1.101,2.079-2.396,2.71-3.89
	c0.628-1.49,0.941-3.182,0.941-5.065c0-2.277-0.646-4.024-1.942-5.243c-1.298-1.217-3.24-1.904-5.833-2.062h-11.9l-5.066,26.158
	h6.01l1.296-6.834h5.773c1.491,0.079,2.904-0.137,4.241-0.647C608.46,640.473,609.718,639.668,610.896,638.567z M604.18,627.138
	c1.255,0,2.219,0.235,2.888,0.707c0.666,0.473,1.001,1.22,1.001,2.239c-0.079,1.178-0.256,2.199-0.53,3.062
	c-0.275,0.865-0.647,1.531-1.119,2.004c-0.471,0.471-1.061,0.823-1.768,1.061c-0.707,0.235-1.493,0.394-2.356,0.471h-3.888
	l1.648-9.544H604.18L604.18,627.138z"/>
<path fill="#FFFFFF" d="M746.515,576.708c2.121,0,3.907,0.727,5.361,2.18c1.453,1.454,2.18,3.24,2.18,5.361v92.376
	c0,2.121-0.727,3.909-2.18,5.361c-1.454,1.453-3.24,2.18-5.361,2.18h-92.376c-2.121,0-3.908-0.727-5.36-2.18
	c-1.455-1.452-2.181-3.24-2.181-5.361v-92.376c0-2.121,0.726-3.907,2.181-5.361c1.452-1.453,3.239-2.18,5.36-2.18H746.515z
	 M684.302,635.268c0.157-0.392,0.334-0.805,0.53-1.236c0.195-0.432,0.413-0.883,0.648-1.354c0.312-0.472,0.666-0.884,1.061-1.236
	c0.392-0.354,0.902-0.688,1.531-1.003c0.549-0.312,1.179-0.548,1.886-0.705s1.491-0.236,2.356-0.236h14.375l0.941-0.117
	c0.235,0,0.51-0.019,0.825-0.06c0.312-0.038,0.666-0.137,1.061-0.294c0.472-0.157,0.901-0.334,1.297-0.53
	c0.392-0.195,0.783-0.413,1.178-0.648c0.393-0.312,0.767-0.666,1.12-1.061c0.354-0.393,0.687-0.902,1.001-1.531
	c0.234-0.549,0.431-1.158,0.589-1.827c0.157-0.666,0.236-1.394,0.236-2.18v-14.257c0-0.156-0.021-0.354-0.061-0.589
	c-0.04-0.235-0.099-0.473-0.177-0.707c-0.079-0.235-0.158-0.49-0.235-0.767c-0.079-0.273-0.197-0.53-0.354-0.767
	c-0.158-0.312-0.354-0.627-0.589-0.942c-0.235-0.312-0.513-0.628-0.825-0.941c-0.395-0.313-0.807-0.607-1.237-0.885
	c-0.433-0.273-0.924-0.529-1.473-0.766c-0.472-0.236-1.042-0.451-1.708-0.648c-0.669-0.194-1.436-0.372-2.298-0.529
	c-0.865-0.156-1.788-0.274-2.77-0.354c-0.982-0.077-2.022-0.117-3.123-0.117c-1.414,0-2.729,0.079-3.947,0.235
	c-1.219,0.158-2.338,0.354-3.356,0.589c-1.022,0.235-1.906,0.491-2.651,0.766c-0.748,0.276-1.315,0.571-1.709,0.885
	c-0.471,0.314-0.864,0.647-1.178,1.002c-0.315,0.354-0.59,0.728-0.825,1.119c-0.234,0.395-0.412,0.728-0.53,1.002
	c-0.116,0.274-0.177,0.49-0.177,0.646c0,0.158,0,0.295,0,0.413c0,0.117,0,0.217,0,0.294v7.188h14.61v2.238h-20.737
	c-0.079,0-0.197,0-0.354,0c-0.158,0-0.314,0-0.472,0c-0.235,0.079-0.453,0.139-0.647,0.178c-0.197,0.04-0.412,0.059-0.648,0.059
	c-0.313,0.079-0.589,0.177-0.824,0.295c-0.235,0.117-0.512,0.256-0.824,0.412c-0.235,0.158-0.491,0.335-0.767,0.53
	c-0.275,0.197-0.53,0.412-0.766,0.646c-0.315,0.159-0.59,0.396-0.825,0.707c-0.235,0.315-0.512,0.669-0.825,1.062
	c-0.234,0.395-0.452,0.825-0.646,1.296c-0.197,0.472-0.412,0.942-0.648,1.414c-0.158,0.472-0.313,1.021-0.471,1.648
	c-0.158,0.63-0.276,1.297-0.354,2.004c-0.157,0.707-0.256,1.454-0.295,2.238c-0.04,0.786-0.059,1.611-0.059,2.475
	c0,1.102,0.038,2.161,0.117,3.183c0.078,1.021,0.194,1.964,0.354,2.827c0.157,0.865,0.334,1.648,0.53,2.355
	c0.195,0.707,0.413,1.337,0.647,1.887c0.235,0.551,0.489,1.042,0.767,1.473c0.273,0.433,0.606,0.845,1.002,1.237
	c0.312,0.394,0.606,0.728,0.884,1.001c0.274,0.275,0.568,0.491,0.884,0.647c0.235,0.158,0.511,0.314,0.824,0.472
	c0.313,0.158,0.589,0.275,0.825,0.354c0.312,0.079,0.568,0.138,0.766,0.177c0.195,0.04,0.333,0.06,0.412,0.06
	c0.157,0,0.313,0,0.472,0h5.186v-8.483c0-0.312,0.038-0.647,0.117-1.002C684.026,636.151,684.144,635.739,684.302,635.268z
	 M729.901,636.446c0.234-0.863,0.392-1.786,0.472-2.771c0.077-0.979,0.117-2.021,0.117-3.122c0-1.099-0.04-2.159-0.117-3.182
	c-0.08-1.021-0.197-1.962-0.354-2.827c-0.158-0.863-0.336-1.649-0.529-2.356c-0.197-0.706-0.413-1.335-0.648-1.886
	c-0.235-0.549-0.491-1.04-0.766-1.473c-0.276-0.432-0.609-0.844-1.002-1.237c-0.314-0.392-0.609-0.726-0.884-1.002
	c-0.276-0.272-0.57-0.489-0.885-0.646c-0.234-0.156-0.512-0.313-0.823-0.473c-0.315-0.155-0.591-0.273-0.825-0.354
	c-0.314-0.077-0.57-0.136-0.767-0.177c-0.196-0.038-0.335-0.06-0.411-0.06c-0.158,0-0.315,0-0.473,0h-5.185v8.483
	c0,0.314-0.04,0.647-0.117,1.002c-0.08,0.354-0.197,0.766-0.354,1.236c-0.158,0.395-0.336,0.807-0.529,1.236
	c-0.197,0.434-0.413,0.884-0.648,1.355c-0.313,0.472-0.668,0.884-1.061,1.236c-0.395,0.354-0.904,0.688-1.531,1.001
	c-0.551,0.315-1.179,0.552-1.886,0.707c-0.707,0.159-1.493,0.236-2.356,0.236h-15.316c-0.235,0-0.513,0.04-0.825,0.117
	c-0.314,0.079-0.668,0.196-1.062,0.354c-0.471,0.158-0.902,0.335-1.296,0.53c-0.394,0.197-0.786,0.413-1.178,0.648
	c-0.396,0.313-0.768,0.668-1.12,1.061c-0.354,0.394-0.688,0.903-1.001,1.531c-0.236,0.551-0.433,1.16-0.589,1.826
	c-0.159,0.669-0.236,1.396-0.236,2.181v14.257c0,0.158,0.02,0.354,0.061,0.589c0.038,0.235,0.097,0.472,0.177,0.707
	c0.077,0.235,0.156,0.491,0.235,0.767c0.076,0.275,0.194,0.57,0.354,0.884c0.156,0.235,0.354,0.512,0.589,0.825
	s0.51,0.63,0.825,0.941c0.392,0.314,0.805,0.609,1.237,0.884c0.431,0.276,0.922,0.53,1.473,0.767
	c0.471,0.235,1.04,0.453,1.708,0.647c0.667,0.197,1.433,0.374,2.298,0.53c0.863,0.158,1.786,0.276,2.77,0.354
	c0.98,0.079,2.021,0.117,3.122,0.117c1.414,0,2.729-0.059,3.947-0.177c1.217-0.117,2.336-0.333,3.357-0.646
	c1.021-0.235,1.886-0.49,2.593-0.767c0.707-0.273,1.296-0.568,1.769-0.884c0.471-0.313,0.862-0.648,1.178-1.002
	c0.312-0.354,0.589-0.726,0.825-1.119c0.234-0.393,0.411-0.726,0.529-1.002c0.117-0.274,0.178-0.489,0.178-0.647
	c0-0.156,0-0.295,0-0.412s0-0.216,0-0.295v-7.188h-14.611v-2.239H721.3c0.156,0,0.333,0,0.53,0c0.195,0,0.451-0.038,0.766-0.117
	c0.313-0.077,0.628-0.177,0.943-0.295c0.312-0.117,0.627-0.254,0.942-0.411c0.392-0.077,0.766-0.255,1.118-0.53
	c0.354-0.274,0.688-0.569,1.002-0.884c0.393-0.394,0.745-0.806,1.061-1.237c0.312-0.431,0.59-0.922,0.825-1.474
	c0.312-0.472,0.589-1.061,0.825-1.768C729.548,638.096,729.743,637.312,729.901,636.446z M692.079,603.808
	c0.312,0,0.627,0.079,0.942,0.236c0.312,0.158,0.589,0.354,0.823,0.589c0.313,0.235,0.53,0.53,0.648,0.884
	c0.118,0.354,0.177,0.729,0.177,1.119c0,0.396-0.059,0.748-0.177,1.062s-0.335,0.589-0.648,0.824
	c-0.234,0.314-0.512,0.53-0.823,0.647c-0.315,0.118-0.631,0.177-0.942,0.177c-0.396,0-0.748-0.059-1.062-0.177
	c-0.314-0.117-0.59-0.333-0.824-0.647c-0.235-0.235-0.412-0.511-0.53-0.824c-0.117-0.312-0.177-0.666-0.177-1.062
	c0-0.392,0.06-0.766,0.177-1.119c0.118-0.354,0.295-0.647,0.53-0.884c0.234-0.235,0.51-0.431,0.824-0.589
	C691.331,603.887,691.685,603.808,692.079,603.808z M708.574,657.066c-0.314,0-0.629-0.078-0.942-0.236
	c-0.313-0.156-0.589-0.354-0.824-0.589c-0.314-0.235-0.529-0.53-0.647-0.884c-0.118-0.354-0.177-0.727-0.177-1.119
	c0-0.394,0.059-0.746,0.177-1.062c0.118-0.312,0.333-0.589,0.647-0.825c0.235-0.312,0.511-0.529,0.824-0.646
	c0.313-0.118,0.628-0.177,0.942-0.177c0.393,0,0.746,0.059,1.061,0.177c0.313,0.117,0.589,0.335,0.825,0.646
	c0.235,0.236,0.412,0.513,0.53,0.825c0.117,0.314,0.177,0.668,0.177,1.062s-0.06,0.766-0.177,1.119
	c-0.118,0.354-0.295,0.647-0.53,0.884c-0.236,0.234-0.512,0.433-0.825,0.589C709.32,656.988,708.967,657.066,708.574,657.066z"/>
<path fill="#FFFFFF" d="M867.17,576.708c2.121,0,3.907,0.727,5.361,2.18c1.453,1.454,2.18,3.24,2.18,5.361v92.376
	c0,2.121-0.727,3.909-2.18,5.361c-1.454,1.453-3.24,2.18-5.361,2.18h-92.376c-2.121,0-3.909-0.727-5.361-2.18
	c-1.455-1.452-2.18-3.24-2.18-5.361v-92.376c0-2.121,0.725-3.907,2.18-5.361c1.452-1.453,3.24-2.18,5.361-2.18H867.17z
	 M787.872,652.706l6.01,0.825l1.062-6.362l-6.363-0.472L787.872,652.706z M794.589,626.312l-1.648,5.185l5.536,1.768l1.769-4.713
	L794.589,626.312z M852.678,612.646l1.531-2.239l-1.178-0.942c-0.315-0.312-0.729-0.667-1.237-1.061
	c-0.512-0.394-1.119-0.825-1.826-1.296c-0.707-0.473-1.455-0.924-2.239-1.355c-0.785-0.431-1.609-0.884-2.475-1.354
	c-0.786-0.473-1.688-0.885-2.71-1.237c-1.021-0.354-2.12-0.648-3.299-0.884c-1.179-0.313-2.338-0.49-3.477-0.53
	c-1.14-0.039-2.26-0.02-3.357,0.059c-2.907,0.315-5.597,0.942-8.071,1.887c-2.475,0.941-4.812,2.278-7.011,4.006
	c-2.121,1.648-4.085,3.555-5.892,5.715c-1.809,2.161-3.418,4.576-4.83,7.246c-1.414,2.593-2.673,5.027-3.771,7.306
	c-1.102,2.279-2.044,4.399-2.828,6.362c-0.707,1.965-1.375,4.025-2.003,6.186c-0.63,2.162-1.219,4.46-1.768,6.895
	c-0.707,3.378-1.16,6.361-1.355,8.955c-0.196,2.592-0.138,4.792,0.177,6.598h32.403l-0.825-1.768
	c-0.234-0.627-0.49-1.354-0.766-2.181c-0.276-0.823-0.571-1.747-0.884-2.769c-0.315-1.021-0.63-2.121-0.943-3.299
	c-0.313-1.18-0.629-2.436-0.942-3.771c-0.234-1.335-0.471-2.71-0.706-4.124s-0.395-2.867-0.472-4.359
	c-0.079-1.491-0.118-2.983-0.118-4.478c0-1.491,0.077-2.984,0.235-4.478c0.236-1.808,0.59-3.494,1.061-5.066
	c0.473-1.571,1.101-3.103,1.887-4.596c0.784-1.491,1.629-2.809,2.533-3.947c0.901-1.138,1.864-2.14,2.887-3.005
	c1.02-0.942,2.062-1.747,3.122-2.415c1.061-0.667,2.101-1.237,3.123-1.709c1.02-0.471,2.003-0.863,2.944-1.178
	c0.942-0.313,1.886-0.511,2.828-0.589s1.886-0.061,2.827,0.059c0.943,0.118,1.845,0.294,2.711,0.53
	c0.863,0.313,1.59,0.608,2.181,0.884c0.589,0.276,1.039,0.53,1.354,0.766c0.235,0.235,0.472,0.453,0.707,0.648
	C852.441,612.312,852.599,612.488,852.678,612.646z M805.547,610.288l-3.417,3.771l4.359,2.946l3.182-3.889L805.547,610.288z
	 M819.097,599.92l-4.006,2.003l2.945,3.535l4.006-2.357L819.097,599.92z M828.052,639.981l-4.478-2.476l-0.354,4.359l5.186,2.121
	L828.052,639.981z M828.641,629.141l-3.417-2.71l-1.648,3.183l4.124,3.535L828.641,629.141z M830.29,652.589h-5.302l1.178,4.359
	l6.363,0.472L830.29,652.589z M827.463,618.654l3.534,3.889l1.414-2.475l-2.356-3.653L827.463,618.654z M834.532,598.152
	l-5.186-0.235l0.707,3.534l4.948-0.117L834.532,598.152z M836.653,615.591l2.355-1.886l-0.472-1.885l-3.417,0.824L836.653,615.591z
	 M848.789,613.234v-1.414l-3.299-0.707v1.768L848.789,613.234z M846.314,601.688l-0.235,2.238l3.417,1.769l0.825-1.18
	L846.314,601.688z"/>
<path fill="#FFFFFF" d="M987.824,576.708c2.121,0,3.906,0.727,5.36,2.18c1.453,1.454,2.181,3.24,2.181,5.361v92.376
	c0,2.121-0.728,3.909-2.181,5.361c-1.453,1.453-3.239,2.18-5.36,2.18h-92.376c-2.121,0-3.909-0.727-5.361-2.18
	c-1.455-1.452-2.18-3.24-2.18-5.361v-92.376c0-2.121,0.725-3.907,2.18-5.361c1.452-1.453,3.24-2.18,5.361-2.18H987.824z
	 M907.819,656.359l-0.117,1.061l5.892-18.264l-3.771-3.183L907.819,656.359z M914.653,641.748l-6.244,20.385l15.553-2.003
	L914.653,641.748z M909.47,664.254l59.738-0.236l-43.832-1.768h-0.354L909.47,664.254z M915.832,624.192l-5.066,9.661l3.652,3.063
	l12.726-8.013l14.492-16.144l3.417-8.837l-5.302-1.414l-11.665,8.13L915.832,624.192z M923.845,655.888l3.417-24.626l-11.9,7.659
	L923.845,655.888z M929.265,631.497l-3.889,27.926l28.868-22.741L929.265,631.497z M927.379,660.719l46.424,1.769l-17.908-24.272
	L927.379,660.719z M929.5,629.612l24.037,5.302l-10.604-20.266L929.5,629.612z M961.902,596.62l-18.971,4.478l2.945,0.707
	L961.902,596.62z M943.993,612.763l23.447-5.892l-19.913-3.182L943.993,612.763z M944.936,614.648l10.723,20.502l14.61-27.336
	L944.936,614.648z M972.86,606.047l-4.241-9.189l-17.086,5.42L972.86,606.047z M957.071,637.153l18.499,25.097l-2.476-55.143
	L957.071,637.153z"/>
<path fill="#FFFFFF" d="M1108.479,576.708c2.121,0,3.907,0.727,5.361,2.18c1.453,1.454,2.18,3.24,2.18,5.361v92.376
	c0,2.121-0.727,3.909-2.18,5.361c-1.454,1.453-3.24,2.18-5.361,2.18h-92.375c-2.121,0-3.909-0.727-5.361-2.18
	c-1.455-1.452-2.18-3.24-2.18-5.361v-92.376c0-2.121,0.725-3.907,2.18-5.361c1.452-1.453,3.24-2.18,5.361-2.18H1108.479z
	 M1086.917,612.527l0.236-16.024c-0.396,0.471-1.12,0.942-2.181,1.414c-1.061,0.471-2.456,0.942-4.184,1.414
	c-1.649,0.394-3.613,0.806-5.891,1.236c-2.279,0.433-4.872,0.884-7.777,1.354c-2.827,0.395-5.401,0.747-7.718,1.062
	c-2.317,0.313-4.341,0.589-6.067,0.823c-1.809,0.159-3.85,0.374-6.127,0.648c-2.279,0.275-4.831,0.57-7.659,0.884
	c-0.472,0-0.884,0.021-1.237,0.06c-0.354,0.041-0.646,0.1-0.884,0.177V621.6c0.313-0.076,0.784-0.136,1.414-0.177
	c0.628-0.038,1.335-0.098,2.121-0.177c1.806-0.156,3.417-0.294,4.831-0.412s2.631-0.254,3.652-0.412
	c1.1-0.077,2.414-0.195,3.946-0.354c1.532-0.156,3.279-0.354,5.243-0.59c2.042-0.156,3.889-0.354,5.538-0.59
	c1.649-0.234,3.103-0.471,4.359-0.707c1.335-0.155,2.689-0.371,4.064-0.646c1.373-0.274,2.77-0.569,4.183-0.884
	c1.414-0.236,2.689-0.511,3.829-0.825c1.139-0.312,2.141-0.666,3.005-1.062c0.863-0.392,1.57-0.766,2.121-1.118
	C1086.288,613.293,1086.682,612.921,1086.917,612.527z M1037.43,627.138v15.907c0.313,0,0.767-0.039,1.355-0.118
	c0.589-0.077,1.313-0.118,2.18-0.118c1.728-0.155,3.317-0.312,4.771-0.471c1.453-0.157,2.689-0.273,3.712-0.354
	c1.1-0.077,2.415-0.195,3.947-0.354c1.531-0.157,3.278-0.354,5.243-0.59c2.041-0.235,3.867-0.45,5.479-0.647
	c1.608-0.194,3.082-0.411,4.418-0.647c1.335-0.235,2.67-0.471,4.006-0.707c1.335-0.235,2.749-0.51,4.242-0.824
	c1.414-0.235,2.688-0.53,3.829-0.884c1.138-0.354,2.14-0.688,3.005-1.002c0.863-0.393,1.57-0.784,2.121-1.178
	c0.549-0.394,0.941-0.784,1.178-1.18l0.236-15.905c-0.396,0.471-1.12,0.924-2.181,1.354c-1.061,0.433-2.456,0.884-4.184,1.355
	c-1.649,0.471-3.613,0.924-5.892,1.354c-2.278,0.433-4.871,0.846-7.776,1.237c-2.827,0.472-5.401,0.865-7.718,1.179
	c-2.317,0.314-4.342,0.55-6.067,0.707c-1.809,0.235-3.87,0.491-6.187,0.766c-2.317,0.276-4.852,0.57-7.601,0.885
	c-0.472,0-0.884,0.021-1.237,0.059C1037.96,627.002,1037.666,627.061,1037.43,627.138z M1087.035,655.299l0.118-16.023
	c-0.396,0.55-1.12,1.061-2.181,1.53c-1.061,0.473-2.456,0.942-4.184,1.414c-1.649,0.395-3.613,0.808-5.891,1.237
	c-2.279,0.433-4.872,0.845-7.777,1.237c-2.827,0.471-5.401,0.864-7.718,1.178c-2.317,0.315-4.341,0.551-6.067,0.707
	c-1.809,0.236-3.85,0.492-6.127,0.766c-2.279,0.276-4.831,0.53-7.659,0.768c-0.472,0.079-0.884,0.138-1.237,0.177
	c-0.354,0.04-0.646,0.059-0.884,0.059v16.024c0.394,0,0.884-0.038,1.474-0.117c0.59-0.078,1.275-0.157,2.062-0.236
	c1.806-0.155,3.437-0.294,4.89-0.411c1.453-0.118,2.689-0.217,3.713-0.295c1.099-0.156,2.415-0.312,3.946-0.472
	c1.531-0.157,3.278-0.312,5.243-0.472c1.962-0.235,3.771-0.451,5.42-0.648c1.649-0.193,3.142-0.412,4.479-0.646
	c1.256-0.156,2.572-0.372,3.947-0.648c1.373-0.273,2.769-0.567,4.183-0.884c1.491-0.312,2.808-0.628,3.947-0.942
	c1.138-0.312,2.14-0.666,3.005-1.061c0.784-0.312,1.473-0.666,2.062-1.061C1086.387,656.085,1086.8,655.692,1087.035,655.299z"/>
<path fill="#FFFFFF" d="M1229.135,576.708c2.121,0,3.907,0.727,5.361,2.18c1.453,1.454,2.18,3.24,2.18,5.361v92.376
	c0,2.121-0.727,3.909-2.18,5.361c-1.454,1.453-3.24,2.18-5.361,2.18h-92.376c-2.121,0-3.909-0.727-5.36-2.18
	c-1.455-1.452-2.181-3.24-2.181-5.361v-92.376c0-2.121,0.726-3.907,2.181-5.361c1.451-1.453,3.239-2.18,5.36-2.18H1229.135z
	 M1212.403,657.302c1.49-3.69,0-8.994-4.479-15.907c1.179-4.477,1.474-8.521,0.884-12.136c-0.589-3.611-2.22-7.678-4.89-12.194
	c-2.671-4.517-7.346-9.015-14.021-13.491c2.197,3.143,3.788,6.05,4.771,8.72c0.98,2.671,1.668,5.755,2.062,9.249
	c0.393,3.496-0.118,7.129-1.531,10.899c-4.242-3.063-7.896-5.773-10.958-8.132c-3.063-2.355-6.267-4.928-9.604-7.718
	c-3.34-2.787-6.227-5.398-8.66-7.835c2.594,3.771,4.79,6.854,6.6,9.249c1.806,2.397,3.651,4.754,5.538,7.07
	c1.885,2.316,3.376,3.947,4.477,4.89c-7.699-4.949-15.788-10.997-24.271-18.146c4.24,5.343,7.854,9.761,10.84,13.256
	c2.983,3.496,6.127,6.933,9.426,10.31c3.3,3.378,6.087,5.735,8.366,7.069c-3.3,1.648-6.462,2.65-9.485,3.005
	s-6.618,0.118-10.781-0.707c-4.164-0.825-8.799-2.887-13.902-6.186c2.669,3.929,5.379,7.051,8.13,9.366
	c2.749,2.317,6.204,4.459,10.369,6.422c4.162,1.965,9.071,2.945,14.728,2.945c5.026,0,8.661-0.862,10.899-2.593
	c2.239-1.727,4.614-2.592,7.129-2.592C1206.63,652.117,1209.417,653.846,1212.403,657.302z"/>
<g id="Logo">
	<g>
		<path fill="#FFFFFF" d="M481.787,276.927v47.653c5.182-5.372,11.051-8.06,17.611-8.06c7.559,0,13.85,2.821,18.879,8.461
			c5.022,5.604,7.539,12.584,7.539,20.95c0,8.632-2.533,15.768-7.601,21.41c-5.024,5.603-11.377,8.402-19.051,8.402
			c-6.482,0-12.279-2.496-17.381-7.481v5.87h-12.949v-97.207L481.787,276.927L481.787,276.927z M512.578,346.507
			c0-5.372-1.457-9.744-4.375-13.121c-2.955-3.454-6.656-5.181-11.107-5.181c-4.76,0-8.633,1.671-11.625,5.009
			c-2.955,3.3-4.434,7.595-4.434,12.889c0,5.45,1.457,9.809,4.375,13.066c2.916,3.339,6.754,5.008,11.51,5.008
			c4.49,0,8.211-1.669,11.166-5.008C511.082,355.793,512.578,351.572,512.578,346.507z"/>
		<path fill="#FFFFFF" d="M537.557,294.767c0-2.265,0.824-4.22,2.478-5.87c1.647-1.648,3.625-2.477,5.93-2.477
			c2.34,0,4.334,0.826,5.984,2.477c1.647,1.611,2.475,3.588,2.475,5.928c0,2.342-0.824,4.336-2.475,5.985
			c-1.613,1.651-3.588,2.475-5.931,2.475c-2.342,0-4.336-0.822-5.983-2.475C538.381,299.16,537.557,297.146,537.557,294.767z
			 M552.461,318.078v56.055h-12.947v-56.055H552.461z"/>
		<path fill="#FFFFFF" d="M582.215,330.162v43.971h-12.947v-43.971h-5.522v-12.086h5.522v-20.547h12.947v20.547h10.072v12.086
			H582.215z"/>
		<path fill="#FFFFFF" d="M616.979,285.271v88.862H603.57v-88.862H616.979z"/>
		<path fill="#FFFFFF" d="M679.479,320.494v17.209c-2.952-3.606-5.602-6.08-7.938-7.426c-2.301-1.382-5.008-2.071-8.115-2.071
			c-4.875,0-8.918,1.709-12.145,5.123c-3.228,3.415-4.834,7.692-4.834,12.833c0,5.259,1.555,9.574,4.662,12.95
			c3.146,3.375,7.151,5.063,12.024,5.063c3.109,0,5.854-0.671,8.229-2.016c2.301-1.304,5.008-3.836,8.112-7.597v17.094
			c-5.258,2.724-10.514,4.086-15.77,4.086c-8.67,0-15.922-2.799-21.754-8.401c-5.832-5.642-8.75-12.643-8.75-21.006
			c0-8.365,2.955-15.427,8.865-21.183c5.903-5.754,13.155-8.633,21.754-8.633C669.354,316.521,674.568,317.846,679.479,320.494z"/>
		<path fill="#FFFFFF" d="M689.379,345.703c0-8.097,2.898-14.983,8.691-20.661c5.793-5.679,12.852-8.519,21.18-8.519
			c8.363,0,15.461,2.859,21.295,8.575c5.754,5.718,8.633,12.739,8.633,21.064c0,8.401-2.896,15.441-8.688,21.121
			c-5.832,5.64-12.988,8.46-21.472,8.46c-8.399,0-15.44-2.88-21.118-8.634C692.219,361.434,689.379,354.298,689.379,345.703z
			 M702.617,345.933c0,5.603,1.498,10.035,4.49,13.294c3.065,3.3,7.112,4.949,12.143,4.949c5.064,0,9.111-1.629,12.146-4.893
			c3.024-3.26,4.547-7.614,4.547-13.064c0-5.446-1.521-9.803-4.547-13.062c-3.07-3.302-7.119-4.95-12.146-4.95
			c-4.949,0-8.959,1.648-12.027,4.95C704.152,336.455,702.617,340.715,702.617,345.933z"/>
		<path fill="#FFFFFF" d="M762.873,318.078h13.008v5.178c4.527-4.489,9.631-6.734,15.312-6.734c6.521,0,11.604,2.054,15.252,6.16
			c3.145,3.491,4.719,9.188,4.719,17.093v34.358h-13.008v-31.27c0-5.519-0.771-9.332-2.306-11.438
			c-1.493-2.146-4.221-3.222-8.172-3.222c-4.297,0-7.348,1.42-9.147,4.255c-1.769,2.798-2.648,7.684-2.648,14.656v27.017h-13.006
			v-56.053H762.873L762.873,318.078z"/>
	</g>
	<g>
		<path fill="#FFFFFF" d="M596.305,117l-58.381,44.061l58.381,38.921v33.047l-84.451-60.584v-19.828l84.451-68.664V117z
			 M628.617,261.302h-23.5L651.75,58.618h23.498L628.617,261.302z M768.146,172.445l-84.451,60.584v-33.047l58.381-38.921
			L683.695,117V83.954l84.451,68.664V172.445z"/>
	</g>
</g>
</svg>
