<?xml version="1.0" encoding="utf-8"?>
<!-- Generator: Adobe Illustrator 16.0.0, SVG Export Plug-In . SVG Version: 6.00 Build 0)  -->
<!DOCTYPE svg PUBLIC "-//W3C//DTD SVG 1.1//EN" "http://www.w3.org/Graphics/SVG/1.1/DTD/svg11.dtd">
<svg version="1.1" id="Layer_1" xmlns="http://www.w3.org/2000/svg" xmlns:xlink="http://www.w3.org/1999/xlink" x="0px" y="0px"
	 width="1280px" height="480px" viewBox="0 0 1280 480" enable-background="new 0 0 1280 480" xml:space="preserve">
<path id="Background" fill="#333333" d="M1280,470c0,5.521-4.479,10-10,10H10c-5.523,0-10-4.479-10-10V10C0,4.477,4.477,0,10,0h1260
	c5.521,0,10,4.477,10,10V470z"/>
<g id="Logo">
	<g>
		<path fill="#FFFFFF" d="M99.037,299.746v47.653c5.182-5.372,11.051-8.06,17.611-8.06c7.559,0,13.85,2.821,18.879,8.461
			c5.022,5.604,7.539,12.584,7.539,20.95c0,8.633-2.533,15.769-7.601,21.41c-5.024,5.603-11.377,8.402-19.051,8.402
			c-6.482,0-12.279-2.496-17.381-7.481v5.87H86.085v-97.207L99.037,299.746L99.037,299.746z M129.828,369.326
			c0-5.372-1.457-9.744-4.375-13.121c-2.955-3.454-6.656-5.181-11.107-5.181c-4.76,0-8.633,1.671-11.625,5.009
			c-2.955,3.3-4.434,7.596-4.434,12.889c0,5.451,1.457,9.81,4.375,13.066c2.916,3.339,6.754,5.008,11.51,5.008
			c4.49,0,8.211-1.669,11.166-5.008C128.332,378.612,129.828,374.391,129.828,369.326z"/>
		<path fill="#FFFFFF" d="M154.807,317.586c0-2.265,0.824-4.22,2.478-5.87c1.647-1.648,3.625-2.477,5.93-2.477
			c2.34,0,4.334,0.826,5.984,2.477c1.647,1.611,2.475,3.588,2.475,5.928c0,2.342-0.824,4.336-2.475,5.985
			c-1.613,1.651-3.588,2.475-5.931,2.475c-2.342,0-4.336-0.822-5.983-2.475C155.631,321.979,154.807,319.965,154.807,317.586z
			 M169.711,340.897v56.055h-12.947v-56.055H169.711z"/>
		<path fill="#FFFFFF" d="M199.465,352.981v43.971h-12.947v-43.971h-5.522v-12.086h5.522v-20.547h12.947v20.547h10.072v12.086
			H199.465z"/>
		<path fill="#FFFFFF" d="M234.229,308.09v88.862H220.82V308.09H234.229z"/>
		<path fill="#FFFFFF" d="M296.729,343.313v17.209c-2.952-3.606-5.602-6.08-7.938-7.426c-2.301-1.382-5.008-2.071-8.115-2.071
			c-4.875,0-8.918,1.709-12.145,5.123c-3.228,3.415-4.834,7.691-4.834,12.833c0,5.259,1.555,9.573,4.662,12.95
			c3.146,3.374,7.151,5.062,12.024,5.062c3.109,0,5.854-0.671,8.229-2.016c2.301-1.304,5.008-3.836,8.112-7.598v17.095
			c-5.258,2.724-10.514,4.086-15.77,4.086c-8.67,0-15.922-2.799-21.754-8.401c-5.832-5.642-8.75-12.643-8.75-21.006
			c0-8.365,2.955-15.427,8.865-21.183c5.903-5.754,13.155-8.633,21.754-8.633C286.604,339.34,291.818,340.666,296.729,343.313z"/>
		<path fill="#FFFFFF" d="M306.629,368.522c0-8.097,2.898-14.983,8.691-20.661c5.793-5.679,12.852-8.519,21.18-8.519
			c8.363,0,15.461,2.859,21.295,8.575c5.754,5.718,8.633,12.739,8.633,21.064c0,8.401-2.896,15.441-8.688,21.121
			c-5.832,5.64-12.988,8.46-21.472,8.46c-8.399,0-15.44-2.88-21.118-8.634C309.469,384.253,306.629,377.117,306.629,368.522z
			 M319.867,368.752c0,5.604,1.498,10.035,4.49,13.295c3.065,3.3,7.112,4.948,12.143,4.948c5.064,0,9.111-1.629,12.146-4.893
			c3.024-3.261,4.547-7.614,4.547-13.063c0-5.447-1.521-9.804-4.547-13.062c-3.07-3.302-7.119-4.95-12.146-4.95
			c-4.949,0-8.959,1.648-12.027,4.95C321.402,359.274,319.867,363.534,319.867,368.752z"/>
		<path fill="#FFFFFF" d="M380.123,340.897h13.008v5.178c4.527-4.489,9.631-6.734,15.312-6.734c6.521,0,11.604,2.054,15.252,6.16
			c3.145,3.491,4.719,9.188,4.719,17.092v34.358h-13.008v-31.271c0-5.519-0.771-9.331-2.306-11.438
			c-1.493-2.146-4.221-3.222-8.172-3.222c-4.297,0-7.348,1.42-9.147,4.255c-1.769,2.798-2.648,7.684-2.648,14.656v27.017h-13.006
			v-56.053H380.123L380.123,340.897z"/>
	</g>
	<g>
		<path fill="#FFFFFF" d="M213.555,139.819l-58.381,44.061l58.381,38.921v33.047l-84.451-60.584v-19.828l84.451-68.664V139.819z
			 M245.867,284.121h-23.5L269,81.438h23.498L245.867,284.121z M385.396,195.264l-84.451,60.584v-33.047l58.381-38.921
			l-58.381-44.061v-33.046l84.451,68.664V195.264z"/>
	</g>
</g>
<text transform="matrix(1 0 0 1 489.998 124.46)" fill="#FFFFFF" font-family="'Futura-Medium'" font-size="48.8554">Release vX.X</text>
<text transform="matrix(1 0 0 1 489.998 396.6758)" fill="#FFFFFF" font-family="'Myriad-Roman'" font-size="241.3333">ICONS</text>
</svg>
