<?xml version="1.0" encoding="utf-8"?>
<!-- Generator: Adobe Illustrator 16.0.0, SVG Export Plug-In . SVG Version: 6.00 Build 0)  -->
<!DOCTYPE svg PUBLIC "-//W3C//DTD SVG 1.1//EN" "http://www.w3.org/Graphics/SVG/1.1/DTD/svg11.dtd">
<svg version="1.1" id="Layer_1" xmlns="http://www.w3.org/2000/svg" xmlns:xlink="http://www.w3.org/1999/xlink" x="0px" y="0px"
	 width="1280px" height="480px" viewBox="0 0 1280 480" enable-background="new 0 0 1280 480" xml:space="preserve">
<path id="Background" fill="#333333" d="M1280,470c0,5.521-4.479,10-10,10H10c-5.523,0-10-4.479-10-10V10C0,4.477,4.477,0,10,0h1260
	c5.521,0,10,4.477,10,10V470z"/>
<g id="Logo">
	<g>
		<path fill="#FFFFFF" d="M99.037,299.746v47.652c5.182-5.371,11.051-8.061,17.611-8.061c7.559,0,13.85,2.821,18.879,8.461
			c5.022,5.604,7.539,12.584,7.539,20.95c0,8.633-2.533,15.771-7.601,21.41c-5.024,5.604-11.377,8.401-19.051,8.401
			c-6.482,0-12.279-2.495-17.381-7.48v5.87H86.085v-97.207L99.037,299.746L99.037,299.746z M129.828,369.326
			c0-5.372-1.457-9.744-4.375-13.121c-2.955-3.454-6.656-5.182-11.107-5.182c-4.76,0-8.633,1.672-11.625,5.01
			c-2.955,3.3-4.434,7.596-4.434,12.889c0,5.451,1.457,9.811,4.375,13.066c2.916,3.339,6.754,5.008,11.51,5.008
			c4.49,0,8.211-1.669,11.166-5.008C128.332,378.611,129.828,374.391,129.828,369.326z"/>
		<path fill="#FFFFFF" d="M154.807,317.586c0-2.266,0.824-4.22,2.478-5.87c1.647-1.647,3.625-2.477,5.93-2.477
			c2.34,0,4.334,0.825,5.984,2.477c1.647,1.611,2.475,3.589,2.475,5.929c0,2.342-0.824,4.336-2.475,5.984
			c-1.613,1.65-3.588,2.475-5.931,2.475c-2.342,0-4.336-0.82-5.983-2.475C155.631,321.979,154.807,319.965,154.807,317.586z
			 M169.711,340.896v56.056h-12.947v-56.056H169.711z"/>
		<path fill="#FFFFFF" d="M199.465,352.98v43.972h-12.947V352.98h-5.522v-12.086h5.522v-20.547h12.947v20.547h10.072v12.086H199.465
			z"/>
		<path fill="#FFFFFF" d="M234.229,308.09v88.862H220.82V308.09H234.229z"/>
		<path fill="#FFFFFF" d="M296.729,343.312v17.209c-2.952-3.605-5.602-6.08-7.938-7.426c-2.301-1.383-5.008-2.07-8.115-2.07
			c-4.875,0-8.918,1.709-12.145,5.123c-3.228,3.414-4.834,7.689-4.834,12.832c0,5.26,1.555,9.572,4.662,12.951
			c3.146,3.372,7.151,5.062,12.024,5.062c3.109,0,5.854-0.671,8.229-2.017c2.301-1.305,5.008-3.836,8.112-7.599v17.097
			c-5.258,2.724-10.514,4.084-15.77,4.084c-8.67,0-15.922-2.799-21.754-8.399c-5.832-5.642-8.75-12.644-8.75-21.007
			c0-8.364,2.955-15.426,8.865-21.184c5.903-5.754,13.155-8.633,21.754-8.633C286.604,339.34,291.818,340.666,296.729,343.312z"/>
		<path fill="#FFFFFF" d="M306.629,368.521c0-8.098,2.898-14.982,8.691-20.66c5.793-5.68,12.852-8.521,21.18-8.521
			c8.363,0,15.461,2.859,21.295,8.575c5.754,5.718,8.633,12.739,8.633,21.062c0,8.401-2.896,15.441-8.688,21.121
			c-5.832,5.642-12.988,8.46-21.474,8.46c-8.397,0-15.438-2.88-21.116-8.634C309.469,384.253,306.629,377.117,306.629,368.521z
			 M319.867,368.752c0,5.604,1.498,10.035,4.49,13.295c3.063,3.301,7.11,4.948,12.143,4.948c5.064,0,9.111-1.629,12.146-4.894
			c3.022-3.262,4.547-7.613,4.547-13.062c0-5.447-1.521-9.805-4.547-13.062c-3.07-3.302-7.119-4.949-12.146-4.949
			c-4.949,0-8.959,1.647-12.027,4.949C321.402,359.273,319.867,363.534,319.867,368.752z"/>
		<path fill="#FFFFFF" d="M380.123,340.896h13.008v5.179c4.527-4.489,9.631-6.734,15.312-6.734c6.521,0,11.604,2.054,15.252,6.16
			c3.145,3.491,4.719,9.188,4.719,17.092v34.358h-13.008V365.68c0-5.519-0.771-9.33-2.308-11.438
			c-1.491-2.146-4.221-3.223-8.172-3.223c-4.297,0-7.348,1.42-9.146,4.256c-1.771,2.798-2.648,7.684-2.648,14.656v27.017h-13.006
			v-56.054h-0.004V340.896z"/>
	</g>
	<g>
		<path fill="#FFFFFF" d="M213.555,139.819l-58.381,44.061l58.381,38.921v33.047l-84.451-60.583v-19.828l84.451-68.664V139.819z
			 M245.867,284.121h-23.5L269,81.438h23.498L245.867,284.121z M385.396,195.264l-84.453,60.583V222.8l58.381-38.921l-58.381-44.061
			v-33.046l84.453,68.664V195.264z"/>
	</g>
</g>
<g>
	<path fill="#FFFFFF" d="M506.889,108.764l11.402,15.697h-6.799l-10.52-15.077h-1.003v15.077h-5.559V87.628h6.513
		c4.867,0,8.381,0.915,10.544,2.743c2.387,2.036,3.578,4.724,3.578,8.063c0,2.608-0.747,4.851-2.241,6.727
		C511.309,107.038,509.337,108.239,506.889,108.764z M499.97,104.541h1.766c5.264,0,7.896-2.011,7.896-6.035
		c0-3.769-2.56-5.653-7.681-5.653h-1.98V104.541z"/>
	<path fill="#FFFFFF" d="M543.172,114.107h-16.651c0.144,1.908,0.764,3.427,1.861,4.556c1.097,1.114,2.504,1.671,4.222,1.671
		c1.337,0,2.441-0.318,3.315-0.954c0.859-0.637,1.837-1.813,2.935-3.531l4.533,2.529c-0.7,1.192-1.439,2.215-2.219,3.064
		c-0.779,0.852-1.614,1.551-2.505,2.1s-1.854,0.95-2.887,1.205c-1.033,0.254-2.155,0.382-3.363,0.382c-3.468,0-6.25-1.113-8.35-3.34
		c-2.099-2.242-3.148-5.217-3.148-8.922c0-3.674,1.018-6.647,3.053-8.922c2.053-2.242,4.771-3.364,8.159-3.364
		c3.419,0,6.122,1.09,8.11,3.269c1.973,2.163,2.958,5.161,2.958,8.993L543.172,114.107z M537.661,109.718
		c-0.747-2.862-2.553-4.294-5.415-4.294c-0.652,0-1.265,0.1-1.837,0.299c-0.573,0.198-1.094,0.484-1.562,0.858
		c-0.47,0.374-0.871,0.823-1.205,1.348c-0.334,0.525-0.589,1.121-0.764,1.789H537.661z"/>
	<path fill="#FFFFFF" d="M554.408,84.169v40.292h-5.367V84.169H554.408z"/>
	<path fill="#FFFFFF" d="M582.366,114.107h-16.65c0.143,1.908,0.763,3.427,1.86,4.556c1.098,1.114,2.505,1.671,4.222,1.671
		c1.337,0,2.442-0.318,3.316-0.954c0.859-0.637,1.837-1.813,2.934-3.531l4.533,2.529c-0.7,1.192-1.439,2.215-2.219,3.064
		c-0.779,0.852-1.614,1.551-2.505,2.1s-1.853,0.95-2.887,1.205c-1.033,0.254-2.155,0.382-3.363,0.382c-3.467,0-6.25-1.113-8.35-3.34
		c-2.099-2.242-3.148-5.217-3.148-8.922c0-3.674,1.018-6.647,3.053-8.922c2.053-2.242,4.771-3.364,8.159-3.364
		c3.419,0,6.122,1.09,8.11,3.269c1.973,2.163,2.958,5.161,2.958,8.993L582.366,114.107z M576.856,109.718
		c-0.748-2.862-2.554-4.294-5.416-4.294c-0.652,0-1.264,0.1-1.837,0.299c-0.572,0.198-1.094,0.484-1.562,0.858
		c-0.47,0.374-0.871,0.823-1.204,1.348c-0.334,0.525-0.589,1.121-0.764,1.789H576.856z"/>
	<path fill="#FFFFFF" d="M605.362,101.226h5.392v23.235h-5.392v-2.434c-2.21,2.067-4.588,3.102-7.133,3.102
		c-3.213,0-5.868-1.161-7.967-3.483c-2.084-2.369-3.125-5.327-3.125-8.874c0-3.482,1.041-6.385,3.125-8.707
		c2.083-2.322,4.691-3.483,7.824-3.483c2.704,0,5.129,1.113,7.275,3.34V101.226z M592.624,112.771c0,2.227,0.597,4.04,1.789,5.438
		c1.225,1.416,2.767,2.124,4.628,2.124c1.987,0,3.594-0.684,4.818-2.052c1.225-1.416,1.837-3.212,1.837-5.392
		c0-2.179-0.612-3.976-1.837-5.392c-1.225-1.383-2.814-2.075-4.771-2.075c-1.845,0-3.388,0.7-4.628,2.1
		C593.236,108.939,592.624,110.688,592.624,112.771z"/>
	<path fill="#FFFFFF" d="M631.031,105.186l-4.438,2.361c-0.7-1.431-1.566-2.146-2.601-2.146c-0.492,0-0.914,0.163-1.264,0.489
		c-0.35,0.325-0.524,0.743-0.524,1.252c0,0.891,1.033,1.773,3.101,2.647c2.847,1.226,4.763,2.354,5.749,3.388
		c0.986,1.034,1.479,2.426,1.479,4.175c0,2.242-0.827,4.119-2.481,5.63c-1.606,1.432-3.546,2.147-5.82,2.147
		c-3.896,0-6.655-1.9-8.277-5.702l4.58-2.123c0.636,1.113,1.12,1.821,1.455,2.123c0.652,0.605,1.432,0.907,2.338,0.907
		c1.812,0,2.719-0.827,2.719-2.481c0-0.954-0.7-1.845-2.099-2.672c-0.541-0.271-1.082-0.532-1.622-0.787
		c-0.541-0.254-1.09-0.517-1.646-0.787c-1.56-0.764-2.657-1.527-3.293-2.29c-0.811-0.97-1.216-2.219-1.216-3.745
		c0-2.02,0.691-3.689,2.075-5.01c1.415-1.32,3.133-1.98,5.152-1.98C627.373,100.581,629.584,102.116,631.031,105.186z"/>
	<path fill="#FFFFFF" d="M658.512,114.107h-16.65c0.143,1.908,0.763,3.427,1.86,4.556c1.098,1.114,2.505,1.671,4.223,1.671
		c1.336,0,2.441-0.318,3.315-0.954c0.859-0.637,1.837-1.813,2.934-3.531l4.533,2.529c-0.7,1.192-1.439,2.215-2.219,3.064
		c-0.779,0.852-1.614,1.551-2.505,2.1s-1.853,0.95-2.887,1.205c-1.033,0.254-2.155,0.382-3.363,0.382
		c-3.467,0-6.249-1.113-8.35-3.34c-2.099-2.242-3.148-5.217-3.148-8.922c0-3.674,1.018-6.647,3.053-8.922
		c2.053-2.242,4.771-3.364,8.159-3.364c3.419,0,6.122,1.09,8.11,3.269c1.973,2.163,2.958,5.161,2.958,8.993L658.512,114.107z
		 M653.002,109.718c-0.748-2.862-2.554-4.294-5.416-4.294c-0.652,0-1.264,0.1-1.837,0.299c-0.572,0.198-1.094,0.484-1.562,0.858
		s-0.871,0.823-1.204,1.348c-0.334,0.525-0.589,1.121-0.764,1.789H653.002z"/>
	<path fill="#FFFFFF" d="M682.344,101.226l6.012,13.049l5.988-13.049h6.035l-12.071,24.833l-11.975-24.833H682.344z"/>
	<path fill="#FFFFFF" d="M713.856,92.828h-6.369l3.054-5.2h8.874v36.833h-5.559V92.828z"/>
	<path fill="#FFFFFF" d="M732.105,121.789c0-0.891,0.325-1.662,0.979-2.314c0.651-0.651,1.431-0.978,2.338-0.978
		c0.905,0,1.685,0.326,2.338,0.978c0.651,0.652,0.978,1.432,0.978,2.338c0,0.923-0.326,1.71-0.978,2.361
		c-0.638,0.637-1.417,0.955-2.338,0.955c-0.939,0-1.727-0.318-2.362-0.955C732.423,123.538,732.105,122.743,732.105,121.789z"/>
	<path fill="#FFFFFF" d="M755.197,119.236h13.717v5.225h-24.737l12.785-15.482c1.257-1.543,2.311-2.878,3.161-4.008
		c0.851-1.129,1.499-2.075,1.944-2.839c0.906-1.494,1.36-2.839,1.36-4.031c0-1.718-0.604-3.157-1.813-4.317
		c-1.209-1.161-2.704-1.742-4.485-1.742c-3.722,0-5.853,2.203-6.393,6.607h-5.535c0.892-7.76,4.812-11.641,11.761-11.641
		c3.356,0,6.171,1.065,8.445,3.196c2.29,2.132,3.436,4.771,3.436,7.92c0,2.004-0.533,3.969-1.6,5.893
		c-0.54,1.002-1.331,2.19-2.372,3.566c-1.042,1.376-2.358,3.002-3.948,4.878L755.197,119.236z"/>
</g>
<g>
	<path fill="#FFFFFF" d="M709.35,383.479c0,4.242-1.452,7.815-4.36,10.724c-2.905,2.905-6.48,4.359-10.723,4.359H509.495
		c-4.242,0-7.816-1.454-10.723-4.359c-2.907-2.908-4.36-6.481-4.36-10.724V198.707c0-4.242,1.453-7.815,4.36-10.724
		c2.907-2.905,6.481-4.359,10.723-4.359h184.771c4.242,0,7.817,1.454,10.723,4.359c2.908,2.908,4.36,6.481,4.36,10.724V383.479z
		 M615.314,255.27V231.23h-23.803v24.039h-24.275V231.23h-23.568v24.039h-24.039v23.568h24.039v24.274h-24.039v23.804h24.039v24.039
		h23.568v-24.039h24.275v24.039h23.803v-24.039h24.039v-23.804h-24.039v-24.274h24.039V255.27H615.314z M591.511,278.838v24.274
		h-24.275v-24.274H591.511z M679.891,326.562c-2.828-2.748-6.207-4.124-10.135-4.124s-7.266,1.376-10.017,4.124
		c-2.748,2.751-4.124,6.089-4.124,10.017c0,4.086,1.376,7.504,4.124,10.252c2.751,2.751,6.089,4.125,10.017,4.125
		s7.307-1.374,10.135-4.125c2.828-2.748,4.242-6.166,4.242-10.252C684.133,332.65,682.719,329.312,679.891,326.562z M656.322,231.23
		v32.995l4.949,47.136h17.676l5.186-47.136V231.23H656.322z"/>
	<path fill="#FFFFFF" d="M935.601,183.624c4.242,0,7.815,1.454,10.724,4.359c2.905,2.908,4.359,6.481,4.359,10.724v184.771
		c0,4.242-1.454,7.815-4.359,10.724c-2.908,2.905-6.481,4.359-10.724,4.359H750.829c-4.242,0-7.817-1.454-10.723-4.359
		c-2.908-2.908-4.36-6.481-4.36-10.724V198.707c0-4.242,1.452-7.815,4.36-10.724c2.905-2.905,6.48-4.359,10.723-4.359H935.601z
		 M821.769,299.105v-12.727l-54.442-44.071v21.211L804.8,291.8l-37.474,24.981v21.211L821.769,299.105z M919.103,361.561v-14.612
		h-80.365v14.612H919.103z"/>
</g>
</svg>
