<?xml version="1.0" encoding="utf-8"?>
<!-- Generator: Adobe Illustrator 16.0.0, SVG Export Plug-In . SVG Version: 6.00 Build 0)  -->
<!DOCTYPE svg PUBLIC "-//W3C//DTD SVG 1.1//EN" "http://www.w3.org/Graphics/SVG/1.1/DTD/svg11.dtd">
<svg version="1.1" id="Layer_1" xmlns="http://www.w3.org/2000/svg" xmlns:xlink="http://www.w3.org/1999/xlink" x="0px" y="0px"
	 width="1280px" height="480px" viewBox="0 0 1280 480" enable-background="new 0 0 1280 480" xml:space="preserve">
<path id="Background" fill="#333333" d="M1280,470c0,5.521-4.479,10-10,10H10c-5.523,0-10-4.479-10-10V10C0,4.477,4.477,0,10,0h1260
	c5.521,0,10,4.477,10,10V470z"/>
<g id="Logo">
	<g>
		<path fill="#FFFFFF" d="M99.037,299.746v47.652c5.182-5.371,11.051-8.06,17.611-8.06c7.559,0,13.85,2.821,18.879,8.461
			c5.022,5.604,7.539,12.584,7.539,20.95c0,8.633-2.533,15.77-7.601,21.41c-5.024,5.604-11.377,8.402-19.051,8.402
			c-6.482,0-12.279-2.496-17.381-7.481v5.87H86.085v-97.207L99.037,299.746L99.037,299.746z M129.828,369.326
			c0-5.372-1.457-9.744-4.375-13.121c-2.955-3.454-6.656-5.182-11.107-5.182c-4.76,0-8.633,1.672-11.625,5.01
			c-2.955,3.3-4.434,7.596-4.434,12.889c0,5.451,1.457,9.811,4.375,13.066c2.916,3.339,6.754,5.008,11.51,5.008
			c4.49,0,8.211-1.669,11.166-5.008C128.332,378.611,129.828,374.391,129.828,369.326z"/>
		<path fill="#FFFFFF" d="M154.807,317.586c0-2.266,0.824-4.22,2.478-5.87c1.647-1.647,3.625-2.477,5.93-2.477
			c2.34,0,4.334,0.825,5.984,2.477c1.647,1.611,2.475,3.589,2.475,5.929c0,2.342-0.824,4.336-2.475,5.984
			c-1.613,1.65-3.588,2.475-5.931,2.475c-2.342,0-4.336-0.821-5.983-2.475C155.631,321.979,154.807,319.965,154.807,317.586z
			 M169.711,340.896v56.056h-12.947v-56.056H169.711z"/>
		<path fill="#FFFFFF" d="M199.465,352.98v43.972h-12.947V352.98h-5.522v-12.086h5.522v-20.547h12.947v20.547h10.072v12.086H199.465
			z"/>
		<path fill="#FFFFFF" d="M234.229,308.09v88.862H220.82V308.09H234.229z"/>
		<path fill="#FFFFFF" d="M296.729,343.312v17.209c-2.952-3.605-5.602-6.08-7.938-7.426c-2.301-1.382-5.008-2.07-8.115-2.07
			c-4.875,0-8.918,1.709-12.145,5.123c-3.228,3.414-4.834,7.69-4.834,12.832c0,5.26,1.555,9.573,4.662,12.951
			c3.146,3.373,7.151,5.062,12.024,5.062c3.109,0,5.854-0.671,8.229-2.017c2.301-1.304,5.008-3.836,8.112-7.598v17.096
			c-5.258,2.724-10.514,4.085-15.77,4.085c-8.67,0-15.922-2.799-21.754-8.4c-5.832-5.642-8.75-12.644-8.75-21.007
			c0-8.364,2.955-15.426,8.865-21.183c5.903-5.754,13.155-8.633,21.754-8.633C286.604,339.34,291.818,340.666,296.729,343.312z"/>
		<path fill="#FFFFFF" d="M306.629,368.521c0-8.097,2.898-14.982,8.691-20.66c5.793-5.68,12.852-8.52,21.18-8.52
			c8.363,0,15.461,2.859,21.295,8.575c5.754,5.718,8.633,12.739,8.633,21.063c0,8.401-2.896,15.441-8.688,21.121
			c-5.832,5.641-12.988,8.46-21.473,8.46c-8.398,0-15.439-2.88-21.117-8.634C309.469,384.253,306.629,377.117,306.629,368.521z
			 M319.867,368.752c0,5.604,1.498,10.035,4.49,13.295c3.064,3.301,7.111,4.948,12.143,4.948c5.064,0,9.111-1.629,12.146-4.894
			c3.023-3.261,4.547-7.613,4.547-13.062c0-5.447-1.521-9.805-4.547-13.062c-3.07-3.302-7.119-4.949-12.146-4.949
			c-4.949,0-8.959,1.647-12.027,4.949C321.402,359.273,319.867,363.534,319.867,368.752z"/>
		<path fill="#FFFFFF" d="M380.123,340.896h13.008v5.179c4.527-4.489,9.631-6.734,15.312-6.734c6.521,0,11.604,2.054,15.252,6.16
			c3.145,3.491,4.719,9.188,4.719,17.092v34.358h-13.008V365.68c0-5.519-0.771-9.33-2.307-11.438
			c-1.492-2.146-4.221-3.223-8.172-3.223c-4.297,0-7.348,1.42-9.146,4.256c-1.77,2.798-2.648,7.684-2.648,14.656v27.017h-13.006
			v-56.054h-0.004V340.896z"/>
	</g>
	<g>
		<path fill="#FFFFFF" d="M213.555,139.819l-58.381,44.061l58.381,38.921v33.047l-84.451-60.583v-19.828l84.451-68.664V139.819z
			 M245.867,284.121h-23.5L269,81.438h23.498L245.867,284.121z M385.396,195.264l-84.452,60.583v-33.047l58.381-38.921
			l-58.381-44.061v-33.046l84.452,68.664V195.264z"/>
	</g>
</g>
<g enable-background="new    ">
	<path fill="#FFFFFF" d="M506.888,108.764l11.403,15.696h-6.799l-10.521-15.076h-1.001v15.076h-5.559V87.628h6.513
		c4.866,0,8.381,0.914,10.544,2.743c2.385,2.036,3.578,4.724,3.578,8.062c0,2.608-0.748,4.852-2.242,6.728
		C511.309,107.038,509.336,108.238,506.888,108.764z M499.97,104.541h1.765c5.264,0,7.896-2.012,7.896-6.035
		c0-3.77-2.561-5.654-7.681-5.654h-1.98V104.541z"/>
	<path fill="#FFFFFF" d="M543.171,114.106H526.52c0.143,1.909,0.764,3.428,1.861,4.557c1.097,1.113,2.505,1.67,4.222,1.67
		c1.336,0,2.441-0.318,3.316-0.954c0.859-0.636,1.837-1.813,2.934-3.53l4.533,2.528c-0.7,1.192-1.439,2.215-2.219,3.065
		s-1.614,1.551-2.504,2.1c-0.891,0.548-1.853,0.949-2.887,1.204c-1.034,0.254-2.155,0.382-3.364,0.382
		c-3.467,0-6.25-1.113-8.349-3.34c-2.099-2.242-3.149-5.216-3.149-8.922c0-3.674,1.018-6.647,3.054-8.922
		c2.051-2.242,4.771-3.363,8.158-3.363c3.419,0,6.123,1.09,8.111,3.268c1.972,2.163,2.958,5.161,2.958,8.994L543.171,114.106z
		 M537.661,109.718c-0.748-2.863-2.553-4.294-5.416-4.294c-0.652,0-1.264,0.1-1.836,0.298c-0.573,0.199-1.094,0.485-1.562,0.858
		c-0.47,0.374-0.871,0.823-1.205,1.349c-0.334,0.524-0.588,1.121-0.763,1.789H537.661z"/>
	<path fill="#FFFFFF" d="M554.407,84.169v40.291h-5.368V84.169H554.407z"/>
	<path fill="#FFFFFF" d="M582.365,114.106h-16.651c0.143,1.909,0.764,3.428,1.861,4.557c1.097,1.113,2.505,1.67,4.222,1.67
		c1.336,0,2.441-0.318,3.316-0.954c0.859-0.636,1.837-1.813,2.934-3.53l4.533,2.528c-0.7,1.192-1.439,2.215-2.219,3.065
		s-1.614,1.551-2.504,2.1c-0.891,0.548-1.853,0.949-2.887,1.204c-1.034,0.254-2.155,0.382-3.364,0.382
		c-3.467,0-6.25-1.113-8.349-3.34c-2.099-2.242-3.149-5.216-3.149-8.922c0-3.674,1.018-6.647,3.054-8.922
		c2.051-2.242,4.771-3.363,8.158-3.363c3.419,0,6.123,1.09,8.111,3.268c1.972,2.163,2.958,5.161,2.958,8.994L582.365,114.106z
		 M576.855,109.718c-0.748-2.863-2.553-4.294-5.416-4.294c-0.652,0-1.264,0.1-1.836,0.298c-0.573,0.199-1.094,0.485-1.562,0.858
		c-0.47,0.374-0.871,0.823-1.205,1.349c-0.334,0.524-0.588,1.121-0.763,1.789H576.855z"/>
	<path fill="#FFFFFF" d="M605.362,101.225h5.391v23.235h-5.391v-2.434c-2.211,2.068-4.588,3.102-7.133,3.102
		c-3.213,0-5.869-1.161-7.968-3.482c-2.083-2.37-3.125-5.328-3.125-8.875c0-3.482,1.042-6.385,3.125-8.707
		c2.083-2.321,4.691-3.482,7.825-3.482c2.703,0,5.129,1.113,7.276,3.34V101.225z M592.623,112.771c0,2.228,0.596,4.04,1.789,5.439
		c1.225,1.416,2.767,2.123,4.628,2.123c1.988,0,3.594-0.684,4.819-2.052c1.224-1.415,1.837-3.212,1.837-5.391
		s-0.613-3.976-1.837-5.392c-1.225-1.384-2.815-2.075-4.771-2.075c-1.845,0-3.388,0.699-4.628,2.099
		C593.235,108.938,592.623,110.688,592.623,112.771z"/>
	<path fill="#FFFFFF" d="M631.03,105.185l-4.437,2.362c-0.7-1.432-1.567-2.147-2.601-2.147c-0.493,0-0.915,0.163-1.264,0.489
		c-0.35,0.326-0.525,0.743-0.525,1.252c0,0.892,1.034,1.774,3.101,2.648c2.847,1.225,4.763,2.354,5.749,3.388
		c0.986,1.033,1.479,2.425,1.479,4.175c0,2.242-0.827,4.119-2.481,5.629c-1.607,1.432-3.547,2.147-5.821,2.147
		c-3.896,0-6.656-1.9-8.278-5.701l4.58-2.123c0.636,1.113,1.121,1.821,1.455,2.123c0.652,0.604,1.432,0.906,2.338,0.906
		c1.813,0,2.72-0.827,2.72-2.48c0-0.955-0.7-1.845-2.1-2.672c-0.541-0.271-1.082-0.533-1.622-0.787
		c-0.541-0.255-1.089-0.518-1.646-0.788c-1.559-0.763-2.656-1.526-3.292-2.29c-0.811-0.97-1.216-2.218-1.216-3.745
		c0-2.02,0.691-3.689,2.075-5.01c1.416-1.319,3.133-1.979,5.153-1.979C627.372,100.581,629.583,102.116,631.03,105.185z"/>
	<path fill="#FFFFFF" d="M658.511,114.106h-16.651c0.144,1.909,0.764,3.428,1.861,4.557c1.098,1.113,2.505,1.67,4.223,1.67
		c1.336,0,2.441-0.318,3.315-0.954c0.858-0.636,1.837-1.813,2.935-3.53l4.532,2.528c-0.7,1.192-1.439,2.215-2.219,3.065
		s-1.614,1.551-2.505,2.1c-0.891,0.548-1.853,0.949-2.887,1.204c-1.033,0.254-2.154,0.382-3.363,0.382
		c-3.467,0-6.25-1.113-8.349-3.34c-2.099-2.242-3.149-5.216-3.149-8.922c0-3.674,1.018-6.647,3.054-8.922
		c2.052-2.242,4.771-3.363,8.158-3.363c3.419,0,6.122,1.09,8.11,3.268c1.973,2.163,2.959,5.161,2.959,8.994L658.511,114.106z
		 M653,109.718c-0.748-2.863-2.553-4.294-5.415-4.294c-0.651,0-1.265,0.1-1.837,0.298c-0.572,0.199-1.094,0.485-1.562,0.858
		c-0.469,0.374-0.871,0.823-1.205,1.349c-0.334,0.524-0.588,1.121-0.763,1.789H653z"/>
	<path fill="#FFFFFF" d="M682.342,101.225l6.012,13.049l5.988-13.049h6.035l-12.07,24.834l-11.977-24.834H682.342z"/>
	<path fill="#FFFFFF" d="M713.855,92.828h-6.37l3.054-5.2h8.874v36.832h-5.558V92.828z"/>
	<path fill="#FFFFFF" d="M732.104,121.788c0-0.891,0.326-1.661,0.979-2.313s1.432-0.979,2.338-0.979s1.686,0.326,2.338,0.979
		s0.979,1.431,0.979,2.338c0,0.922-0.326,1.709-0.979,2.361c-0.637,0.636-1.416,0.954-2.338,0.954c-0.938,0-1.726-0.318-2.361-0.954
		C732.422,123.538,732.104,122.742,732.104,121.788z"/>
	<path fill="#FFFFFF" d="M752.285,92.828h-6.369l3.054-5.2h8.874v36.832h-5.559V92.828z"/>
</g>
<g enable-background="new    ">
	<path fill="#FFFFFF" d="M694.266,183.624c4.242,0,7.814,1.454,10.723,4.359c2.906,2.909,4.359,6.481,4.359,10.724v184.771
		c0,4.242-1.453,7.818-4.359,10.724c-2.908,2.905-6.48,4.36-10.723,4.36H509.495c-4.242,0-7.818-1.455-10.723-4.36
		c-2.909-2.905-4.36-6.481-4.36-10.724V198.707c0-4.242,1.451-7.814,4.36-10.724c2.905-2.905,6.481-4.359,10.723-4.359H694.266z
		 M554.745,322.909c0.313-1.569,0.589-3.064,0.825-4.479c0.236-1.414,0.431-2.828,0.589-4.242c-2.986-0.626-4.913-1.491-5.774-2.592
		c-0.866-1.098-1.296-3.142-1.296-6.128c0-8.639,0-17.322,0-26.042c0-8.721,0-17.399,0-26.043c0-0.471,0-0.942,0-1.414
		c0-0.471,0-0.942,0-1.414c-0.317,0-0.589,0-0.825,0c-0.236,0-0.435,0-0.589,0c-2.828,0-5.737,0-8.72,0
		c-2.986,0-5.892,0.159-8.72,0.472c-4.559,0.316-7.977,1.613-10.252,3.889c-2.28,2.279-3.499,5.697-3.653,10.252
		c0,2.674,0,5.303,0,7.896c0,2.592,0,5.226,0,7.895c-0.158,2.987-0.788,5.186-1.885,6.6c-1.101,1.414-3.064,2.438-5.892,3.063
		c-0.158,0-0.316,0.081-0.471,0.235c0,1.414,0,2.792,0,4.125c0,1.336,0,2.71,0,4.124c2.511,0.316,4.438,1.061,5.774,2.239
		c1.333,1.178,2.081,3.026,2.239,5.538c0.154,2.202,0.195,4.478,0.118,6.835c-0.081,2.356-0.041,4.636,0.118,6.834
		c0,1.414,0.037,2.869,0.118,4.36c0.077,1.495,0.272,2.946,0.589,4.36c0.785,3.457,3.101,6.127,6.953,8.013
		c3.848,1.886,7.737,2.356,11.666,1.414c0-1.256,0-2.552,0-3.889c0-1.333,0-2.788,0-4.36c-0.63,0-1.178,0-1.65,0
		c-0.471,0-0.942,0-1.414,0c-2.043-0.312-3.576-0.979-4.596-2.003c-1.023-1.021-1.532-2.552-1.532-4.596c0-0.626,0-1.296,0-2.003
		s-0.081-1.374-0.236-2.004c0-2.511,0-4.985,0-7.424c0-2.434-0.081-4.908-0.235-7.424c-0.159-1.885-0.589-3.612-1.296-5.185
		c-0.707-1.568-1.849-2.905-3.417-4.007c-0.158-0.154-0.354-0.272-0.589-0.354c-0.236-0.077-0.512-0.195-0.825-0.354
		c2.67-2.356,4.32-4.161,4.949-5.42c0.626-1.256,1.098-3.535,1.414-6.835c0.155-2.198,0.236-4.396,0.236-6.599
		c0-2.198-0.081-4.479-0.236-6.835c-0.158-5.185,0.744-8.168,2.71-8.956c1.963-0.784,4.75-1.178,8.367-1.178
		c0.154,0,0.272,0.04,0.354,0.117c0.077,0.081,0.272,0.118,0.589,0.118c0,0.472,0,0.906,0,1.296c0,0.395,0,0.825,0,1.297
		c0,7.7,0,15.399,0,23.096c0,7.7,0,15.4,0,23.097c0,2.202,0.236,4.323,0.707,6.363c0.472,2.044,1.727,3.771,3.771,5.185
		c1.727,1.414,3.612,2.279,5.656,2.593C550.421,322.754,552.542,322.909,554.745,322.909z M599.052,301.462
		c0.313-2.67,0.313-5.538,0-8.602c-0.316-3.064-0.865-5.693-1.649-7.896c-0.943-2.198-2.162-4.124-3.653-5.774
		c-1.495-1.649-3.263-2.945-5.303-3.889c-5.501-2.669-11.158-2.982-16.969-0.942c-5.814,2.044-9.979,5.814-12.491,11.312
		c-1.885,4.088-2.828,8.249-2.828,12.491s0.862,8.406,2.592,12.49c0.943,2.357,2.239,4.4,3.889,6.128
		c1.65,1.73,3.653,3.063,6.01,4.007c4.397,1.885,8.797,2.71,13.198,2.475c4.396-0.236,8.797-0.979,13.198-2.239
		c0.155-0.154,0.354-0.391,0.589-0.707c0.235-0.313,0.354-0.549,0.354-0.707c-0.159-1.256-0.354-2.552-0.589-3.889
		c-0.236-1.333-0.435-2.629-0.589-3.889c-4.087,1.101-7.306,1.768-9.663,2.003c-2.357,0.236-4.794,0.118-7.306-0.354
		c-3.145-0.471-5.697-1.885-7.659-4.242c-1.967-2.356-2.71-4.949-2.239-7.777c5.185,0,10.33,0,15.437,0
		C588.483,301.462,593.708,301.462,599.052,301.462z M578.077,282.372c3.141-0.154,5.656,0.788,7.542,2.828
		c1.886,2.044,2.828,4.795,2.828,8.249c-3.458,0-6.916,0-10.37,0c-3.458,0-6.834,0-10.134,0c-0.158-2.982,0.785-5.575,2.828-7.777
		C572.811,283.474,575.249,282.372,578.077,282.372z M636.053,312.304c0.471-3.771,0.077-6.912-1.178-9.428
		c-1.26-2.511-3.617-4.632-7.071-6.363c-0.788-0.312-1.573-0.666-2.357-1.061c-0.788-0.39-1.65-0.743-2.592-1.061
		c-0.63-0.312-1.337-0.589-2.121-0.824c-0.788-0.236-1.573-0.509-2.357-0.825c-0.317-0.154-0.67-0.354-1.061-0.589
		c-0.394-0.236-0.825-0.432-1.296-0.59c-0.942-0.626-1.69-1.373-2.239-2.238c-0.552-0.862-0.748-1.923-0.589-3.182
		c0-0.943,0.431-1.768,1.296-2.475c0.862-0.707,1.922-1.138,3.182-1.297c2.357-0.471,4.713-0.508,7.07-0.117
		c2.357,0.394,4.791,0.983,7.307,1.768c0.312-1.414,0.625-2.828,0.941-4.242c0.313-1.414,0.627-2.983,0.943-4.714
		c-2.044-0.312-4.087-0.666-6.127-1.061c-2.044-0.391-4.088-0.666-6.128-0.825c-2.202-0.154-4.323-0.036-6.363,0.354
		c-2.043,0.395-4.087,1.061-6.127,2.004c-4.4,2.356-6.68,6.168-6.834,11.43c-0.159,5.267,1.727,9.074,5.656,11.431
		c1.255,0.63,2.511,1.219,3.771,1.768c1.256,0.553,2.434,1.142,3.535,1.768c1.414,0.63,2.788,1.219,4.125,1.768
		c1.333,0.553,2.629,1.219,3.889,2.003c0.784,0.472,1.374,1.142,1.768,2.004c0.39,0.865,0.508,1.768,0.354,2.71
		c-0.317,1.101-0.825,1.926-1.532,2.475c-0.707,0.553-1.532,0.906-2.475,1.061c-1.414,0.158-2.828,0.276-4.242,0.354
		c-1.414,0.081-2.751,0.04-4.007-0.118c-1.73-0.312-3.417-0.666-5.067-1.061c-1.65-0.39-3.34-0.743-5.067-1.061
		c-0.159,0.943-0.354,1.967-0.589,3.064c-0.236,1.101-0.435,2.121-0.589,3.063c-0.316,0.942-0.354,1.649-0.118,2.121
		s0.825,0.865,1.768,1.179c3.454,0.942,6.872,1.495,10.252,1.649c3.377,0.158,6.794,0,10.252-0.472
		c3.299-0.626,6.01-1.845,8.131-3.652C634.286,317.216,635.583,314.977,636.053,312.304z M639.352,321.495
		c3.3,0.942,6.636,1.495,10.017,1.649c3.377,0.158,6.793,0,10.252-0.472c3.453-0.626,6.244-1.845,8.365-3.652
		c2.121-1.805,3.418-4.044,3.889-6.717c0.473-3.771,0.078-6.912-1.178-9.428c-1.26-2.511-3.615-4.632-7.07-6.363
		c-0.787-0.312-1.613-0.666-2.475-1.061c-0.865-0.39-1.689-0.743-2.475-1.061c-0.787-0.312-1.531-0.589-2.238-0.824
		c-0.707-0.236-1.455-0.509-2.24-0.825c-0.471-0.154-0.904-0.354-1.295-0.589c-0.395-0.236-0.748-0.432-1.061-0.59
		c-1.102-0.626-1.926-1.373-2.475-2.238c-0.553-0.862-0.748-1.923-0.59-3.182c0.154-0.943,0.627-1.768,1.414-2.475
		c0.785-0.707,1.885-1.138,3.299-1.297c2.357-0.471,4.715-0.508,7.07-0.117c2.357,0.394,4.715,0.983,7.07,1.768
		c0.314-1.414,0.668-2.828,1.061-4.242c0.391-1.414,0.744-2.983,1.061-4.714c-2.201-0.312-4.322-0.666-6.363-1.061
		c-2.043-0.391-4.006-0.666-5.891-0.825c-2.203-0.154-4.361-0.036-6.482,0.354c-2.121,0.395-4.123,1.061-6.01,2.004
		c-4.558,2.356-6.875,6.168-6.951,11.43c-0.082,5.267,1.844,9.074,5.773,11.431c1.098,0.63,2.275,1.219,3.535,1.768
		c1.256,0.553,2.512,1.142,3.771,1.768c1.414,0.63,2.787,1.219,4.123,1.768c1.334,0.553,2.631,1.219,3.889,2.003
		c0.785,0.472,1.375,1.142,1.768,2.004c0.391,0.865,0.432,1.768,0.119,2.71c-0.158,1.101-0.59,1.926-1.297,2.475
		c-0.707,0.553-1.531,0.906-2.475,1.061c-1.414,0.158-2.828,0.276-4.242,0.354c-1.414,0.081-2.828,0.04-4.242-0.118
		c-1.572-0.312-3.182-0.666-4.832-1.061c-1.648-0.39-3.34-0.743-5.066-1.061c-0.158,0.943-0.354,1.967-0.59,3.064
		c-0.234,1.101-0.512,2.121-0.824,3.063c-0.158,0.942-0.117,1.649,0.117,2.121C637.821,320.788,638.411,321.182,639.352,321.495z
		 M695.68,299.341c0-1.568,0-3.101,0-4.596c0-1.491,0-2.945,0-4.359c-1.572,0.316-2.986,0.158-4.242-0.472
		c-1.26-0.626-2.203-1.649-2.828-3.063c-0.473-0.943-0.789-1.963-0.943-3.064c-0.158-1.097-0.316-2.198-0.471-3.299
		c0-2.67,0-5.34,0-8.014c0-2.669-0.082-5.339-0.236-8.013c0-2.198-0.434-4.319-1.297-6.363c-0.865-2.04-2.318-3.689-4.359-4.949
		c-2.201-1.098-4.4-1.805-6.6-2.121c-2.201-0.312-4.477-0.472-6.834-0.472c0,1.414,0,2.828,0,4.242s0,2.828,0,4.242
		c0.312,0,0.549,0.041,0.707,0.118c0.154,0.081,0.312,0.118,0.471,0.118c3.143,0.158,5.264,0.788,6.363,1.885
		c1.098,1.102,1.65,3.146,1.65,6.128c0.154,2.202,0.195,4.441,0.117,6.717c-0.08,2.279-0.117,4.519-0.117,6.717
		c0.154,2.674,0.549,5.226,1.178,7.659c0.627,2.438,2.199,4.519,4.715,6.246c0,0.158,0,0.316,0,0.471
		c-1.26,0.943-2.32,1.967-3.182,3.064c-0.865,1.101-1.455,2.438-1.768,4.006c-0.316,1.26-0.512,2.556-0.59,3.889
		c-0.08,1.337-0.117,2.633-0.117,3.889c-0.158,2.357-0.236,4.677-0.236,6.953c0,2.279,0,4.596,0,6.952
		c0,1.886-0.434,3.3-1.297,4.242c-0.865,0.942-2.16,1.572-3.889,1.886c-0.629,0.158-1.295,0.275-2.002,0.354
		c-0.707,0.081-1.377,0.198-2.004,0.354c0,1.414,0,2.828,0,4.242s0,2.828,0,4.242c1.098-0.155,2.199-0.272,3.299-0.354
		c1.098-0.078,2.199-0.118,3.301-0.118c4.084-0.626,7.146-2.081,9.191-4.36c2.039-2.275,3.219-5.457,3.535-9.545
		c0-1.256,0-2.475,0-3.652c0-1.179,0-2.394,0-3.653c0-1.886,0-3.808,0-5.774c0-1.963,0.154-3.889,0.471-5.773
		c0.154-2.199,0.98-3.889,2.475-5.067C691.633,299.694,693.477,299.187,695.68,299.341z"/>
	<path fill="#FFFFFF" d="M935.598,183.624c4.242,0,7.814,1.454,10.725,4.359c2.904,2.909,4.359,6.481,4.359,10.724v184.771
		c0,4.242-1.455,7.818-4.359,10.724c-2.91,2.905-6.482,4.36-10.725,4.36h-184.77c-4.242,0-7.818-1.455-10.723-4.36
		c-2.91-2.905-4.361-6.481-4.361-10.724V198.707c0-4.242,1.451-7.814,4.361-10.724c2.904-2.905,6.48-4.359,10.723-4.359H935.598z
		 M878.564,279.309c10.211-4.084,18.619-10.878,25.217-20.386c6.6-9.505,8.721-18.892,6.363-28.164
		c-1.1-4.555-3.77-8.403-8.012-11.548c-4.242-3.141-9.35-5.34-15.32-6.599c-5.973-1.256-12.607-1.609-19.914-1.061
		c-7.307,0.552-14.574,2.161-21.801,4.831c-8.801,3.145-17.676,7.111-26.631,11.901c-8.955,4.795-16.814,10.411-23.566,16.852
		c-8.014,7.541-13.08,14.376-15.201,20.504c-2.121,6.127-2.947,10.528-2.475,13.197c1.885,9.744,7.895,17.952,18.029,24.629
		c10.133,6.68,17.869,12.373,23.213,17.086c-1.572,0.788-6.639,3.771-15.201,8.956c-8.564,5.185-14.258,10.764-17.086,16.733
		c-2.986,6.444-3.381,11.824-1.178,16.144c2.197,4.323,4.396,6.798,6.598,7.424c6.912,1.886,13.629,1.377,20.15-1.532
		c6.518-2.905,11.744-7.266,15.672-13.08c3.613-5.498,5.498-11.349,5.656-17.558c0.156-6.205-0.551-11.113-2.121-14.729
		c2.199-0.626,4.596-1.021,7.189-1.179c2.592-0.154,5.537-0.077,8.838,0.235c9.268,1.102,15.238,3.889,17.91,8.367
		c2.67,4.478,3.85,7.895,3.535,10.252c-0.316,2.356-1.219,4.242-2.709,5.656c-1.496,1.414-2.557,2.279-3.182,2.592
		c-0.631,0.472-1.061,0.788-1.297,0.943c-0.236,0.158-0.275,0.394-0.117,0.707c0,0.471,0.154,0.747,0.471,0.824
		c0.312,0.081,0.707,0.041,1.178-0.117c0.785-0.155,2.631-1.216,5.539-3.182c2.906-1.963,4.438-5.222,4.596-9.781
		c0.312-5.656-2.121-11.036-7.307-16.144c-5.184-5.104-12.648-7.578-22.389-7.424c-3.93,0-7.188,0.199-9.781,0.589
		c-2.592,0.395-4.83,0.906-6.717,1.532c0-0.154-0.08-0.272-0.234-0.354c-0.158-0.077-0.316-0.195-0.473-0.354
		c-5.973-6.44-13.08-12.373-21.328-17.794c-8.248-5.42-12.137-12.45-11.666-21.093c0.154-2.982,2.275-8.285,6.363-15.908
		c4.084-7.619,16.025-16.38,35.822-26.278c16.34-8.167,30.402-11.783,42.188-10.841c11.783,0.942,18.773,3.93,20.975,8.956
		c1.568,3.458,1.568,7.541,0,12.255c-1.572,4.714-4.479,9.272-8.721,13.669c-4.242,4.401-9.703,8.29-16.379,11.666
		c-6.68,3.381-14.182,5.539-22.508,6.481c-6.443,0.788-11.43,0.316-14.965-1.414c-3.535-1.727-5.697-3.063-6.48-4.007
		c-0.943-0.942-1.533-1.491-1.768-1.649c-0.236-0.154-0.512-0.154-0.826,0c-0.629,0.316-0.865,0.825-0.707,1.532
		c0.156,0.707,0.391,1.377,0.707,2.003c0.473,1.26,1.729,2.869,3.771,4.831c2.041,1.967,4.791,3.499,8.248,4.596
		c3.143,1.102,8.25,1.613,15.32,1.532C861.125,284.534,869.293,282.767,878.564,279.309z M803.619,340.113
		c3.771-4.084,9.977-8.484,18.619-13.198c0.154-0.154,0.312-0.272,0.471-0.354c0.154-0.077,0.312-0.195,0.471-0.354
		c0.785,2.986,1.139,5.774,1.061,8.367c-0.08,2.592-0.512,5.066-1.295,7.424c-0.158,0.316-0.277,0.589-0.354,0.824
		c-0.082,0.236-0.199,0.512-0.354,0.825c0,0.316-0.082,0.589-0.236,0.825c-0.158,0.235-0.316,0.512-0.471,0.824
		c-0.631,1.26-1.338,2.475-2.121,3.653c-0.789,1.179-1.65,2.32-2.594,3.417c-3.145,3.3-6.561,5.579-10.252,6.835
		c-3.693,1.26-6.402,1.337-8.129,0.235c-2.045-1.097-2.594-3.652-1.65-7.659S800.004,343.884,803.619,340.113z"/>
	<path fill="#FFFFFF" d="M1176.932,183.624c4.242,0,7.814,1.454,10.725,4.359c2.904,2.909,4.359,6.481,4.359,10.724v184.771
		c0,4.242-1.455,7.818-4.359,10.724c-2.91,2.905-6.482,4.36-10.725,4.36h-184.77c-4.242,0-7.818-1.455-10.725-4.36
		c-2.908-2.905-4.359-6.481-4.359-10.724V198.707c0-4.242,1.451-7.814,4.359-10.724c2.906-2.905,6.482-4.359,10.725-4.359H1176.932z
		 M1168.213,319.138c0.154-4.396-1.768-8.602-5.775-12.608c-4.006-4.007-9.861-6.01-17.557-6.01c-2.828,0-5.539,0.316-8.131,0.942
		c-2.594,0.63-4.912,1.495-6.953,2.593c-0.787-1.568-1.531-3.023-2.238-4.36c-0.707-1.333-1.061-2.552-1.061-3.652
		c-0.158-1.098-0.316-2.121-0.473-3.064c-0.158-0.942-0.158-2.121,0-3.535c0.156-1.414,0.549-2.905,1.18-4.478
		c0.625-1.568,0.941-2.434,0.941-2.593c0-0.154-0.197-0.471-0.588-0.942c-0.395-0.472-1.455-0.707-3.182-0.707
		c-1.73,0-3.223,0.118-4.479,0.354c-1.26,0.235-1.967,0.589-2.121,1.061c-0.158,0.472-0.395,1.179-0.707,2.121
		c-0.316,0.942-0.553,1.886-0.707,2.828c-0.316,1.572-1.65,4.559-4.006,8.956c-2.357,4.4-4.479,8.013-6.363,10.841
		c-0.473-1.098-0.943-2.121-1.414-3.063c-0.473-0.943-0.707-1.805-0.707-2.593c-0.158-1.256-0.316-2.316-0.473-3.182
		c-0.158-0.861-0.158-2.003,0-3.417c0.314-1.414,0.744-2.946,1.297-4.596c0.549-1.65,0.824-2.553,0.824-2.711
		c0-0.154-0.197-0.471-0.588-0.942c-0.395-0.472-1.455-0.707-3.182-0.707c-1.73,0-3.223,0.158-4.479,0.472
		c-1.26,0.316-1.967,0.629-2.121,0.942c-0.158,0.472-0.354,1.179-0.59,2.121c-0.234,0.942-0.512,1.967-0.824,3.063
		c-0.316,0.943-1.967,4.754-4.949,11.431c-2.986,6.68-5.029,11.194-6.127,13.552c-0.473,1.101-0.943,2.121-1.414,3.063
		c-0.473,0.942-0.865,1.808-1.18,2.593c-0.158,0-0.234,0.081-0.234,0.235c-0.316,0.472-0.631,1.023-0.943,1.649
		c-0.158,0.472-0.354,0.865-0.59,1.179c-0.234,0.316-0.434,0.472-0.588,0.472c-0.158-2.04-0.082-3.771,0.234-5.186
		c0.627-3.141,1.451-6.636,2.475-10.487c1.021-3.849,1.533-5.852,1.533-6.01c0-0.154,0-0.549,0-1.179
		c0-0.626-0.631-1.178-1.887-1.649c-1.258-0.472-2.121-0.508-2.592-0.118c-0.471,0.395-0.787,0.59-0.943,0.59l-0.234,0.471
		c0.471-7.383-1.26-11.076-5.186-11.076c-2.357,0-4.99,1.101-7.895,3.299c-2.91,2.202-5.148,4.479-6.717,6.835
		c-1.102,0.63-2.674,1.495-4.715,2.593c-2.043,1.101-4.242,2.279-6.598,3.535c-0.943,0.471-1.887,0.982-2.828,1.531
		c-0.943,0.553-1.809,1.061-2.594,1.532l-0.234-0.235l-0.236-0.236c-4.713-5.026-10.293-9.662-16.732-13.904
		c-6.445-4.242-9.508-9.74-9.191-16.498c0.154-2.511,1.844-6.753,5.066-12.727c3.219-5.969,12.609-12.881,28.164-20.739
		c12.881-6.282,23.957-9.073,33.23-8.366c9.268,0.707,14.766,3.026,16.496,6.952c2.512,5.656,0.195,12.491-6.951,20.504
		c-7.152,8.013-17.322,12.808-30.521,14.376c-5.184,0.63-9.113,0.236-11.783-1.178c-2.674-1.414-4.4-2.435-5.186-3.064
		c-0.629-0.784-1.061-1.255-1.295-1.414c-0.236-0.154-0.512-0.154-0.826,0c-0.316,0.317-0.434,0.748-0.354,1.297
		c0.078,0.552,0.195,0.983,0.354,1.296c0.473,1.102,1.492,2.438,3.064,4.007c1.568,1.572,3.771,2.828,6.6,3.771
		c2.512,0.788,6.559,1.142,12.137,1.061c5.576-0.077,11.979-1.532,19.207-4.36c8.014-2.982,14.613-8.248,19.797-15.79
		c5.186-7.542,6.912-14.925,5.186-22.153c-1.885-7.384-8.053-12.175-18.5-14.377c-10.451-2.198-21.41-1.178-32.877,3.064
		c-6.916,2.356-13.869,5.461-20.857,9.309c-6.994,3.853-13.238,8.212-18.736,13.08c-6.287,5.974-10.252,11.394-11.902,16.262
		c-1.65,4.872-2.32,8.33-2.004,10.37c1.57,7.858,6.363,14.376,14.377,19.562c8.014,5.185,14.141,9.662,18.383,13.434
		c-0.158,0.158-0.354,0.275-0.59,0.354c-0.234,0.081-0.434,0.198-0.588,0.354c-2.045,0.942-6.129,3.299-12.256,7.07
		c-6.127,3.771-10.215,7.936-12.256,12.49c-2.201,5.03-2.475,9.232-0.824,12.609c1.65,3.38,3.336,5.303,5.066,5.773
		c5.498,1.572,10.842,1.179,16.027-1.178c5.184-2.357,9.268-5.812,12.254-10.37c2.984-4.396,4.479-9.151,4.479-14.259
		c0-5.104-0.707-8.992-2.121-11.666v-0.235c0.471-0.313,1.02-0.626,1.65-0.942c0.625-0.313,1.178-0.626,1.648-0.943
		c1.098-0.626,2.158-1.256,3.182-1.885c1.021-0.626,2.004-1.179,2.947-1.65c-0.473,1.414-0.906,3.027-1.297,4.832
		c-0.395,1.808-0.67,3.889-0.824,6.245c-0.316,2.986,0.037,6.091,1.061,9.31c1.02,3.222,2.316,5.538,3.889,6.952
		c0.625,0.63,1.332,0.983,2.121,1.061c0.783,0.081,1.414,0.118,1.885,0.118c1.885,0,3.299-0.626,4.242-1.886
		c0.943-1.256,1.885-2.747,2.828-4.478c1.098-2.199,2.512-5.34,4.242-9.428c-0.471,9.114,0.943,13.67,4.242,13.67
		c1.256,0,2.434-0.59,3.535-1.768c1.098-1.179,1.885-2.239,2.357-3.182l0.234,0.235c0-0.154,0-0.313,0-0.472
		c0.156-0.154,0.314-0.312,0.473-0.471v-0.236c0.471-0.784,1.256-2.157,2.355-4.124c1.098-1.963,2.436-4.596,4.008-7.896
		c2.197-4.084,5.025-10.288,8.484-18.618c0.471,2.356,0.941,4.559,1.414,6.599c0.471,1.26,1.02,2.556,1.648,3.889
		c0.627,1.337,1.256,2.711,1.887,4.125c-0.473,0.629-0.943,1.336-1.414,2.121c-0.473,0.471-0.906,0.982-1.297,1.531
		c-0.395,0.553-0.824,1.142-1.297,1.768c-1.73,1.886-3.416,3.812-5.066,5.774c-1.65,1.967-2.633,3.263-2.945,3.889
		c-0.316,0.788-0.395,1.495-0.236,2.121c0.154,0.63,0.471,1.179,0.943,1.649c0.471,0.317,1.098,0.512,1.885,0.59
		c0.785,0.081,1.568,0.117,2.357,0.117c1.414-0.154,2.67-0.39,3.77-0.707c1.098-0.312,1.887-0.549,2.357-0.707
		c0.785-0.312,1.65-0.707,2.592-1.178c0.943-0.472,1.805-1.021,2.594-1.65c1.727-1.256,3.062-2.747,4.006-4.478
		c0.943-1.728,1.334-3.689,1.178-5.892c0-1.256-0.197-2.512-0.588-3.771c-0.395-1.256-0.826-2.511-1.297-3.771
		c0.154-0.154,0.312-0.354,0.471-0.589c0.156-0.236,0.314-0.432,0.473-0.59c2.512-3.771,5.574-9.033,9.191-15.79
		c0.312,2.356,0.783,4.559,1.414,6.599c0.312,1.102,0.744,2.239,1.295,3.418c0.549,1.178,1.139,2.319,1.768,3.417
		c-2.355,1.886-4.322,3.889-5.891,6.01c-1.572,2.121-2.594,3.97-3.064,5.538c-0.943,2.674-1.141,4.714-0.59,6.128
		c0.549,1.414,1.533,2.202,2.947,2.356c0.783,0.158,1.568,0.118,2.355-0.117c0.785-0.236,1.492-0.432,2.121-0.59
		c0.943-0.312,1.887-0.707,2.828-1.178c0.943-0.472,1.887-1.098,2.828-1.886c1.729-1.098,3.219-2.512,4.479-4.242
		c1.256-1.728,1.885-3.771,1.885-6.128c0-0.942-0.158-1.922-0.471-2.945c-0.316-1.021-0.629-2.081-0.943-3.182
		c2.041-0.785,4.398-1.374,7.07-1.768c2.67-0.391,5.734-0.432,9.191-0.118c7.227,0.942,11.902,3.145,14.023,6.599
		c2.121,3.458,3.023,6.128,2.711,8.014c-0.158,2.043-0.826,3.575-2.004,4.596c-1.178,1.023-2.004,1.689-2.475,2.003
		c-0.471,0.316-0.824,0.553-1.061,0.707c-0.236,0.158-0.275,0.394-0.117,0.707c0,0.316,0.117,0.472,0.354,0.472
		c0.234,0,0.588,0,1.061,0c0.625-0.155,2.039-1.021,4.242-2.593C1166.875,325.111,1168.055,322.596,1168.213,319.138z
		 M1036.939,318.195c0.156,0,0.273-0.037,0.354-0.118c0.078-0.077,0.195-0.117,0.354-0.117c1.098,3.929,1.18,7.622,0.236,11.076
		c-0.943,3.458-2.674,6.521-5.186,9.191c-2.514,2.674-5.184,4.479-8.012,5.421s-5.031,1.023-6.6,0.235
		c-1.414-0.942-1.809-2.982-1.178-6.127c0.625-3.142,2.434-6.128,5.42-8.956c1.727-1.728,3.652-3.336,5.773-4.831
		c2.121-1.492,3.967-2.711,5.539-3.653c0.312-0.154,0.744-0.391,1.297-0.707c0.549-0.313,1.061-0.707,1.531-1.179
		c0.154,0,0.312,0,0.471,0V318.195z M1065.928,301.698c1.256-1.569,2.512-2.553,3.771-2.946c1.256-0.391,2.041-0.354,2.357,0.118
		c0.471,0.788,0,3.263-1.414,7.424c-1.414,4.164-2.357,6.875-2.828,8.131c-0.789,2.043-1.926,4.949-3.418,8.72
		c-1.494,3.771-2.791,5.579-3.889,5.421c-0.943-0.313-1.572-2.158-1.885-5.539c-0.316-3.377,0.154-7.029,1.414-10.959
		c0.625-1.885,1.531-3.848,2.709-5.892C1063.926,304.136,1064.986,302.641,1065.928,301.698z M1100.572,322.438
		c0.473-0.472,0.943-1.021,1.414-1.649c0.473-0.626,0.943-1.333,1.414-2.121c0,0.158,0,0.316,0,0.471
		c0,2.357-0.824,4.323-2.475,5.893c-1.648,1.572-3.025,2.673-4.123,3.299c-0.316,0.158-0.631,0.276-0.943,0.354
		c-0.316,0.081-0.553,0.118-0.707,0.118c-0.158-0.154-0.08-0.391,0.236-0.707C1098.059,325.266,1099.785,323.38,1100.572,322.438z
		 M1120.605,317.724c0.312-0.626,0.861-1.531,1.65-2.71c0.783-1.179,1.885-2.394,3.299-3.653c0.154,0.472,0.273,0.943,0.354,1.414
		c0.078,0.472,0.117,0.943,0.117,1.414c0,2.986-0.824,5.107-2.475,6.363c-1.648,1.26-3.104,2.121-4.359,2.593
		c-0.316-0.154-0.395-0.626-0.236-1.414C1119.111,320.946,1119.662,319.609,1120.605,317.724z"/>
</g>
</svg>
